<svg width="76" height="82" viewBox="0 0 76 82" fill="none" xmlns="http://www.w3.org/2000/svg">
<g clip-path="url(#clip0_13_21)">
<path d="M75.9961 24.0847C75.9955 22.7075 75.6883 21.4903 75.0669 20.4456C74.4571 19.4183 73.5431 18.5573 72.3176 17.8766C62.2001 12.2815 52.0722 6.7035 41.9579 1.10273C39.2311 -0.407151 36.5875 -0.3522 33.8806 1.17961C29.8535 3.45738 9.69119 14.5359 3.68273 17.8734C1.20858 19.2472 0.00445312 21.3496 0.00385938 24.0818C0 35.3343 0.00385938 46.5863 0 57.8388C0 59.1855 0.294797 60.3793 0.888547 61.4083C1.49892 62.4666 2.42547 63.3513 3.67947 64.0474C9.68822 67.3849 29.8532 78.4629 33.8794 80.741C36.5872 82.2733 39.2311 82.3283 41.9588 80.8178C52.0734 75.2168 62.2015 69.6391 72.3208 64.044C73.5748 63.3481 74.5014 62.4629 75.1117 61.4055C75.7046 60.3765 76 59.1829 76 57.8353C76 57.8353 76 35.3372 75.9961 24.0847Z" fill="#649AD2"/>
<path d="M38.1164 40.8508L0.888306 61.4083C1.49898 62.4666 2.42552 63.3513 3.67952 64.0474C9.68827 67.3849 29.8532 78.4629 33.8794 80.741C36.5872 82.2733 39.2312 82.3283 41.9589 80.8178C52.0734 75.2168 62.2016 69.6391 72.3209 64.044C73.5749 63.3481 74.5014 62.4629 75.1118 61.4055L38.1164 40.8508Z" fill="#004482"/>
<path d="M27.0898 46.9402C29.2561 50.567 33.3284 53.0133 38 53.0133C42.7004 53.0133 46.7958 50.5362 48.9511 46.8701L38.1164 40.8508L27.0898 46.9402Z" fill="#1A4674"/>
<path d="M75.9961 24.0847C75.9955 22.7075 75.6882 21.4903 75.0669 20.4456L38.1163 40.8508L75.1117 61.4055C75.7046 60.3765 75.9994 59.1829 76 57.8353C76 57.8353 76 35.3372 75.9961 24.0847Z" fill="#01589C"/>
<path d="M73.962 42.32H71.071V45.0932H68.1794V42.32H65.2888V39.5479H68.1794V36.7753H71.071V39.5479H73.962V42.32ZM38 16.7551C47.2432 16.7551 55.325 21.5213 59.7223 28.6305L59.8542 28.8466L48.8695 34.9132C46.6925 31.3231 42.6416 28.9073 38 28.9073C31.0591 28.9073 25.4324 34.3036 25.4324 40.9601C25.4301 43.0582 26.0016 45.1201 27.0898 46.9402C29.2561 50.567 33.3284 53.0133 38 53.0133C42.6488 53.0133 46.7059 50.5903 48.8796 46.9906L48.9511 46.8701L59.9198 52.9649C55.5706 60.2529 47.3833 65.1655 38 65.1655C28.6339 65.1655 20.4594 60.2726 16.1043 53.0059C13.9781 49.4585 12.7615 45.3457 12.7615 40.9601C12.7615 27.5924 24.0608 16.7551 38 16.7551ZM60.5224 36.775V39.5476H63.4131V42.32H60.5224V45.0932H57.6315V42.32H54.7405V39.5479H57.6315V36.7753L60.5224 36.775Z" fill="white"/>
</g>
<defs>
<clipPath id="clip0_13_21">
<rect width="76" height="82" fill="white"/>
</clipPath>
</defs>
</svg>
