<svg width="85" height="80" viewBox="0 0 85 80" fill="none" xmlns="http://www.w3.org/2000/svg">
<path d="M76.6328 19.1875L44.5586 1.8125C44.0273 1.5 43.2969 1.375 42.5 1.375C41.7031 1.375 40.9727 1.5625 40.4414 1.8125L8.56641 19.25C7.4375 19.875 6.64062 21.4375 6.64062 22.625V57.4375C6.64062 58.125 6.77344 58.9375 7.30469 59.625L78.2266 20.875C77.8281 20.125 77.2305 19.5625 76.6328 19.1875Z" fill="#659AD3"/>
<path d="M7.10547 59.5625C7.4375 60.0625 7.90234 60.5 8.36719 60.75L40.375 78.1875C40.9062 78.5 41.6367 78.625 42.4336 78.625C43.2305 78.625 43.9609 78.4375 44.4922 78.1875L76.3672 60.75C77.4961 60.125 78.293 58.5625 78.293 57.375V22.5625C78.293 22 78.2266 21.375 77.8945 20.8125L7.10547 59.5625Z" fill="#03599C"/>
<path d="M56.6445 47.5625C53.8555 52.1875 48.543 55.3125 42.5 55.3125C33.5352 55.3125 26.2305 48.4375 26.2305 40C26.2305 31.5625 33.5352 24.6875 42.5 24.6875C48.543 24.6875 53.8555 27.8125 56.6445 32.5L65.2773 27.8125C60.7617 20.375 52.2617 15.3125 42.5 15.3125C28.0234 15.3125 16.2695 26.375 16.2695 40C16.2695 53.625 28.0234 64.6875 42.5 64.6875C52.1953 64.6875 60.6953 59.6875 65.2109 52.3125L56.6445 47.5625Z" fill="white"/>
</svg>
