<svg width="73" height="89" viewBox="0 0 73 89" fill="none" xmlns="http://www.w3.org/2000/svg">
<g clip-path="url(#clip0_13_27)">
<path d="M72.8732 17.4465L66.2458 81.6349L36.4556 88.7752L6.74743 81.6448L0.126953 17.4465H72.8732Z" fill="#E44D26"/>
<path d="M36.5 83.3173L60.572 77.5476L66.2352 22.6955H36.5V83.3173Z" fill="#F16529"/>
<path d="M23.6166 38.4431H36.5V30.5694H13.6638L13.8817 32.6817L16.1202 54.3795H36.5V46.5058H24.449L23.6166 38.4431ZM25.6692 58.3165H16.5271L17.8029 70.6793L36.4581 75.1564L36.5 75.1466V66.9546L36.4601 66.9638L26.3176 64.596L25.6692 58.3165Z" fill="#EBEBEB"/>
<path d="M6.89502 0H11.5231V3.95323H15.7568V0H20.3852V11.9714H15.7571V7.96266H11.5234V11.9714H6.8953L6.89502 0ZM26.471 3.96999H22.3973V0H35.1762V3.96999H31.0999V11.9714H26.4719V3.96999H26.471ZM37.2043 0H42.03L44.9984 4.20642L47.9641 0H52.7918V11.9714H48.1825V6.0377L44.9984 10.2942H44.9186L41.7326 6.0377V11.9714H37.2043V0ZM55.095 0H59.7245V8.01444H66.2329V11.9714H55.0947L55.095 0Z" fill="black"/>
<path d="M36.4687 54.3795H47.683L46.6257 64.5911L36.4684 66.9613V75.1527L55.1384 70.6793L55.2753 69.349L57.4157 48.6201L57.6378 46.5058H36.4687V54.3795ZM36.4687 38.4238V38.4431H58.4665L58.649 36.6734L59.0642 32.6817L59.2817 30.5694H36.4687V38.4238Z" fill="white"/>
</g>
<defs>
<clipPath id="clip0_13_27">
<rect width="73" height="89" fill="white"/>
</clipPath>
</defs>
</svg>
