<svg width="81" height="75" viewBox="0 0 81 75" fill="none" xmlns="http://www.w3.org/2000/svg">
<g clip-path="url(#clip0_13_33)">
<path d="M0 0H81V75H0V0Z" fill="#F7DF1E"/>
<path d="M21.2979 62.6754L27.4963 59.202C28.6923 61.1651 29.7801 62.8263 32.3895 62.8263C34.8907 62.8263 36.468 61.9204 36.468 58.3966V34.4323H44.0798V58.4962C44.0798 65.7961 39.4584 69.1189 32.7158 69.1189C26.6265 69.1189 23.0919 66.1989 21.2976 62.6748M48.2143 61.9201L54.4121 58.5976C56.0438 61.0646 58.1643 62.8769 61.9156 62.8769C65.0699 62.8769 67.081 61.4168 67.081 59.4029C67.081 56.9865 65.0148 56.1305 61.535 54.7213L59.6324 53.9654C54.1406 51.8013 50.4978 49.0825 50.4978 43.3433C50.4978 38.0569 54.8474 34.0292 61.6442 34.0292C66.4833 34.0292 69.9631 35.5901 72.464 39.668L66.5371 43.1924C65.2319 41.0276 63.8188 40.1719 61.6438 40.1719C59.4144 40.1719 58.0007 41.4809 58.0007 43.1924C58.0007 45.3067 59.4144 46.1631 62.6766 47.4721L64.5794 48.2271C71.05 50.7949 74.6927 53.4126 74.6927 59.3024C74.6927 65.6464 69.31 69.1198 62.0786 69.1198C55.0104 69.1198 50.4431 65.9985 48.214 61.9204" fill="black"/>
</g>
<defs>
<clipPath id="clip0_13_33">
<rect width="81" height="75" fill="white"/>
</clipPath>
</defs>
</svg>
