<svg width="209" height="49" viewBox="0 0 209 49" fill="none" xmlns="http://www.w3.org/2000/svg">
<g clip-path="url(#clip0_13_43)">
<path d="M16.2012 5.01255C14.0785 2.77306 12.2502 0.498738 11.8771 0.0261607C11.8682 0.0178924 11.8575 0.0113112 11.8457 0.00681474C11.8339 0.00231829 11.8211 0 11.8083 0C11.7954 0 11.7827 0.00231829 11.7709 0.00681474C11.7591 0.0113112 11.7484 0.0178924 11.7395 0.0261607C11.366 0.498738 9.53807 2.77306 7.41541 5.01255C-10.8047 25.6746 10.2851 39.6182 10.2851 39.6182L10.4618 39.7234C10.619 41.8751 11.0121 44.9719 11.0121 44.9719H12.5845C12.5845 44.9719 12.9776 41.8925 13.1347 39.7234L13.3119 39.6007C13.3315 39.6182 34.4209 25.6746 16.2012 5.01255ZM11.7983 39.3035C11.7983 39.3035 10.8549 38.5859 10.5994 38.2189V38.1837L11.7395 15.6847C11.7395 15.6147 11.8575 15.6147 11.8575 15.6847L12.9972 38.1837V38.2189C12.7416 38.5859 11.7983 39.3035 11.7983 39.3035Z" fill="#01EC64"/>
<path d="M51.2662 34.7123L42.4776 15.6266L42.4584 15.574H35.621V16.8567H36.724C37.0591 16.8567 37.3742 16.9801 37.611 17.1907C37.8473 17.4015 37.9657 17.6828 37.9657 17.9819L37.7685 37.1899C37.7685 37.7877 37.2171 38.2795 36.5468 38.2973L35.4238 38.3147V39.58H42.0841V38.3147L41.3942 38.2973C40.7243 38.2795 40.1725 37.7877 40.1725 37.1903V19.0882L49.7489 39.5797C49.8869 39.8784 50.202 40.0718 50.5571 40.0718C50.9115 40.0718 51.2266 39.8784 51.3646 39.5797L60.7247 19.5452L60.8626 37.1899C60.8626 37.8048 60.3108 38.2969 59.6209 38.3144H58.9114V39.5797H66.7146V38.3144H65.6505C64.981 38.3144 64.4287 37.8048 64.4095 37.2073L64.3499 17.9986C64.3496 17.7068 64.4769 17.4264 64.7049 17.2166C64.9329 17.0067 65.2437 16.8839 65.5717 16.8742L66.7146 16.8564V15.5737H60.0544L51.2662 34.7123ZM112.543 37.9804C112.326 37.787 112.207 37.5231 112.207 37.2059V27.7703C112.207 25.9747 111.615 24.5661 110.429 23.5628C109.263 22.5592 107.644 22.0489 105.629 22.0489C102.803 22.0489 100.571 23.0699 99.01 25.0767C98.9904 25.112 98.9313 25.1297 98.8721 25.1297C98.8125 25.1297 98.7733 25.0942 98.7733 25.0415L98.0422 22.524H96.8172L93.676 24.1261V25.0063H94.4859C94.8615 25.0063 95.1774 25.0942 95.395 25.2706C95.6122 25.4466 95.7305 25.7105 95.7305 26.08V37.1885C95.7305 37.5053 95.6122 37.7696 95.395 37.9634C95.1774 38.1568 94.8811 38.2625 94.5255 38.2625H93.7352V39.5474H100.966V38.2625H100.176C99.8199 38.2625 99.5236 38.1568 99.3064 37.9634C99.0892 37.7696 98.9704 37.5053 98.9704 37.1885V29.8297C98.9704 28.8969 99.2076 27.9638 99.6423 27.048C100.097 26.1504 100.768 25.3933 101.657 24.8121C102.546 24.2314 103.613 23.9497 104.838 23.9497C106.221 23.9497 107.268 24.337 107.92 25.1116C108.572 25.8862 108.908 26.8898 108.908 28.0868V37.1707C108.908 37.4875 108.789 37.7514 108.572 37.9452C108.355 38.1391 108.058 38.2443 107.702 38.2443H106.912V39.5296H114.143V38.2447H113.353C113.057 38.2799 112.78 38.1743 112.543 37.9804ZM178.604 17.011C176.605 16.0647 174.371 15.5737 171.961 15.5737H162.556V16.8531H163.476C163.829 16.8531 164.143 16.9758 164.456 17.256C164.75 17.5191 164.907 17.8171 164.907 18.1325V36.9885C164.907 37.3042 164.75 37.6019 164.456 37.865C164.162 38.1278 163.829 38.2679 163.476 38.2679H162.555V39.5474H171.961C174.371 39.5474 176.605 39.0566 178.604 38.11C180.602 37.1638 182.228 35.7617 183.404 33.9744C184.58 32.1872 185.187 30.0316 185.187 27.5779C185.187 25.1247 184.58 22.9864 183.404 21.1818C182.209 19.3594 180.602 17.9747 178.604 17.011ZM181.406 27.5431C181.406 29.7862 180.956 31.6787 180.073 33.2035C179.192 34.7279 178.016 35.8669 176.566 36.6034C175.116 37.3391 173.509 37.7071 171.785 37.7071H169.884C169.532 37.7071 169.218 37.5845 168.905 37.3042C168.611 37.0411 168.454 36.7435 168.454 36.4281V18.6407C168.454 18.3249 168.591 18.0451 168.905 17.7645C169.199 17.5017 169.532 17.3616 169.884 17.3616H171.785C173.509 17.3616 175.116 17.7293 176.566 18.4654C178.016 19.2015 179.192 20.3404 180.073 21.8653C180.955 23.4071 181.406 25.3174 181.406 27.5431ZM207.42 28.8225C206.55 27.9285 204.871 27.175 202.897 26.7718C205.623 25.5628 207.024 23.863 207.024 21.6722C207.024 20.4809 206.67 19.4116 205.958 18.5006C205.248 17.5896 204.24 16.8531 202.957 16.345C201.671 15.8368 200.17 15.574 198.472 15.574H187.825V16.8531H188.674C189.03 16.8531 189.346 16.9758 189.662 17.256C189.959 17.5191 190.116 17.8171 190.116 18.1325V36.9885C190.116 37.3042 189.959 37.6019 189.662 37.865C189.366 38.1278 189.03 38.2679 188.674 38.2679H187.746V39.5474H199.302C201.06 39.5474 202.699 39.2846 204.181 38.7586C205.662 38.2331 206.848 37.4618 207.697 36.4455C208.566 35.4292 209 34.1846 209 32.7476C208.981 31.2057 208.467 29.8911 207.42 28.8225ZM194.166 37.3217C193.87 37.0589 193.712 36.7609 193.712 36.4455V27.9808H199.203C201.138 27.9808 202.619 28.4189 203.647 29.2947C204.674 30.1713 205.188 31.3103 205.188 32.7124C205.188 33.5534 204.949 34.3773 204.517 35.1308C204.062 35.9018 203.389 36.5152 202.482 36.9885C201.592 37.4614 200.486 37.7071 199.203 37.7071H195.152C194.797 37.7071 194.481 37.5841 194.165 37.3213M193.731 26.1758V18.6581C193.731 18.3427 193.869 18.0625 194.185 17.7819C194.481 17.5191 194.817 17.379 195.172 17.379H197.78C199.655 17.379 201.039 17.7997 201.909 18.6058C202.777 19.4294 203.212 20.4809 203.212 21.7774C203.212 23.1095 202.797 24.1784 201.987 24.9846C201.177 25.7729 199.953 26.1762 198.333 26.1762L193.731 26.1758ZM85.0164 23.1661C83.5069 22.4329 81.821 22.0482 79.998 22.0482C78.2231 22.0482 76.5597 22.3963 75.0979 23.108L74.9799 23.1661C73.4704 23.8997 72.2748 24.965 71.3927 26.3097C70.5109 27.6545 70.0599 29.2265 70.0599 30.9727C70.0599 32.7193 70.5105 34.2913 71.3927 35.6361C72.2748 36.9808 73.4704 38.0461 74.9799 38.7793C76.4895 39.5129 78.1754 39.8972 79.998 39.8972C81.7733 39.8972 83.4367 39.5495 84.898 38.8381L85.0164 38.7797C86.5256 38.0461 87.7216 36.9808 88.6037 35.6361C89.4854 34.2913 89.9365 32.7193 89.9365 30.9727C89.9365 29.2265 89.4854 27.6545 88.6037 26.3097C87.7216 24.965 86.526 23.8993 85.0164 23.1661ZM86.4668 30.9731C86.4668 33.1215 85.879 34.8677 84.7025 36.1253C83.5461 37.3826 81.9586 38.0287 79.998 38.0287C78.0729 38.0287 76.507 37.4055 75.3559 36.1921L75.2938 36.1253C74.1174 34.8677 73.5292 33.1215 73.5292 30.9731C73.5292 28.8643 74.0966 27.1424 75.2302 25.8902L75.2938 25.8212C76.4499 24.5639 78.0382 23.9174 79.998 23.9174C81.9586 23.9174 83.5461 24.5635 84.7025 25.8212C85.879 27.0789 86.4668 28.8251 86.4668 30.9731ZM154.486 23.1665C152.977 22.4333 151.291 22.0485 149.468 22.0485C147.693 22.0485 146.029 22.3966 144.568 23.1084L144.45 23.1665C142.94 23.9 141.745 24.9653 140.863 26.3101C139.981 27.6549 139.53 29.2269 139.53 30.9731C139.53 32.7197 139.981 34.2917 140.863 35.6364C141.744 36.9812 142.94 38.0465 144.45 38.7797C145.959 39.5132 147.645 39.8976 149.468 39.8976C151.243 39.8976 152.907 39.5499 154.368 38.8385L154.486 38.7801C155.996 38.0465 157.191 36.9812 158.073 35.6364C158.955 34.2917 159.406 32.7197 159.406 30.9731C159.406 29.2269 158.955 27.6549 158.073 26.3101C157.192 24.9653 155.976 23.8997 154.486 23.1665ZM155.937 30.9734C155.937 33.1218 155.349 34.868 154.173 36.1257C153.016 37.383 151.428 38.0291 149.468 38.0291C147.543 38.0291 145.977 37.4059 144.826 36.1925L144.763 36.1257C143.587 34.868 142.999 33.1218 142.999 30.9734C142.999 28.8472 143.566 27.142 144.7 25.8905L144.763 25.8215C145.92 24.5642 147.508 23.9178 149.468 23.9178C151.428 23.9178 153.016 24.5639 154.173 25.8215C155.329 27.0792 155.937 28.8254 155.937 30.9734ZM126.47 22.0493C124.891 22.0493 123.45 22.3473 122.147 22.944C120.844 23.5403 119.817 24.3476 119.087 25.3827C118.36 26.3872 117.976 27.5572 117.981 28.7514C117.981 29.8392 118.258 30.8391 118.83 31.7342C119.383 32.5937 120.133 33.3131 121.081 33.9095L118.258 37.3133C117.902 37.7344 117.863 38.2959 118.119 38.7521C118.396 39.2258 118.909 39.5063 119.501 39.5063H120.311C119.554 39.9604 118.942 40.4951 118.51 41.1252L118.455 41.2083C117.942 41.9625 117.685 42.7523 117.685 43.5592C117.685 45.0412 118.409 46.2694 119.837 47.1935L119.916 47.2436C121.377 48.1735 123.43 48.6472 126.016 48.6472C127.812 48.6472 129.53 48.3841 131.09 47.8752C132.624 47.3812 133.878 46.6549 134.818 45.7134L134.899 45.6299C135.867 44.647 136.361 43.4539 136.361 42.0856C136.361 40.6468 135.768 39.629 134.387 38.6468C133.202 37.8222 131.346 37.3837 129.036 37.3837H121.14C121.128 37.3828 121.117 37.3788 121.109 37.3721L121.1 37.3659L121.097 37.3587C121.093 37.3474 121.086 37.326 121.1 37.3133L123.154 34.8571C123.64 35.0586 124.15 35.2115 124.674 35.313C125.147 35.4009 125.68 35.4361 126.273 35.4361C127.931 35.4361 129.431 35.1377 130.734 34.5414C132.037 33.9447 133.084 33.1378 133.834 32.1023C134.584 31.0849 134.959 29.9444 134.959 28.734C134.959 27.4356 134.249 25.0669 132.314 23.8565C132.314 23.8456 132.321 23.8416 132.326 23.8398L132.333 23.8387L136.578 24.2597V22.5229H129.787C128.721 22.2246 127.615 22.0493 126.47 22.0493ZM128.839 33.0325C128.089 33.3832 127.28 33.5763 126.47 33.5763C125.148 33.5763 123.983 33.1552 122.996 32.3306C122.009 31.5059 121.515 30.2954 121.515 28.7514C121.515 27.2073 122.009 25.9965 122.996 25.1722C123.983 24.3476 125.147 23.9265 126.47 23.9265C127.265 23.9265 128.023 24.0877 128.745 24.4252L128.839 24.4702C129.589 24.8212 130.201 25.3653 130.695 26.0847C131.168 26.8041 131.425 27.6988 131.425 28.7514C131.425 29.8218 131.188 30.7165 130.695 31.4181C130.221 32.1375 129.589 32.6815 128.839 33.0325ZM123.489 39.4886H128.839C130.32 39.4886 131.267 39.7517 131.899 40.3132C132.531 40.8747 132.846 41.6289 132.846 42.5062C132.846 43.7871 132.274 44.8401 131.129 45.6292C129.984 46.419 128.444 46.8222 126.549 46.8222C124.891 46.8222 123.509 46.489 122.502 45.8575C121.495 45.2259 120.982 44.2604 120.982 43.0325C120.982 42.2605 121.219 41.5411 121.693 40.9096C122.166 40.278 122.739 39.8218 123.489 39.4886" fill="#001E2B"/>
</g>
<defs>
<clipPath id="clip0_13_43">
<rect width="209" height="49" fill="white"/>
</clipPath>
</defs>
</svg>
