<svg width="85" height="89" viewBox="0 0 85 89" fill="none" xmlns="http://www.w3.org/2000/svg">
<path d="M57.1014 52.8959C57.5211 49.2372 57.3956 48.7004 59.9981 49.2928L60.6588 49.354C62.6603 49.4492 65.2787 49.0168 66.816 48.2686C70.127 46.6603 72.09 43.9737 68.8255 44.6794C61.378 46.2877 60.866 43.6482 60.866 43.6482C68.7305 31.4309 72.0183 15.9227 69.1807 12.1263C61.4418 1.77166 48.045 6.66805 47.8205 6.79529L47.7488 6.80989C46.2772 6.48935 44.631 6.29884 42.7809 6.26755C39.4108 6.20984 36.8535 7.19301 34.9138 8.73313C34.9138 8.73313 11.0148 -1.57627 12.1265 21.6979C12.3629 26.6492 18.9046 59.1628 26.7066 49.3422C29.5581 45.7516 32.314 42.7151 32.314 42.7151C33.6826 43.667 35.3209 44.1523 37.0394 43.9778L37.1723 43.8596C37.1311 44.3053 37.149 44.7413 37.226 45.2572C35.2159 47.6094 35.8069 48.0225 31.788 48.8881C27.7227 49.7656 30.1113 51.3273 31.6698 51.7354C33.5611 52.2312 37.9339 52.9328 40.8897 48.6003L40.7721 49.0946C41.561 49.7552 41.5073 53.8415 41.6188 56.7611C41.7304 59.6808 41.9177 62.405 42.4861 64.0126C43.0545 65.6187 43.7252 69.7565 49.0065 68.5717C53.4199 67.5802 56.794 66.1548 57.1014 52.8959Z" fill="black"/>
<path d="M47.2865 71.4573C44.9504 71.4573 43.4297 70.5116 42.5053 69.598C41.1108 68.2206 40.5576 66.4455 40.2276 65.3851L40.0848 64.9422C39.4194 63.0614 39.1943 60.3538 39.0608 56.8675C39.0411 56.3225 39.0245 55.7774 39.011 55.2321C38.9997 54.8143 38.9858 54.29 38.9658 53.74C38.1242 54.1603 37.2309 54.4561 36.3116 54.6189C34.6647 54.9137 32.8943 54.8177 31.0482 54.3345C29.746 53.9938 28.3926 53.2874 27.6217 52.1957C25.3738 54.2573 23.2296 53.9771 22.0615 53.5697C20.0009 52.85 18.1568 50.8287 16.4229 47.3883C15.1884 44.9387 13.9938 41.7459 12.8722 37.9001C10.9198 31.2022 9.67936 24.1475 9.56912 21.8321C9.22248 14.5821 11.0858 9.39785 15.1074 6.42399C21.4525 1.73133 31.0648 4.49033 34.5691 5.74328C36.9232 4.2574 39.693 3.53358 42.8234 3.58642C44.5048 3.61493 46.1052 3.76999 47.592 4.04672C49.1426 3.53636 52.2066 2.8035 55.7135 2.8487C62.1748 2.92935 67.5292 5.56598 71.1968 10.4735C73.8139 13.9751 72.5203 21.3273 71.5155 25.3991C70.1031 31.125 67.6268 37.2166 64.5854 42.5191C65.4115 42.5253 66.6074 42.421 68.3088 42.0539C71.6649 41.328 72.6458 43.2123 72.9121 44.0557C73.9792 47.4398 69.3407 49.9964 67.8937 50.6994C66.0397 51.6012 63.0175 52.1498 60.5419 52.0309L60.4337 52.0233L59.7835 51.9635L59.7191 52.5309L59.6574 53.0864C59.4913 59.8059 58.5743 64.0612 56.6877 66.8738C54.7108 69.8212 51.9622 70.6479 49.5417 71.191C48.8011 71.363 48.0451 71.4523 47.2865 71.4573ZM42.3712 47.0003C43.8792 48.2637 44.0114 50.641 44.1289 55.084C44.1435 55.6382 44.1575 56.1632 44.1761 56.6534C44.2332 58.1372 44.3667 61.6123 44.886 63.0808C44.9597 63.288 45.0254 63.4994 45.0945 63.7219C45.6735 65.5798 45.9644 66.5108 48.4686 65.949C50.5717 65.4776 51.6521 65.0541 52.4981 63.7928C53.728 61.9586 54.4159 58.2714 54.5421 52.8298L57.1001 52.8952L54.5594 52.5761L54.6337 51.912C54.8774 49.7232 55.0528 48.1407 56.4506 47.0949C57.5715 46.2557 58.8499 46.337 59.8679 46.5289C58.7496 45.6452 58.4401 44.6064 58.3578 44.1809L58.1446 43.0809L58.7436 42.1492C62.1967 36.7841 65.0449 30.1905 66.5576 24.0585C68.1115 17.7576 67.6374 14.411 67.1639 13.7783C60.8912 5.3852 50.0119 8.84994 48.8763 9.24418L48.6837 9.35265L47.7208 9.54108L47.2274 9.434C45.8681 9.13849 44.358 8.97509 42.7384 8.94728C40.1944 8.90278 38.1424 9.53204 36.4597 10.8691L35.2922 11.796L33.9369 11.2112C31.0429 9.97217 22.5403 7.48087 18.0539 10.8079C15.5636 12.6547 14.4294 16.2738 14.6817 21.5644C14.7647 23.311 15.899 29.9228 17.7676 36.3363C20.3515 45.1988 22.6996 48.1421 23.6798 48.4848C23.8505 48.5453 24.2947 48.1838 24.7363 47.6289C27.609 44.0112 30.341 40.9956 30.4559 40.8684L31.9374 39.2365L33.7284 40.4825C34.4502 40.9852 35.2464 41.2696 36.0646 41.3231L40.3365 37.5086L39.7176 44.1211C39.7036 44.2699 39.697 44.4715 39.7528 44.847L39.9387 46.1006L39.1332 47.0448L39.0402 47.154L41.387 48.2888L42.3712 47.0003Z" fill="black"/>
<path d="M68.8274 44.6794C61.3793 46.2876 60.8673 43.6475 60.8673 43.6475C68.7311 31.4302 72.0182 15.9213 69.1813 12.1256C61.4417 1.77096 48.0449 6.66805 47.8211 6.79529L47.7487 6.8085C46.2772 6.48935 44.6309 6.29883 42.7802 6.26755C39.4101 6.20983 36.8534 7.19231 34.9137 8.73243C34.9137 8.73243 11.0141 -1.57628 12.1257 21.6979C12.3622 26.6492 18.9038 59.1627 26.7059 49.3422C29.5574 45.7516 32.3126 42.7151 32.3126 42.7151C33.6812 43.667 35.3195 44.1523 37.0374 43.9778L37.1709 43.8596C37.1297 44.3053 37.1483 44.7413 37.224 45.2572C35.2145 47.6094 35.8042 48.0224 31.7866 48.8881C27.7206 49.7656 30.1092 51.3273 31.6691 51.7354C33.5597 52.2312 37.9332 52.9328 40.8883 48.6003L40.7701 49.0946C41.5577 49.7552 42.1108 53.391 42.0179 56.6867C41.9249 59.9825 41.8631 62.2451 42.484 64.0126C43.1049 65.7793 43.7232 69.7565 49.0051 68.5717C53.4185 67.5809 55.7055 65.0145 56.0243 60.7342C56.25 57.6908 56.7607 58.1406 56.7932 55.4192L57.2036 54.1308C57.6758 50.0048 57.2787 48.674 59.998 49.2935L60.6588 49.354C62.6602 49.4499 65.2793 49.0167 66.8166 48.2686C70.1276 46.6596 72.0913 43.9736 68.8274 44.6794Z" fill="#336791"/>
<path d="M47.5535 69.8052C43.1501 69.8059 41.7556 66.1548 41.1845 64.662C40.3497 62.4745 40.1691 53.9834 40.3551 47.0198C40.3675 46.7873 40.466 46.5691 40.6297 46.4115C40.7934 46.2538 41.0093 46.1693 41.2316 46.1758C41.4539 46.1824 41.665 46.2794 41.82 46.4464C41.975 46.6133 42.0617 46.837 42.0617 47.0699C41.8472 55.1014 42.152 62.3793 42.7696 63.9979C43.7345 66.5233 45.1974 68.7323 49.3352 67.8048C53.2631 66.9224 54.734 65.3629 55.3888 61.3871C55.8921 58.3353 56.8856 49.6543 57.0077 47.9411C57.0246 47.7048 57.1304 47.4851 57.3018 47.3305C57.4733 47.1758 57.6965 47.0988 57.9222 47.1165C58.1479 47.1341 58.3576 47.2448 58.5053 47.4244C58.653 47.6039 58.7266 47.8376 58.7097 48.0739C58.5822 49.8567 57.5928 58.5217 57.0702 61.6909C56.2965 66.3877 54.297 68.5182 49.6924 69.5521C48.9899 69.7147 48.273 69.7995 47.5535 69.8052ZM23.6798 51.9739C23.295 51.9735 22.9128 51.9075 22.5482 51.7785C19.6881 50.7794 16.9641 45.9024 14.4513 37.282C12.5388 30.7196 11.3269 23.8708 11.2206 21.6451C10.9052 15.0466 12.5288 10.3775 16.0451 7.76873C23.0018 2.60742 34.7052 7.52259 35.1999 7.73396C35.4075 7.82494 35.5724 7.99811 35.6587 8.21577C35.7449 8.43343 35.7456 8.67796 35.6604 8.8961C35.5753 9.11425 35.4113 9.28835 35.2042 9.3805C34.997 9.47265 34.7635 9.47539 34.5545 9.38811V9.3888C34.4416 9.34013 23.2189 4.63287 17.0285 9.22958C14.0217 11.4622 12.6411 15.6091 12.9246 21.5568C13.0143 23.4313 14.1465 30.1168 16.0836 36.7612C18.3268 44.4562 20.8801 49.313 23.0881 50.0834C23.4341 50.205 24.4886 50.5729 25.9974 48.6747C28.8342 45.1007 31.4407 42.2486 31.4666 42.2201C31.6253 42.0591 31.8374 41.9687 32.0584 41.9681C32.2794 41.9674 32.492 42.0565 32.6516 42.2165C32.8112 42.3766 32.9053 42.5952 32.9141 42.8264C32.923 43.0576 32.8459 43.2834 32.6991 43.4563C32.6732 43.4841 30.1066 46.2939 27.3095 49.8171C25.9847 51.4844 24.7144 51.9739 23.6798 51.9739ZM60.8142 44.4444C60.6592 44.4446 60.5071 44.4006 60.3742 44.3171C60.2413 44.2337 60.1327 44.1138 60.06 43.9706C59.9873 43.8273 59.9532 43.666 59.9615 43.5039C59.9697 43.3419 60.02 43.1853 60.1069 43.051C68.0564 30.6994 70.8468 15.7759 68.4568 12.5789C65.4486 8.55443 61.2006 6.4518 55.8317 6.33152C51.8559 6.24113 48.6957 7.30426 48.1797 7.48991L48.0502 7.54484C47.5309 7.71588 47.1325 7.41759 46.9824 7.06924C46.8969 6.86965 46.884 6.64423 46.9461 6.43537C47.0082 6.22651 47.1411 6.04863 47.3197 5.93519L47.5495 5.83645L47.5382 5.83993L47.5502 5.83576C48.4274 5.49992 51.6355 4.49172 55.6099 4.5397C61.5513 4.60505 66.4587 7.00458 69.8016 11.4768C71.3834 13.5934 71.3867 18.4696 69.8115 24.8546C68.2058 31.3642 65.1843 38.3611 61.5227 44.0501C61.4447 44.1718 61.3392 44.2714 61.2156 44.3401C61.092 44.4089 60.9541 44.4447 60.8142 44.4444ZM61.2199 50.1619C59.8626 50.1619 58.646 49.9624 57.9175 49.5049C57.1684 49.0355 57.0257 48.3965 57.0071 48.0579C56.8026 44.3004 58.7828 43.6462 59.7928 43.3479C59.652 43.1254 59.4515 42.8632 59.245 42.5928C58.656 41.8223 57.8498 40.7669 57.2282 39.1885C57.1313 38.9424 56.8258 38.3687 56.4725 37.7054C54.558 34.1113 50.575 26.6319 53.1336 22.8014C54.3183 21.029 56.6757 20.3316 60.1501 20.721C59.1281 17.4607 54.2605 7.26115 42.7125 7.06298C39.2388 7.0018 36.3899 8.12055 34.2497 10.3831C29.4571 15.4512 29.6311 24.621 29.6331 24.7121C29.636 24.8294 29.6168 24.9461 29.5767 25.0557C29.5365 25.1652 29.4761 25.2654 29.399 25.3505C29.3219 25.4356 29.2295 25.5039 29.1271 25.5516C29.0247 25.5993 28.9144 25.6255 28.8024 25.6285C28.6903 25.6316 28.5788 25.6115 28.4742 25.5695C28.3696 25.5274 28.274 25.4642 28.1927 25.3834C28.1114 25.3026 28.0461 25.2059 28.0006 25.0987C27.955 24.9915 27.93 24.876 27.9271 24.7587C27.9165 24.3519 27.7372 14.7295 33.0371 9.12528C35.5174 6.50256 38.7819 5.20789 42.7404 5.27534C50.1301 5.40258 54.8854 9.33527 57.5742 12.613C60.504 16.1841 61.9411 20.1237 62.0593 21.4379C62.1476 22.4155 61.4776 22.6116 61.3421 22.6401L61.0346 22.6477C57.6247 22.0762 55.4372 22.4725 54.5328 23.8263C52.5864 26.7382 56.3543 33.813 57.9633 36.8349C58.3744 37.6053 58.6706 38.1622 58.806 38.5064C59.3346 39.8484 60.0239 40.7502 60.5777 41.4747C61.0645 42.1123 61.4868 42.6644 61.6383 43.3138C61.708 43.4424 62.7027 44.9818 68.6029 43.7066C70.0818 43.3875 70.9683 43.6608 71.2393 44.5188C71.7725 46.2077 68.7809 48.1768 67.1247 48.9827C65.6386 49.7051 63.2699 50.1619 61.2199 50.1619ZM58.7091 47.9105C58.8957 48.1087 59.832 48.4494 61.7717 48.3625C63.4956 48.2846 65.3145 47.8917 66.4062 47.3619C67.8021 46.6833 68.7331 45.9247 69.2159 45.4067L68.9476 45.4581C65.1751 46.2737 62.5068 46.1653 61.0174 45.1348C60.9171 45.0657 60.8207 44.9907 60.7285 44.9102C60.5671 44.977 60.4177 45.0208 60.3115 45.0521C59.4661 45.3003 58.5922 45.5569 58.7091 47.9105ZM34.34 52.9022C33.403 52.9022 32.4168 52.7693 31.4095 52.5044C30.3662 52.2312 28.6065 51.4086 28.6337 50.0576C28.6636 48.5411 30.7693 48.0864 31.5629 47.9154C34.4263 47.2979 34.6129 47.0504 35.5081 45.8607C35.769 45.5138 36.0938 45.082 36.536 44.564C37.1935 43.7943 37.912 43.4035 38.6717 43.4035C39.2002 43.4035 39.6345 43.5919 39.9208 43.7157C40.8345 44.112 41.5968 45.0702 41.9103 46.2174C42.1932 47.252 42.0584 48.2477 41.5304 49.0209C39.7986 51.5609 37.3123 52.9022 34.34 52.9022ZM30.4771 50.1348C30.7348 50.3427 31.2501 50.6208 31.8232 50.7717C32.6958 50.9998 33.5418 51.1159 34.34 51.1159C36.7718 51.1159 38.7235 50.0611 40.1419 47.9828C40.4374 47.5489 40.3491 46.999 40.2701 46.709C40.104 46.1027 39.6923 45.5513 39.268 45.3664C39.0376 45.2662 38.847 45.1897 38.6717 45.1897C38.5774 45.1897 38.2911 45.1897 37.8084 45.755C37.4006 46.232 37.1078 46.6214 36.8481 46.9656C35.7338 48.4473 35.2232 48.95 31.9068 49.6655C31.098 49.8407 30.683 50.0173 30.4771 50.1348ZM37.0394 46.013C36.8357 46.0127 36.6388 45.9361 36.4843 45.7971C36.3297 45.6581 36.2277 45.4659 36.1967 45.2551C36.1749 45.1068 36.1607 44.9573 36.1542 44.8073C33.9801 44.7642 31.8829 43.788 30.2912 42.0483C28.2784 39.8491 27.362 36.8022 27.7777 33.6893C28.2293 30.3087 28.0606 27.3244 27.9696 25.721C27.9469 25.3912 27.9329 25.0608 27.9278 24.7302C27.9291 24.4479 27.9344 23.6976 30.3284 22.4273C31.1797 21.9754 32.887 21.1869 34.7517 20.9845C37.8422 20.6508 39.8789 22.0915 40.4885 25.0424C42.1341 33.0107 40.6187 36.5352 39.5124 39.1085C39.3058 39.5869 39.1113 40.0403 38.9559 40.4783L38.8184 40.8656C38.234 42.5065 37.7287 43.9243 37.8841 44.9839C37.9182 45.2182 37.8622 45.457 37.7284 45.6481C37.5946 45.8392 37.3938 45.9669 37.1702 46.0033L37.0394 46.013ZM29.6397 24.977L29.6736 25.6153C29.7679 27.2806 29.9432 30.3803 29.4677 33.9375C29.1251 36.5046 29.8742 39.0112 31.523 40.8128C32.8259 42.2368 34.5419 43.0225 36.3049 43.0225H36.3415C36.5394 42.1512 36.8667 41.232 37.2194 40.2412L37.3561 39.8567C37.5321 39.3616 37.738 38.8826 37.9558 38.3757C39.021 35.8976 40.3464 32.8132 38.8197 25.4199C38.5169 23.9563 37.7838 23.1087 36.5785 22.8292C34.1029 22.2563 30.414 24.2059 29.6397 24.977ZM34.7902 24.5981C34.7477 24.9137 35.3434 25.7572 36.119 25.8698C36.894 25.9831 37.5574 25.324 37.5992 25.0083C37.641 24.6919 37.046 24.3443 36.2697 24.2309C35.4948 24.1176 34.8314 24.2817 34.7902 24.5981ZM36.2976 26.1813L36.0798 26.1653C35.5984 26.0951 35.1116 25.7773 34.7789 25.3149C34.662 25.1529 34.4708 24.8373 34.5086 24.5564C34.5631 24.144 35.0426 23.8979 35.7923 23.8979C35.9603 23.8979 36.1343 23.9111 36.3102 23.9361C36.7193 23.9959 37.0998 24.1197 37.3807 24.2838C37.8675 24.5689 37.9033 24.8859 37.8814 25.0507C37.821 25.5048 37.129 26.1813 36.2976 26.1813ZM35.0731 24.6509C35.0977 24.8456 35.5579 25.4888 36.1582 25.5757L36.297 25.5861C36.8508 25.5861 37.2652 25.1293 37.3136 24.9798C37.2625 24.8783 36.9066 24.6245 36.2306 24.5271C36.0852 24.5053 35.9385 24.4941 35.7916 24.4938C35.3586 24.4931 35.1269 24.5953 35.0731 24.6509ZM58.3956 23.9535C58.4375 24.2699 57.8431 25.1133 57.0668 25.2259C56.2912 25.3386 55.6278 24.6801 55.5853 24.3637C55.5442 24.0481 56.1392 23.6997 56.9148 23.5871C57.6904 23.4731 58.3531 23.6385 58.3956 23.9535ZM56.8882 25.3872C56.1411 25.3872 55.4977 24.7789 55.4445 24.3846C55.3834 23.9111 56.1279 23.5509 56.8955 23.4397C57.0642 23.4146 57.2315 23.4021 57.3929 23.4021C58.055 23.4021 58.4933 23.6059 58.5371 23.9334C58.5656 24.1461 58.4102 24.4736 58.142 24.7684C57.9653 24.9631 57.5935 25.3003 57.0874 25.3733L56.8882 25.3872ZM57.3922 23.6997C57.2442 23.6997 57.0901 23.7115 56.934 23.7338C56.1624 23.8457 55.7035 24.1705 55.7254 24.3443C55.7513 24.5348 56.2434 25.0897 56.8876 25.0897L57.0463 25.0778C57.4673 25.016 57.7834 24.7288 57.9341 24.5626C58.1705 24.3019 58.2648 24.0571 58.2535 23.973C58.2396 23.8638 57.9554 23.6997 57.3922 23.6997ZM59.5133 42.0928C59.3587 42.0927 59.2071 42.0487 59.0745 41.9654C58.942 41.8821 58.8336 41.7627 58.7608 41.6199C58.6881 41.4771 58.6537 41.3163 58.6615 41.1547C58.6692 40.9931 58.7187 40.8367 58.8047 40.7022C60.6216 37.8605 60.2889 34.9617 59.9675 32.1596C59.83 30.965 59.6886 29.7309 59.7258 28.5454C59.7629 27.3265 59.9104 26.3211 60.0538 25.3476C60.2231 24.1955 60.3832 23.1059 60.3168 21.814C60.3119 21.5819 60.3935 21.3568 60.5443 21.1865C60.6951 21.0162 60.9032 20.914 61.1247 20.9015C61.3462 20.889 61.5636 20.9673 61.731 21.1197C61.8983 21.2721 62.0025 21.4867 62.0214 21.7181C62.0971 23.1949 61.9158 24.427 61.7405 25.6195C61.605 26.5394 61.4649 27.4906 61.4311 28.6024C61.3985 29.6516 61.5267 30.7662 61.6622 31.9454C62.0048 34.9262 62.392 38.3048 60.2231 41.6958C60.0585 41.9531 59.7882 42.0928 59.5133 42.0928Z" fill="white"/>
<path d="M1.88257 71.7451C2.83602 71.5832 3.80069 71.5046 4.76659 71.5101C6.25077 71.5101 7.33917 71.8717 8.02979 72.5225C8.66862 73.101 9.04847 73.9868 9.04847 75.0722C9.04847 76.175 8.73702 77.0427 8.14999 77.6754C7.35577 78.5613 6.06085 79.0132 4.59327 79.0132C4.14437 79.0132 3.72999 78.9952 3.38534 78.9048V83.7866H1.88257V71.7451ZM3.38534 77.6205C3.71339 77.7109 4.12776 77.7471 4.62847 77.7471C6.44069 77.7471 7.54636 76.8251 7.54636 75.1438C7.54636 73.5349 6.45862 72.7575 4.80112 72.7575C4.14503 72.7575 3.64433 72.8117 3.38534 72.8841V77.6205ZM18.1475 79.3379C18.1475 82.5739 16.0059 83.9847 13.9858 83.9847C11.724 83.9847 9.98015 82.2492 9.98015 79.4826C9.98015 76.5539 11.8103 74.8365 14.1239 74.8365C16.5245 74.8358 18.1475 76.6624 18.1475 79.3379ZM11.5175 79.4283C11.5175 81.3446 12.5707 82.7909 14.0555 82.7909C15.5058 82.7909 16.5929 81.3627 16.5929 79.3922C16.5929 77.9098 15.8857 76.0296 14.0894 76.0296C12.2931 76.0296 11.5175 77.7651 11.5175 79.4283ZM19.8561 82.1581C20.305 82.4655 21.0992 82.7909 21.8589 82.7909C22.9639 82.7909 23.4819 82.2124 23.4819 81.4892C23.4819 80.73 23.0509 80.3142 21.928 79.8803C20.4258 79.3199 19.718 78.4521 19.718 77.4036C19.718 75.9935 20.8057 74.8365 22.6013 74.8365C23.4473 74.8365 24.1904 75.0896 24.6566 75.3788L24.2767 76.5358C23.7629 76.2043 23.171 76.029 22.5675 76.0296C21.6696 76.0296 21.1689 76.572 21.1689 77.2228C21.1689 77.9459 21.6703 78.2713 22.758 78.7052C24.2083 79.2837 24.9508 80.043 24.9508 81.3446C24.9508 82.8813 23.8112 83.9659 21.8257 83.9659C20.9106 83.9659 20.0646 83.7309 19.4776 83.3694L19.8561 82.1581ZM28.7313 72.5218V75.0347H30.9061V76.2459H28.7313V80.9643C28.7313 82.049 29.0241 82.6636 29.8708 82.6636C30.1676 82.6681 30.4637 82.6316 30.7514 82.5552L30.8204 83.7483C30.5276 83.8749 30.0607 83.9652 29.4744 83.9652C28.7665 83.9652 28.196 83.7302 27.8335 83.2964C27.4025 82.8263 27.2464 82.049 27.2464 81.0185V76.2459H25.9515V75.0347H27.2464V72.9376L28.7313 72.5218ZM39.7122 75.0353C39.677 75.6681 39.6432 76.3731 39.6432 77.4397V82.5197C39.6432 84.5264 39.2633 85.7557 38.4518 86.5157C37.6403 87.3111 36.4663 87.5642 35.4131 87.5642C34.4117 87.5642 33.3067 87.3111 32.6326 86.8411L33.0125 85.6298C33.565 85.9914 34.4283 86.3168 35.4642 86.3168C37.0181 86.3168 38.1576 85.4671 38.1576 83.2616V82.2854H38.1231C37.6569 83.0989 36.7591 83.7497 35.4642 83.7497C33.3923 83.7497 31.9075 81.9057 31.9075 79.4826C31.9075 76.5178 33.7549 74.8365 35.6714 74.8365C37.1224 74.8365 37.9166 75.6319 38.2792 76.3551H38.3137L38.3828 75.0353H39.7122ZM38.141 78.4883C38.141 78.2171 38.1238 77.9821 38.0547 77.7651C37.7785 76.8432 37.036 76.0839 35.931 76.0839C34.4801 76.0839 33.4448 77.3674 33.4448 79.3922C33.4448 81.1096 34.2735 82.5378 35.9138 82.5378C36.8461 82.5378 37.6921 81.9231 38.0202 80.9107C38.1065 80.6396 38.1417 80.3322 38.1417 80.0611L38.141 78.4883ZM42.0597 77.7651C42.0597 76.7347 42.0424 75.8489 41.9906 75.0353H43.3207L43.3719 76.7528H43.4409C43.8208 75.5777 44.7359 74.8365 45.7545 74.8365C45.9272 74.8365 46.0474 74.8546 46.1855 74.8907V76.3912C46.0156 76.3525 45.842 76.3343 45.6682 76.337C44.5977 76.337 43.8374 77.1866 43.6309 78.3798C43.5882 78.6244 43.5651 78.8724 43.5618 79.121V83.7852H42.0597V77.7651ZM48.3796 79.6995C48.4141 81.8508 49.7256 82.7366 51.245 82.7366C52.3334 82.7366 52.9888 82.5378 53.5586 82.2847L53.8176 83.4236C53.2823 83.6767 52.3673 83.9659 51.0378 83.9659C48.4652 83.9659 46.9286 82.1943 46.9286 79.5549C46.9286 76.9155 48.4134 74.8358 50.8479 74.8358C53.5758 74.8358 54.301 77.3487 54.301 78.9576C54.301 79.283 54.2665 79.5361 54.2492 79.6988L48.3796 79.6995ZM52.8341 78.5606C52.8507 77.5482 52.4363 75.9754 50.7277 75.9754C49.191 75.9754 48.5177 77.4578 48.3962 78.5606H52.8341Z" fill="black"/>
<path d="M56.0276 81.8689C56.8416 82.3808 57.7715 82.6554 58.721 82.6643C60.2577 82.6643 61.1555 81.8146 61.1555 80.5853C61.1555 79.4464 60.5339 78.7956 58.9628 78.1629C57.0635 77.4578 55.8895 76.4274 55.8895 74.7099C55.8895 72.8117 57.3916 71.4016 59.6534 71.4016C60.8447 71.4016 61.708 71.6909 62.226 71.9982L61.8116 73.2818C61.1324 72.8994 60.3727 72.7006 59.6016 72.7033C58.0132 72.7033 57.4089 73.6976 57.4089 74.5292C57.4089 75.6681 58.1161 76.2285 59.7224 76.8793C61.6907 77.6754 62.6921 78.669 62.6921 80.4588C62.6921 82.3389 61.3627 83.9659 58.6175 83.9659C57.4952 83.9659 56.2693 83.6225 55.6471 83.1886L56.0276 81.8689ZM74.3464 85.5749C72.8455 85.1625 71.3596 84.6921 69.8919 84.1648C69.6502 84.0744 69.4085 83.984 69.184 83.984C66.4215 83.8755 64.0561 81.7423 64.0561 77.8194C64.0561 73.9145 66.3352 71.4016 69.4775 71.4016C72.6371 71.4016 74.6924 73.9687 74.6924 77.5663C74.6924 80.6938 73.3112 82.7005 71.3774 83.4055V83.4778C72.5342 83.7852 73.7946 84.0744 74.7787 84.2552L74.3464 85.5749ZM73.1033 77.6386C73.1033 75.198 71.8954 72.6845 69.4257 72.6845C66.8877 72.6845 65.6446 75.1431 65.6618 77.7832C65.6446 80.3684 67.0085 82.7005 69.3567 82.7005C71.7573 82.7005 73.1033 80.4226 73.1033 77.6386ZM76.6421 71.6005H78.1449V82.4655H83.1174V83.7852H76.6421V71.6005Z" fill="#336791"/>
</svg>
