<svg width="128" height="128" viewBox="0 0 128 128" fill="none" xmlns="http://www.w3.org/2000/svg">
<path fill-rule="evenodd" clip-rule="evenodd" d="M0.31604 55.504V45.949C0.53904 45.824 0.48004 45.594 0.52304 45.402C3.53104 32.316 11.734 24.45 24.668 21.31C25.801 21.036 26.988 21.063 28.09 20.657H34.46C34.605 20.931 34.875 20.821 35.09 20.845C41.512 21.532 47.293 23.802 52.406 27.759C56.77 31.129 60.246 35.306 63.344 39.817C63.727 40.376 63.91 40.392 64.297 39.821C66.07 37.211 68.004 34.724 70.157 32.411C75.507 26.673 81.863 22.716 89.668 21.267C90.84 21.047 92.051 21.06 93.188 20.657H99.378C99.508 20.887 99.738 20.814 99.934 20.837C101.777 21.044 103.598 21.384 105.387 21.899C118.836 25.763 128.32 38.083 127.523 52.032C126.855 63.677 120.961 72.064 110.743 77.45C105.586 80.169 99.993 80.939 94.219 80.825C86.594 80.677 79.965 78.055 74.25 73.052C70.285 69.583 67.168 65.412 64.305 61.036C63.879 60.384 63.715 60.466 63.332 61.056C61.52 63.845 59.574 66.548 57.372 69.056C53.504 73.462 49.035 77.056 43.442 79.016C36.527 81.438 29.477 81.532 22.488 79.556C12.414 76.707 5.46804 70.3 1.72304 60.48C1.10504 58.863 0.84804 57.145 0.31604 55.504ZM32.106 70.188C37.84 70.426 42.726 68.5 46.871 64.645C51.195 60.621 54.254 55.641 57.359 50.699C57.547 50.402 57.489 50.168 57.309 49.891C54.664 45.77 51.953 41.688 48.375 38.289C41.492 31.746 33.383 29.547 24.335 32.437C16.778 34.855 12 40.234 10.884 48.22C9.84104 55.665 12.739 61.677 18.696 66.161C22.661 69.149 27.228 70.324 32.106 70.188ZM95.453 70.188C97.699 70.246 99.91 70.098 102.043 69.457C109.863 67.125 115.148 62.164 116.621 54.027C118.09 45.922 114.953 39.434 108.231 34.801C100.738 29.633 89.816 30.141 82.176 35.824C77.102 39.598 73.652 44.734 70.301 49.957C70.105 50.257 70.156 50.488 70.328 50.762C73.016 55.062 75.707 59.359 79.191 63.086C83.598 67.801 88.895 70.48 95.453 70.188ZM127.68 99.195C127.383 100.137 127.145 101.098 126.785 102.015C124.551 107.695 116.563 109.219 112.73 104.699C111.426 103.16 110.852 101.313 110.633 99.352C110.328 96.609 110.336 93.887 111.367 91.254C112.824 87.559 115.977 85.641 120.121 85.954C123.898 86.238 126.411 88.492 127.309 92.387C127.426 92.887 127.367 93.434 127.679 93.887L127.68 99.195ZM115.062 96.585C115.066 98.094 115.148 99.594 115.684 101.023C116.09 102.129 116.77 102.965 117.977 103.277C120.133 103.836 121.902 102.949 122.559 100.805C123.402 98.035 123.363 95.215 122.566 92.441C122.051 90.633 120.961 89.84 119.25 89.809C117.422 89.773 116.29 90.555 115.633 92.316C115.121 93.696 115.07 95.141 115.063 96.586L115.062 96.585ZM97.309 93.445V105.723C97.309 106.933 97.309 106.933 96.055 106.933C95.437 106.933 94.816 106.891 94.199 106.945C93.508 107.008 93.293 106.765 93.301 106.063C93.332 102.437 93.316 98.813 93.316 95.187C93.316 92.477 93.336 89.766 93.305 87.055C93.297 86.437 93.473 86.238 94.094 86.262C95.301 86.309 96.512 86.312 97.719 86.258C98.32 86.234 98.602 86.449 98.844 86.977C100.73 91.067 102.644 95.141 104.554 99.219C104.602 99.316 104.668 99.41 104.864 99.734V98.68C104.864 94.82 104.879 90.96 104.848 87.102C104.844 86.453 104.992 86.211 105.672 86.262C106.523 86.324 107.379 86.297 108.234 86.27C108.714 86.25 108.906 86.387 108.906 86.906C108.892 93.3606 108.892 99.8153 108.906 106.27C108.906 106.758 108.762 106.95 108.254 106.941C106.927 106.913 105.601 106.914 104.274 106.945C103.73 106.961 103.59 106.629 103.41 106.242C101.538 102.18 99.658 98.121 97.77 94.066C97.676 93.867 97.664 93.601 97.309 93.445ZM31.813 97.145C33.328 98.363 33.93 100.051 34.727 101.617C35.497 103.137 36.227 104.68 37 106.199C37.262 106.719 37.313 106.973 36.574 106.945C35.3387 106.906 34.1024 106.906 32.867 106.945C32.367 106.961 32.145 106.754 31.953 106.32C31.09 104.355 30.188 102.406 29.305 100.45C28.82 99.375 28.051 98.719 26.844 98.55C26.129 98.453 25.941 98.68 25.954 99.387C25.996 101.625 25.945 103.863 25.984 106.102C25.996 106.758 25.824 106.988 25.152 106.949C24.211 106.891 23.266 106.914 22.324 106.941C21.824 106.953 21.578 106.84 21.578 106.266C21.598 99.812 21.59 93.363 21.594 86.91C21.594 86.629 21.52 86.266 21.984 86.281C25.129 86.383 28.297 85.949 31.41 86.648C35.687 87.609 36.227 91.223 35.457 93.895C34.953 95.648 33.598 96.605 31.813 97.145ZM25.973 92.434V94.641C25.973 94.883 25.965 95.133 26.313 95.133C27.516 95.145 28.734 95.23 29.852 94.637C30.863 94.097 31.282 93.211 31.132 91.973C31.012 90.961 30.453 90.332 29.328 90.078C28.6958 89.9355 28.0501 89.8607 27.402 89.855C25.632 89.835 26.016 89.691 25.972 91.199C25.961 91.609 25.973 92.023 25.973 92.434ZM38.988 96.582C38.988 93.457 39.008 90.336 38.973 87.211C38.965 86.508 39.109 86.227 39.883 86.261C42.383 86.363 44.895 86.105 47.387 86.411C52.121 86.992 54.562 89.465 55.094 94.261C55.355 96.59 55.27 98.914 54.434 101.152C53.117 104.664 50.367 106.282 46.832 106.77C44.434 107.098 42.008 106.887 39.59 106.941C38.941 106.957 38.988 106.555 38.988 106.129V96.582ZM43.336 96.566V101.332C43.336 103.372 43.336 103.372 45.414 103.285C47.992 103.175 49.637 101.852 50.246 99.332C50.734 97.324 50.684 95.301 50.184 93.305C49.684 91.32 48.371 90.211 46.32 89.98C45.594 89.898 44.852 89.926 44.121 89.86C43.5 89.8 43.312 90.04 43.324 90.656C43.359 92.625 43.336 94.598 43.336 96.566ZM17.496 106.941C15.129 106.941 15.129 106.941 14.492 104.703C13.984 102.922 13.984 102.922 12.129 102.922C10.652 102.922 9.17904 102.949 7.70704 102.91C7.16004 102.895 6.93004 103.078 6.80104 103.602C6.57804 104.516 6.23804 105.402 6.01604 106.316C5.89104 106.824 5.63304 106.965 5.14504 106.949C4.17369 106.914 3.20139 106.914 2.23004 106.949C1.57004 106.977 1.50804 106.766 1.68804 106.179C3.16004 101.429 4.60504 96.672 6.05804 91.914C6.55804 90.285 7.08204 88.66 7.55104 87.02C7.69904 86.492 7.90204 86.246 8.50004 86.266C10.004 86.312 11.508 86.296 13.008 86.273C13.468 86.266 13.672 86.414 13.808 86.867C15.7717 93.3123 17.7484 99.7536 19.738 106.191C19.914 106.761 19.828 107.004 19.176 106.949C18.621 106.902 18.059 106.941 17.496 106.941ZM10.629 91.281L10.445 91.293C9.66804 93.965 8.88704 96.633 8.10904 99.305C8.24604 99.344 8.30104 99.375 8.35904 99.375C9.30104 99.383 10.242 99.391 11.184 99.391C12.988 99.395 12.992 99.391 12.496 97.691C11.875 95.555 11.25 93.414 10.629 91.281ZM57.074 93.965C57.074 91.637 57.086 89.309 57.063 86.977C57.059 86.461 57.183 86.238 57.746 86.266C58.719 86.309 59.696 86.316 60.664 86.262C61.316 86.227 61.441 86.492 61.437 87.078C61.418 91 61.426 94.922 61.434 98.844C61.434 99.52 61.454 100.199 61.524 100.871C61.711 102.719 62.804 103.652 64.812 103.711C66.824 103.773 67.961 102.902 68.234 101.039C68.3298 100.369 68.377 99.6928 68.375 99.016C68.391 95.094 68.398 91.172 68.363 87.254C68.359 86.516 68.488 86.184 69.316 86.258C70.223 86.34 71.145 86.297 72.055 86.27C72.535 86.254 72.738 86.383 72.735 86.902C72.703 91.382 72.781 95.867 72.652 100.344C72.543 104.234 70.008 106.754 66.109 107.188C64.445 107.375 62.809 107.281 61.219 106.754C58.668 105.902 57.211 103.852 57.113 100.859C57.043 98.563 57.102 96.262 57.102 93.965H57.074ZM82.969 86.277C85.004 86.277 87.035 86.297 89.07 86.262C89.645 86.254 89.855 86.422 89.816 87.008C89.7731 87.713 89.7731 88.42 89.816 89.125C89.852 89.688 89.625 89.832 89.102 89.816C88.039 89.781 86.98 89.824 85.918 89.796C85.422 89.781 85.184 89.879 85.184 90.461C85.207 94.527 85.204 98.594 85.188 102.661C85.184 103.203 85.355 103.387 85.895 103.367C86.953 103.34 88.015 103.391 89.075 103.347C89.675 103.328 89.844 103.559 89.816 104.121C89.777 104.855 89.786 105.594 89.812 106.328C89.832 106.801 89.637 106.938 89.192 106.938C85.066 106.926 80.942 106.926 76.812 106.938C76.32 106.941 76.122 106.785 76.141 106.281C76.169 105.545 76.1676 104.807 76.137 104.071C76.113 103.539 76.289 103.336 76.84 103.351C77.93 103.383 79.02 103.344 80.11 103.363C80.61 103.375 80.77 103.188 80.766 102.691C80.754 98.598 80.754 94.5 80.766 90.402C80.766 89.942 80.602 89.789 80.148 89.797C79.058 89.82 77.965 89.773 76.878 89.817C76.281 89.84 76.09 89.621 76.141 89.055C76.227 88.156 75.766 87.012 76.34 86.422C76.84 85.91 77.965 86.293 78.816 86.277C80.196 86.262 81.586 86.277 82.969 86.277ZM124.852 24.477C124.719 24.676 124.672 24.742 124.629 24.809C124.387 25.172 124.574 25.906 123.965 25.895C123.425 25.883 123.562 25.211 123.371 24.844C123.321 24.746 123.261 24.656 123.094 24.383C123.094 24.887 123.102 25.172 123.094 25.461C123.086 25.656 123.129 25.902 122.82 25.918C122.508 25.934 122.527 25.684 122.523 25.488C122.516 24.808 122.516 24.133 122.52 23.457C122.52 23.227 122.484 22.961 122.844 22.953C123.114 22.949 123.348 22.938 123.461 23.289C123.605 23.719 123.656 24.199 123.988 24.613C124.305 24.211 124.359 23.746 124.48 23.32C124.582 22.973 124.797 22.95 125.078 22.95C125.434 22.953 125.418 23.203 125.422 23.438C125.426 24.118 125.426 24.793 125.418 25.473C125.414 25.664 125.441 25.918 125.137 25.922C124.832 25.922 124.855 25.68 124.852 25.48C124.844 25.191 124.852 24.906 124.852 24.477ZM121.14 22.945C121.227 22.945 121.32 22.93 121.402 22.945C121.727 23.008 122.23 22.758 122.336 23.145C122.48 23.688 121.91 23.415 121.668 23.531C121.426 23.648 121.473 23.863 121.468 24.059C121.457 24.527 121.461 24.996 121.461 25.465C121.461 25.723 121.411 25.938 121.078 25.925C120.773 25.915 120.785 25.691 120.785 25.488C120.776 25.0494 120.775 24.6106 120.781 24.172C120.793 23.797 120.797 23.445 120.258 23.496C120.07 23.512 119.906 23.457 119.906 23.219C119.906 22.891 120.16 22.957 120.348 22.949C120.613 22.937 120.874 22.945 121.14 22.945Z" fill="#00979C"/>
<path fill-rule="evenodd" clip-rule="evenodd" d="M31.977 47.543C35.215 47.543 38.457 47.566 41.695 47.523C42.453 47.512 42.648 47.746 42.602 48.465C42.5376 49.3751 42.5376 50.2888 42.602 51.199C42.656 51.957 42.453 52.203 41.648 52.195C37.348 52.152 33.047 52.172 28.75 52.172C26.57 52.172 24.39 52.141 22.215 52.192C21.453 52.211 21.258 51.957 21.301 51.242C21.359 50.305 21.351 49.355 21.301 48.414C21.266 47.738 21.461 47.516 22.171 47.524C25.438 47.566 28.711 47.543 31.977 47.543ZM95.016 41.129C95.781 41.129 96.551 41.152 97.316 41.121C97.816 41.101 97.976 41.277 97.969 41.781C97.941 43.195 97.989 44.609 97.945 46.023C97.922 46.664 98.078 46.898 98.765 46.871C100.148 46.816 101.535 46.875 102.918 46.848C103.453 46.836 103.73 46.941 103.715 47.563C103.682 49.0951 103.681 50.6278 103.711 52.16C103.723 52.715 103.511 52.86 102.984 52.852C101.57 52.82 100.156 52.867 98.742 52.828C98.141 52.808 97.922 52.961 97.942 53.602C97.988 55.016 97.934 56.43 97.969 57.844C97.984 58.437 97.839 58.68 97.195 58.66C95.6929 58.6215 94.1902 58.6202 92.688 58.656C92.105 58.672 91.926 58.484 91.941 57.902C91.981 56.43 91.934 54.957 91.965 53.484C91.973 52.984 91.82 52.82 91.316 52.832C89.902 52.859 88.484 52.801 87.074 52.859C86.348 52.887 86.18 52.625 86.195 51.953C86.238 50.57 86.262 49.183 86.191 47.801C86.148 46.984 86.453 46.809 87.203 46.84C88.559 46.898 89.914 46.832 91.27 46.867C91.809 46.883 91.98 46.719 91.965 46.168C91.93 44.758 91.98 43.34 91.941 41.926C91.926 41.328 92.074 41.074 92.715 41.117C93.48 41.168 94.247 41.129 95.016 41.129Z" fill="#00979C"/>
</svg>
