<svg width="128" height="128" viewBox="0 0 128 128" fill="none" xmlns="http://www.w3.org/2000/svg">
<path d="M8 70.2L39.879 57.32C43.1151 53.0427 46.7599 49.0907 50.762 45.52C53.398 44.121 58.359 44.879 67.442 33.602C76.238 22.602 79.039 13.199 83.16 13.199C89.68 13.199 94.48 27.281 101.762 48.602C106.951 64.8865 113.039 80.8705 120 96.48C112.398 89.398 105.922 81.762 98.52 81.96C91.64 82.121 84 90.281 75.64 100.762C69 109.16 60.2 114.922 56.763 114.8C56.763 114.8 47.88 89.679 40.443 85.6C38.8993 84.9684 37.2279 84.7113 35.5658 84.8498C33.9036 84.9884 32.2979 85.5186 30.88 86.397L8 70.16V70.2Z" fill="#4499DD"/>
<path d="M79.2001 16.078C76.5201 19.68 73.2801 26.281 67.4401 33.602C58.3581 44.879 53.4401 44.122 50.7601 45.52C46.7399 49.072 43.0936 53.0259 39.8781 57.32L53.0781 66.96C64.2801 51.68 70.2801 35.122 74.9601 24.399C76.1328 21.5098 77.5506 18.7264 79.1981 16.079L79.2001 16.078Z" fill="url(#paint0_linear_17_128)"/>
<path d="M83.1999 13.2C74.4799 13.2 68.5199 59.121 36.3199 84.762C45.3599 83.282 53.1999 105.719 56.7999 114.801C72.7999 112.078 85.6019 81.481 98.5199 81.961C105.922 82.238 112.398 89.398 120 96.481C102.64 60 94.5199 13.198 83.1999 13.198V13.2Z" fill="url(#paint1_linear_17_128)"/>
<defs>
<linearGradient id="paint0_linear_17_128" x1="67.212" y1="61.476" x2="60.052" y2="38.356" gradientUnits="userSpaceOnUse">
<stop stop-color="#551122"/>
<stop offset="0.23" stop-color="#552233"/>
<stop offset="0.36" stop-color="#553344"/>
<stop offset="0.51" stop-color="#664455"/>
<stop offset="0.66" stop-color="#556688"/>
<stop offset="0.84" stop-color="#2299DD"/>
</linearGradient>
<linearGradient id="paint1_linear_17_128" x1="118.84" y1="75.932" x2="46.8399" y2="58.252" gradientUnits="userSpaceOnUse">
<stop offset="0.081" stop-color="#CC3333"/>
<stop offset="0.189" stop-color="#DE5239"/>
<stop offset="0.313" stop-color="#F06E3E"/>
<stop offset="0.421" stop-color="#FA8042"/>
<stop offset="0.5" stop-color="#FE8643"/>
<stop offset="0.58" stop-color="#FA7F42"/>
<stop offset="0.696" stop-color="#EF6C3E"/>
<stop offset="0.833" stop-color="#DC4C37"/>
<stop offset="0.916" stop-color="#CF3633"/>
</linearGradient>
</defs>
</svg>
