<svg width="105" height="108" viewBox="0 0 105 108" fill="none" xmlns="http://www.w3.org/2000/svg">
<g clip-path="url(#clip0_17_110)">
<path fill-rule="evenodd" clip-rule="evenodd" d="M28.8799 105.015C28.5928 105.015 28.3409 105.038 28.1285 105.088C27.9136 105.137 27.7356 105.215 27.5953 105.313C27.4649 105.402 27.3574 105.524 27.2844 105.668C27.2169 105.817 27.1832 105.98 27.1859 106.145C27.1859 106.451 27.2819 106.697 27.4698 106.879C27.6625 107.059 27.9275 107.149 28.2688 107.149C28.5395 107.151 28.8052 107.077 29.0382 106.935C29.2761 106.788 29.5222 106.566 29.7847 106.269V105.015H28.8799ZM58.1806 102.425C57.9108 102.425 57.6819 102.493 57.494 102.626C57.3043 102.76 57.1479 102.938 57.0371 103.146C56.9155 103.374 56.8289 103.62 56.7804 103.875C56.7279 104.148 56.7016 104.426 56.7016 104.705C56.7016 105 56.7221 105.292 56.7705 105.58C56.814 105.864 56.8927 106.117 57.0027 106.338C57.1118 106.561 57.2619 106.739 57.4432 106.872C57.6269 107.005 57.8558 107.073 58.1363 107.073C58.2758 107.073 58.4095 107.051 58.5383 107.014C58.6816 106.969 58.8176 106.902 58.9419 106.816C59.0949 106.71 59.2382 106.59 59.3701 106.458C59.5391 106.287 59.6982 106.105 59.8442 105.913V103.546C59.5571 103.181 59.2799 102.903 59.0133 102.713C58.7715 102.531 58.4804 102.43 58.1806 102.425ZM68.8357 102.4C68.5207 102.4 68.2516 102.457 68.026 102.573C67.8035 102.683 67.6112 102.848 67.4666 103.054C67.3159 103.279 67.2056 103.53 67.1409 103.795C67.0671 104.101 67.0326 104.416 67.0367 104.73C67.0367 105.057 67.0622 105.359 67.1212 105.643C67.1786 105.93 67.2787 106.181 67.4116 106.391C67.5478 106.605 67.7291 106.774 67.9579 106.897C68.1868 107.022 68.4698 107.086 68.8119 107.086C69.1187 107.086 69.3886 107.027 69.6174 106.914C69.8471 106.799 70.0309 106.64 70.1777 106.433C70.3332 106.213 70.4435 105.962 70.5017 105.696C70.5727 105.388 70.6072 105.072 70.6043 104.755C70.6043 104.434 70.578 104.132 70.5165 103.848C70.465 103.582 70.3678 103.328 70.2294 103.097C70.0944 102.882 69.9083 102.707 69.6888 102.587C69.4616 102.464 69.1777 102.4 68.8357 102.4ZM63.5939 101.586C63.6989 101.586 63.7883 101.589 63.8564 101.597C63.9112 101.604 63.9649 101.618 64.0163 101.639C64.0491 101.652 64.0779 101.674 64.0984 101.701C64.1152 101.728 64.1238 101.759 64.123 101.79V107.712C64.124 107.743 64.1154 107.774 64.0984 107.799C64.0768 107.827 64.0485 107.849 64.0163 107.862C63.9646 107.882 63.911 107.895 63.8564 107.901C63.6841 107.918 63.5102 107.918 63.3371 107.901C63.2815 107.895 63.2267 107.882 63.1739 107.863C63.1407 107.852 63.112 107.83 63.0918 107.8C63.0761 107.774 63.0676 107.743 63.0672 107.712V101.789C63.0687 101.758 63.0771 101.728 63.0918 101.701C63.105 101.678 63.1329 101.657 63.1739 101.639C63.2267 101.618 63.2818 101.604 63.3379 101.597C63.406 101.588 63.4913 101.586 63.5939 101.586ZM49.9209 101.586C50.0226 101.586 50.1079 101.589 50.1752 101.597C50.2319 101.598 50.2878 101.611 50.3393 101.636C50.373 101.649 50.4032 101.67 50.427 101.698C50.4446 101.725 50.4538 101.757 50.4533 101.79V105.236C50.4533 105.584 50.4763 105.86 50.5247 106.069C50.5677 106.259 50.6438 106.44 50.7494 106.602C50.8479 106.749 50.975 106.863 51.1284 106.944C51.2826 107.023 51.4639 107.066 51.6682 107.066C51.9307 107.066 52.194 106.971 52.4573 106.777C52.7198 106.584 52.9971 106.301 53.294 105.927V101.789C53.2937 101.758 53.3007 101.727 53.3145 101.699C53.3369 101.671 53.3664 101.649 53.3999 101.636C53.4515 101.612 53.5072 101.598 53.5639 101.596C53.6279 101.59 53.7173 101.587 53.8231 101.587C53.9257 101.587 54.0118 101.589 54.0791 101.597C54.1347 101.597 54.1896 101.61 54.2399 101.635C54.2727 101.649 54.3014 101.671 54.3252 101.698C54.3448 101.724 54.3545 101.757 54.3522 101.79V107.712C54.353 107.743 54.346 107.773 54.3317 107.799C54.3123 107.828 54.2848 107.85 54.253 107.862C54.2052 107.88 54.1557 107.893 54.1053 107.9C53.9494 107.919 53.792 107.919 53.6361 107.9C53.5854 107.895 53.5357 107.883 53.4884 107.863C53.4574 107.851 53.431 107.829 53.413 107.8C53.3999 107.773 53.3943 107.743 53.3966 107.712V106.928C53.0652 107.301 52.7403 107.571 52.4237 107.744C52.1245 107.909 51.7905 107.997 51.4508 108C51.0677 108 50.742 107.933 50.4804 107.803C50.2283 107.681 50.0098 107.497 49.8446 107.266C49.676 107.03 49.5575 106.761 49.4968 106.475C49.42 106.116 49.3847 105.75 49.3918 105.383V101.79C49.3918 101.754 49.3975 101.723 49.414 101.697C49.4358 101.668 49.4659 101.646 49.5001 101.635C49.5525 101.61 49.6091 101.597 49.6666 101.595C49.7355 101.589 49.8176 101.586 49.9209 101.586ZM20.4446 101.586C20.548 101.586 20.6333 101.589 20.7014 101.597C20.7581 101.598 20.814 101.611 20.8654 101.636C20.8983 101.65 20.9261 101.671 20.9499 101.698C20.9672 101.725 20.9762 101.757 20.9745 101.79V105.236C20.9745 105.584 20.9983 105.86 21.05 106.069C21.0968 106.279 21.1722 106.455 21.2715 106.602C21.374 106.749 21.5012 106.863 21.6538 106.944C21.808 107.023 21.986 107.066 22.1894 107.066C22.456 107.066 22.7193 106.971 22.9827 106.777C23.2419 106.584 23.5224 106.301 23.8161 105.927V101.789C23.8161 101.755 23.8227 101.723 23.8391 101.699C23.8609 101.67 23.891 101.648 23.9252 101.636C23.9765 101.611 24.0324 101.598 24.0893 101.596C24.1754 101.588 24.2615 101.585 24.3485 101.587C24.4477 101.587 24.5322 101.589 24.602 101.597C24.6573 101.598 24.7118 101.611 24.7619 101.635C24.7948 101.65 24.8248 101.672 24.8505 101.698C24.8681 101.725 24.8772 101.757 24.8768 101.79V107.712C24.8783 107.743 24.8702 107.773 24.8538 107.799C24.8344 107.828 24.8069 107.85 24.775 107.862C24.7272 107.881 24.6774 107.894 24.6266 107.9C24.4707 107.919 24.3132 107.919 24.1574 107.9C24.1068 107.894 24.0572 107.882 24.0097 107.863C23.9728 107.845 23.949 107.824 23.94 107.8C23.925 107.773 23.9174 107.743 23.9178 107.712V106.928C23.5913 107.301 23.2657 107.571 22.9449 107.744C22.648 107.91 22.3133 107.997 21.9745 108C21.5898 108 21.2682 107.933 21.0041 107.803C20.752 107.68 20.5329 107.496 20.3659 107.266C20.2 107.029 20.0817 106.759 20.0181 106.475C19.9429 106.116 19.9076 105.75 19.9131 105.383V101.79C19.9131 101.754 19.9196 101.723 19.936 101.697C19.9584 101.669 19.9879 101.647 20.0213 101.635C20.074 101.61 20.1309 101.597 20.1887 101.595C20.2568 101.589 20.3421 101.587 20.4454 101.587L20.4446 101.586ZM12.2825 101.586C12.3704 101.585 12.4583 101.589 12.5458 101.597C12.5998 101.604 12.6528 101.618 12.7033 101.639C12.7366 101.651 12.7658 101.673 12.7878 101.701C12.8047 101.728 12.8133 101.759 12.8124 101.79V107.712C12.8134 107.743 12.8048 107.774 12.7878 107.799C12.7659 107.828 12.7367 107.85 12.7033 107.862C12.6525 107.882 12.5996 107.895 12.5458 107.901C12.3736 107.918 12.1997 107.918 12.0274 107.901C11.9715 107.895 11.9165 107.882 11.8633 107.863C11.8302 107.852 11.8015 107.83 11.7813 107.8C11.764 107.774 11.7554 107.744 11.7567 107.712V101.789C11.7567 101.758 11.7649 101.728 11.7813 101.701C11.8017 101.672 11.8304 101.651 11.8633 101.639C11.9162 101.618 11.9713 101.604 12.0274 101.597C12.0947 101.588 12.1816 101.586 12.2833 101.586H12.2825ZM68.8759 101.491C69.3516 101.491 69.7643 101.564 70.1162 101.709C70.4547 101.843 70.7561 102.06 70.9939 102.342C71.2302 102.618 71.4033 102.953 71.523 103.349C71.6395 103.743 71.6977 104.189 71.6977 104.684C71.6977 105.165 71.6362 105.611 71.5124 106.016C71.4007 106.401 71.2128 106.759 70.9603 107.066C70.7081 107.365 70.3923 107.601 70.0374 107.754C69.6683 107.919 69.2417 107.999 68.7569 107.999C68.282 107.999 67.8693 107.926 67.5174 107.782C67.179 107.648 66.8776 107.431 66.6397 107.15C66.3957 106.858 66.216 106.515 66.1131 106.145C65.992 105.709 65.9334 105.257 65.9392 104.804C65.9392 104.319 66.0007 103.877 66.1237 103.469C66.2334 103.084 66.421 102.728 66.6741 102.423C66.9238 102.123 67.2386 101.888 67.5929 101.737C67.9579 101.572 68.3886 101.491 68.8775 101.491H68.8759ZM28.5616 101.491C28.9759 101.491 29.3278 101.541 29.6174 101.639C29.9086 101.733 30.1432 101.874 30.3212 102.064C30.4984 102.25 30.6288 102.478 30.71 102.756C30.792 103.033 30.8331 103.356 30.8331 103.725V107.718C30.8331 107.772 30.8167 107.81 30.7822 107.835C30.7404 107.865 30.6928 107.885 30.6427 107.895C30.5557 107.911 30.4671 107.918 30.3786 107.916C30.2896 107.918 30.2005 107.911 30.1128 107.895C30.061 107.887 30.0117 107.867 29.9693 107.835C29.9389 107.81 29.9258 107.772 29.9258 107.718V107.125C29.6857 107.393 29.3992 107.612 29.0809 107.772C28.7755 107.923 28.441 108.001 28.1022 108C27.7979 108 27.5256 107.961 27.2786 107.877C27.0492 107.805 26.8366 107.685 26.6536 107.526C26.4786 107.372 26.3409 107.178 26.2516 106.96C26.1525 106.719 26.1033 106.459 26.1072 106.198C26.1072 105.865 26.172 105.573 26.3058 105.33C26.4403 105.079 26.6355 104.868 26.8718 104.716C27.1519 104.541 27.4598 104.417 27.7815 104.351C28.1789 104.266 28.584 104.226 28.9898 104.231H29.7855V103.771C29.7855 103.542 29.7609 103.338 29.7133 103.164C29.6725 103.002 29.5952 102.853 29.4877 102.727C29.375 102.607 29.2357 102.517 29.0817 102.464C28.883 102.399 28.6751 102.368 28.4665 102.372C28.2081 102.372 27.9718 102.408 27.7675 102.472C27.5802 102.527 27.3975 102.597 27.2212 102.683C27.067 102.755 26.9366 102.826 26.8308 102.889C26.729 102.956 26.6503 102.987 26.5994 102.987C26.5675 102.987 26.5362 102.977 26.51 102.959C26.4815 102.939 26.4582 102.913 26.4419 102.882C26.4193 102.84 26.4053 102.793 26.4009 102.745C26.3907 102.686 26.386 102.625 26.387 102.565C26.387 102.457 26.3935 102.369 26.4116 102.306C26.4301 102.237 26.4663 102.174 26.5166 102.123C26.5748 102.067 26.6733 102 26.8135 101.923C26.9579 101.846 27.117 101.776 27.3033 101.712C27.4991 101.646 27.6992 101.593 27.9021 101.555C28.1195 101.513 28.3403 101.491 28.5616 101.491ZM16.2651 101.491C16.4185 101.491 16.5727 101.505 16.7253 101.534C16.8795 101.558 17.0157 101.593 17.1429 101.631C17.3263 101.683 17.4995 101.767 17.6547 101.88C17.69 101.906 17.722 101.937 17.7474 101.973C17.7615 102.002 17.7717 102.033 17.7778 102.064C17.786 102.095 17.7917 102.134 17.7983 102.182C17.8065 102.307 17.8065 102.432 17.7983 102.556C17.7942 102.602 17.7825 102.647 17.7638 102.689C17.7507 102.724 17.7335 102.752 17.7089 102.766C17.689 102.781 17.6654 102.79 17.6408 102.792C17.5998 102.792 17.5456 102.766 17.4751 102.717C17.386 102.658 17.2924 102.606 17.1954 102.562C17.063 102.501 16.9268 102.45 16.7877 102.408C16.6135 102.357 16.433 102.332 16.252 102.335C16.0924 102.332 15.9333 102.353 15.7795 102.398C15.6561 102.433 15.5413 102.494 15.4424 102.578C15.3569 102.651 15.289 102.742 15.2438 102.846C15.1994 102.955 15.1774 103.073 15.179 103.191C15.179 103.359 15.22 103.504 15.3062 103.62C15.3907 103.739 15.5031 103.841 15.64 103.928C15.7738 104.012 15.9304 104.093 16.1043 104.164L16.6408 104.382C16.8213 104.455 16.9993 104.54 17.1765 104.632C17.3545 104.723 17.512 104.836 17.649 104.964C17.7852 105.099 17.8934 105.256 17.9755 105.439C18.0575 105.625 18.1026 105.844 18.1026 106.1C18.1026 106.402 18.0477 106.673 17.9386 106.907C17.8308 107.142 17.6719 107.347 17.4743 107.508C17.2606 107.677 17.0171 107.801 16.7573 107.873C16.4597 107.961 16.1513 108.003 15.8418 108C15.6409 108 15.4424 107.982 15.2578 107.95C15.0887 107.923 14.9221 107.881 14.7599 107.825C14.6301 107.783 14.5041 107.73 14.3833 107.667C14.3033 107.628 14.2288 107.578 14.1618 107.519C14.1102 107.47 14.0742 107.406 14.0585 107.336C14.0229 107.16 14.016 106.98 14.038 106.802C14.0454 106.755 14.0572 106.709 14.0733 106.664C14.0827 106.635 14.1004 106.608 14.1241 106.588C14.1489 106.574 14.1769 106.566 14.2053 106.566C14.2537 106.566 14.3218 106.594 14.4153 106.655C14.5056 106.714 14.6188 106.777 14.7525 106.848C14.8854 106.918 15.0453 106.985 15.2299 107.045C15.412 107.101 15.6236 107.132 15.8615 107.132C16.0395 107.132 16.2028 107.112 16.3472 107.073C16.4825 107.039 16.6113 106.98 16.7253 106.896C16.8302 106.823 16.9149 106.722 16.9714 106.605C17.0313 106.473 17.0606 106.329 17.0567 106.183C17.0612 106.033 17.0183 105.886 16.9345 105.762C16.8419 105.642 16.7295 105.54 16.6023 105.46C16.4562 105.368 16.3025 105.289 16.1429 105.225C15.967 105.156 15.7914 105.085 15.6163 105.014C15.4347 104.937 15.2568 104.851 15.0831 104.757C14.914 104.667 14.7587 104.551 14.622 104.414C14.483 104.275 14.3706 104.11 14.2906 103.928C14.2043 103.714 14.1626 103.483 14.1684 103.251C14.1632 103.02 14.2073 102.79 14.2976 102.577C14.3878 102.365 14.5221 102.175 14.6909 102.022C14.8665 101.863 15.0847 101.734 15.3472 101.639C15.6425 101.535 15.9531 101.485 16.2651 101.491ZM45.8292 99.9979C45.9342 99.9979 46.0228 100.006 46.0917 100.012C46.1468 100.019 46.2008 100.033 46.2525 100.054C46.2853 100.07 46.3132 100.094 46.3345 100.124C46.3518 100.149 46.361 100.179 46.3608 100.209V101.618H47.8373C47.8697 101.617 47.9015 101.626 47.9292 101.643C47.9573 101.662 47.9797 101.688 47.994 101.719C48.0169 101.763 48.0308 101.811 48.035 101.86C48.0457 101.919 48.0481 101.99 48.0481 102.071C48.0481 102.229 48.0276 102.344 47.9907 102.415C47.953 102.485 47.9005 102.52 47.8373 102.52H46.3608V105.822C46.3608 106.231 46.419 106.539 46.5363 106.745C46.6552 106.953 46.8636 107.058 47.1679 107.058C47.2639 107.058 47.3509 107.047 47.4304 107.031C47.4984 107.012 47.5657 106.991 47.6322 106.967C47.6844 106.95 47.7353 106.929 47.7848 106.905C47.8212 106.887 47.8609 106.877 47.9013 106.876C47.9218 106.876 47.9423 106.88 47.962 106.89C47.984 106.905 48.0001 106.927 48.0071 106.953C48.0375 107.058 48.0513 107.167 48.0481 107.276C48.0481 107.403 48.0416 107.504 48.0235 107.578C48.0125 107.639 47.9856 107.697 47.9456 107.744C47.9003 107.786 47.8481 107.819 47.7914 107.842C47.7167 107.875 47.6393 107.901 47.5601 107.919C47.4672 107.938 47.3739 107.954 47.2803 107.969C47.1828 107.98 47.0848 107.985 46.9867 107.986C46.7255 107.992 46.4652 107.952 46.2172 107.868C46.0151 107.793 45.8354 107.666 45.6955 107.498C45.5501 107.316 45.4481 107.102 45.3977 106.872C45.3318 106.58 45.3006 106.28 45.305 105.98V102.521H44.5011C44.4355 102.521 44.3838 102.485 44.3461 102.415C44.305 102.344 44.2886 102.229 44.2886 102.07C44.2886 101.99 44.2919 101.919 44.3026 101.86C44.3129 101.812 44.3275 101.765 44.3461 101.72C44.3593 101.688 44.3823 101.66 44.4117 101.642C44.4393 101.625 44.4712 101.616 44.5036 101.617H45.3067V100.209C45.3067 100.178 45.3124 100.149 45.3263 100.125C45.3477 100.094 45.3773 100.069 45.4117 100.054C45.4635 100.032 45.5178 100.018 45.5733 100.011C45.6577 100.003 45.7431 99.9979 45.8292 99.9979ZM3.94403 99.3204C4.06298 99.3204 4.15567 99.3237 4.22786 99.3313C4.28339 99.3358 4.3382 99.3471 4.3911 99.3651C4.42502 99.3807 4.45442 99.4051 4.47642 99.436C4.49848 99.4703 4.51665 99.5071 4.53056 99.5456L6.90454 106.712H6.91192L9.21946 99.5591C9.22988 99.5178 9.24445 99.4776 9.26294 99.4393C9.28424 99.4054 9.31602 99.3798 9.35317 99.3668C9.41177 99.3476 9.47233 99.3354 9.53364 99.3305C9.74118 99.3136 9.94954 99.317 10.1554 99.3381C10.2309 99.3491 10.2818 99.3693 10.3088 99.4014C10.34 99.4334 10.3499 99.4756 10.3441 99.5347C10.3318 99.6157 10.3113 99.695 10.2826 99.7709L7.58458 107.677C7.56982 107.722 7.54543 107.763 7.51321 107.797C7.47716 107.831 7.43355 107.856 7.38606 107.87C7.31926 107.89 7.25044 107.902 7.18099 107.906C7.07888 107.913 6.97654 107.916 6.87419 107.916C6.77739 107.916 6.69618 107.912 6.62481 107.912C6.52015 107.909 6.41613 107.894 6.31474 107.868C6.28063 107.86 6.24866 107.844 6.22122 107.822C6.196 107.807 6.17482 107.787 6.1597 107.761C6.14141 107.734 6.12757 107.703 6.11868 107.671L3.41165 99.7633C3.38288 99.6878 3.36439 99.6086 3.35669 99.5279C3.35669 99.4689 3.37474 99.4267 3.41083 99.3946C3.46783 99.3587 3.53272 99.3381 3.5995 99.3347C3.68153 99.3263 3.7972 99.3204 3.94403 99.3204ZM41.2453 99.236C41.6111 99.2377 41.9745 99.2993 42.3207 99.4182C42.4848 99.4714 42.6324 99.5347 42.762 99.6013C42.8892 99.6688 42.9737 99.7245 43.0163 99.7667C43.0463 99.7957 43.0725 99.8286 43.0943 99.8646C43.109 99.8933 43.1197 99.9236 43.1238 99.9566C43.135 100.001 43.1418 100.047 43.1443 100.093C43.1476 100.146 43.1509 100.212 43.1509 100.297C43.1509 100.374 43.1476 100.444 43.141 100.504C43.1356 100.557 43.1269 100.609 43.1148 100.661C43.1042 100.696 43.085 100.728 43.059 100.753C43.0353 100.771 43.0065 100.781 42.977 100.781C42.9335 100.781 42.8572 100.751 42.7588 100.691C42.6379 100.617 42.5148 100.548 42.3896 100.482C42.2241 100.396 42.0514 100.326 41.8736 100.271C41.6564 100.206 41.4307 100.174 41.2043 100.178C40.977 100.178 40.7744 100.209 40.6046 100.273C40.4492 100.326 40.3061 100.411 40.1846 100.524C40.0737 100.628 39.988 100.757 39.9344 100.901C39.8786 101.047 39.8497 101.203 39.8491 101.361C39.8491 101.597 39.9033 101.804 40.0099 101.972C40.1149 102.144 40.2584 102.296 40.4365 102.425C40.6145 102.559 40.8154 102.678 41.041 102.791C41.2666 102.9 41.4955 103.008 41.7317 103.121C41.9655 103.233 42.1952 103.357 42.4208 103.489C42.6497 103.623 42.8506 103.781 43.0254 103.964C43.2042 104.15 43.3502 104.367 43.4552 104.606C43.5651 104.856 43.6193 105.147 43.6193 105.485C43.6193 105.885 43.5471 106.24 43.4035 106.553C43.2643 106.859 43.0616 107.13 42.8096 107.346C42.5449 107.569 42.2395 107.736 41.9114 107.835C41.5516 107.948 41.1774 108.003 40.8015 108C40.525 108 40.2683 107.975 40.0329 107.926C39.8169 107.885 39.6045 107.826 39.3979 107.749C39.2378 107.691 39.0828 107.619 38.9345 107.533C38.8386 107.483 38.75 107.419 38.6711 107.344C38.6187 107.287 38.5809 107.218 38.5612 107.143C38.535 107.036 38.5234 106.926 38.5268 106.815C38.5268 106.718 38.5309 106.64 38.5383 106.577C38.5453 106.523 38.5588 106.47 38.5784 106.419C38.5903 106.386 38.6114 106.358 38.6392 106.338C38.668 106.324 38.6998 106.317 38.7318 106.318C38.7909 106.318 38.8762 106.352 38.9861 106.426C39.0903 106.503 39.2306 106.584 39.402 106.673C39.5718 106.76 39.7777 106.841 40.0197 106.917C40.2904 107 40.5734 107.038 40.8565 107.034C41.0779 107.035 41.297 107.002 41.5086 106.935C41.6948 106.875 41.8684 106.78 42.0205 106.654C42.164 106.535 42.2748 106.388 42.3527 106.209C42.4321 106.02 42.4715 105.816 42.4684 105.611C42.4739 105.393 42.418 105.179 42.3076 104.994C42.1957 104.817 42.052 104.665 41.8843 104.544C41.6967 104.406 41.4964 104.287 41.2863 104.19L40.6005 103.859C40.3656 103.747 40.1364 103.623 39.9139 103.487C39.6958 103.354 39.4958 103.192 39.3192 103.005C39.1415 102.817 38.9972 102.598 38.8926 102.359C38.7797 102.076 38.7249 101.772 38.7318 101.466C38.7318 101.112 38.7934 100.795 38.9205 100.515C39.046 100.237 39.2208 100.005 39.4431 99.8156C39.6805 99.6192 39.9531 99.4724 40.2453 99.3836C40.5698 99.283 40.9064 99.2332 41.2453 99.236ZM63.5996 99.144C63.8457 99.144 64.0163 99.1862 64.109 99.279C64.2009 99.3693 64.246 99.5389 64.246 99.787C64.246 100.044 64.1984 100.216 64.1066 100.307C64.0098 100.402 63.8391 100.448 63.5865 100.448C63.342 100.448 63.1706 100.402 63.0779 100.311C62.9852 100.223 62.9417 100.051 62.9417 99.8013C62.9417 99.549 62.9885 99.3735 63.0812 99.2816C63.1772 99.1904 63.3478 99.144 63.5996 99.144ZM12.2907 99.144C12.5352 99.144 12.7066 99.1862 12.7993 99.279C12.8879 99.3693 12.9347 99.5389 12.9347 99.787C12.9347 100.044 12.8879 100.216 12.7952 100.307C12.7 100.402 12.5261 100.448 12.2768 100.448C12.0266 100.448 11.86 100.402 11.7682 100.311C11.6755 100.223 11.6312 100.051 11.6312 99.8013C11.6312 99.549 11.6755 99.3735 11.7706 99.2816C11.8633 99.1904 12.0381 99.144 12.2907 99.144ZM60.3659 98.7373C60.4718 98.7373 60.5612 98.7407 60.6284 98.7517C60.6973 98.7618 60.7515 98.7753 60.7901 98.7896C60.8238 98.8035 60.8531 98.8269 60.8745 98.8571C60.8945 98.8831 60.9058 98.9151 60.9065 98.9483V107.712C60.9055 107.744 60.8971 107.775 60.8819 107.803C60.8631 107.831 60.8369 107.853 60.8065 107.866C60.7587 107.882 60.7095 107.895 60.6596 107.902C60.5134 107.921 60.3654 107.921 60.2191 107.902C60.169 107.894 60.1196 107.882 60.0715 107.866C60.0398 107.852 60.0121 107.83 59.9911 107.803C59.9734 107.776 59.9638 107.745 59.9632 107.712V106.928C59.6925 107.241 59.3734 107.509 59.0198 107.719C58.6966 107.905 58.339 108 57.9485 108C57.5293 108 57.1659 107.916 56.8689 107.747C56.5749 107.584 56.3248 107.349 56.1413 107.062C55.9481 106.752 55.8108 106.41 55.7361 106.05C55.6494 105.646 55.6067 105.234 55.609 104.82C55.609 104.312 55.6598 103.855 55.7665 103.445C55.8747 103.033 56.0322 102.685 56.2414 102.394C56.4435 102.109 56.7105 101.88 57.0191 101.726C57.3535 101.564 57.7194 101.484 58.0888 101.491C58.4112 101.488 58.7295 101.566 59.0157 101.719C59.3242 101.896 59.6038 102.121 59.8442 102.387V98.9483C59.8442 98.9162 59.8508 98.885 59.8639 98.8563C59.8849 98.8251 59.9151 98.8018 59.95 98.7896C60.0846 98.7475 60.2248 98.7289 60.3659 98.7373ZM33.5721 98.7095C33.6787 98.7095 33.7649 98.7129 33.8321 98.723C33.8871 98.7274 33.9411 98.7408 33.9921 98.7626C34.0262 98.7755 34.0558 98.7984 34.0774 98.8285C34.0952 98.8558 34.1038 98.8884 34.102 98.9213V107.712C34.103 107.743 34.0943 107.774 34.0774 107.799C34.0544 107.827 34.0251 107.849 33.9921 107.862C33.9405 107.882 33.8868 107.895 33.8321 107.901C33.6599 107.918 33.4876 107.918 33.3161 107.901C33.2602 107.895 33.2052 107.882 33.1521 107.863C33.1185 107.851 33.089 107.829 33.0668 107.8C33.0524 107.773 33.0453 107.743 33.0463 107.712V98.9196C33.0463 98.8884 33.0528 98.8563 33.0668 98.8285C33.0877 98.7976 33.1176 98.7743 33.1521 98.7618C33.2048 98.7413 33.26 98.7282 33.3161 98.723C33.401 98.7122 33.4866 98.7077 33.5721 98.7095ZM92.3885 102.425C92.1178 102.425 91.8897 102.493 91.7019 102.626C91.5122 102.76 91.3557 102.938 91.245 103.146C91.1236 103.374 91.0371 103.62 90.9882 103.875C90.9365 104.148 90.9104 104.426 90.9103 104.705C90.9103 105 90.93 105.292 90.9784 105.58C91.0218 105.864 91.0981 106.117 91.2097 106.338C91.3188 106.561 91.4665 106.739 91.6502 106.872C91.8348 107.005 92.0636 107.073 92.3409 107.073C92.4845 107.073 92.6174 107.051 92.7478 107.014C92.8889 106.967 93.0242 106.901 93.1473 106.816C93.2834 106.725 93.4262 106.605 93.5771 106.458C93.7272 106.31 93.8839 106.128 94.0521 105.913V103.546C93.765 103.181 93.4877 102.903 93.2211 102.713C92.9791 102.532 92.6887 102.432 92.3893 102.426L92.3885 102.425ZM85.5758 102.4C85.2608 102.4 84.9917 102.457 84.767 102.573C84.5442 102.683 84.3516 102.848 84.2067 103.054C84.0547 103.278 83.9445 103.529 83.8818 103.795C83.808 104.101 83.7727 104.416 83.776 104.73C83.776 105.057 83.8031 105.359 83.8613 105.643C83.9196 105.93 84.018 106.181 84.1509 106.391C84.2887 106.605 84.4692 106.774 84.6981 106.897C84.9277 107.022 85.2099 107.086 85.5487 107.086C85.8596 107.086 86.1287 107.027 86.3576 106.915C86.5793 106.804 86.7713 106.639 86.917 106.434C87.0647 106.23 87.1713 105.983 87.2427 105.696C87.3132 105.388 87.3477 105.071 87.3452 104.755C87.3458 104.45 87.3156 104.146 87.255 103.848C87.2035 103.582 87.1066 103.328 86.9687 103.097C86.8341 102.882 86.6475 102.706 86.4273 102.587C86.2009 102.464 85.9138 102.4 85.5758 102.4ZM99.0552 102.341C98.8178 102.337 98.5828 102.389 98.3677 102.493C98.1774 102.589 98.0089 102.725 97.8731 102.893C97.7356 103.066 97.63 103.264 97.5614 103.476C97.4892 103.701 97.4484 103.935 97.44 104.171H100.581C100.595 103.602 100.472 103.153 100.212 102.83C99.9534 102.503 99.567 102.341 99.0552 102.341ZM99.1093 101.491C99.5638 101.491 99.946 101.569 100.263 101.717C100.566 101.854 100.835 102.061 101.051 102.32C101.254 102.57 101.404 102.868 101.5 103.206C101.596 103.56 101.645 103.926 101.643 104.294V104.495C101.643 104.663 101.602 104.786 101.517 104.859C101.438 104.928 101.337 104.966 101.233 104.965H97.44C97.44 105.295 97.4736 105.589 97.5384 105.854C97.6007 106.118 97.709 106.345 97.8591 106.532C98.0101 106.72 98.2045 106.865 98.4432 106.966C98.6827 107.069 98.9764 107.118 99.3242 107.118C99.7628 107.12 100.198 107.044 100.612 106.894C100.77 106.837 100.899 106.784 100.998 106.739C101.069 106.702 101.147 106.679 101.227 106.672C101.258 106.672 101.285 106.68 101.309 106.693C101.333 106.712 101.351 106.736 101.364 106.764C101.376 106.805 101.385 106.847 101.391 106.89C101.404 107.006 101.405 107.124 101.394 107.241C101.39 107.279 101.384 107.316 101.376 107.354C101.364 107.416 101.333 107.472 101.288 107.515C101.225 107.565 101.155 107.606 101.08 107.635C100.935 107.702 100.785 107.756 100.632 107.797C100.422 107.854 100.211 107.901 99.9969 107.937C99.7417 107.98 99.4835 108.001 99.225 108C98.75 108 98.3374 107.933 97.9822 107.798C97.6401 107.671 97.3315 107.463 97.0807 107.193C96.8275 106.902 96.6399 106.557 96.5311 106.183C96.408 105.778 96.3465 105.314 96.3465 104.775C96.3465 104.266 96.4121 103.81 96.5376 103.405C96.6525 103.025 96.8411 102.673 97.0905 102.369C97.3317 102.088 97.6304 101.867 97.965 101.719C98.3271 101.563 98.7167 101.486 99.1093 101.491ZM85.6168 101.491C86.0926 101.491 86.5044 101.564 86.8555 101.709C87.1934 101.844 87.4953 102.061 87.7332 102.342C87.9703 102.618 88.1434 102.953 88.264 103.349C88.3788 103.743 88.4379 104.189 88.4379 104.685C88.4379 105.166 88.3763 105.611 88.2541 106.016C88.1421 106.401 87.9533 106.759 87.6996 107.066C87.4477 107.365 87.1322 107.601 86.7775 107.754C86.4084 107.919 85.9818 107.999 85.4979 107.999C85.0221 107.999 84.6095 107.927 84.2584 107.782C83.9199 107.648 83.6185 107.431 83.3806 107.15C83.1366 106.858 82.9569 106.515 82.854 106.145C82.7323 105.709 82.6734 105.257 82.6793 104.804C82.6793 104.319 82.7408 103.877 82.8647 103.469C82.9741 103.084 83.1614 102.728 83.4143 102.423C83.6644 102.124 83.979 101.889 84.333 101.737C84.6981 101.572 85.1254 101.492 85.6176 101.492L85.6168 101.491ZM79.2684 99.2571C79.5071 99.2571 79.7401 99.2782 79.9649 99.3246C80.1945 99.3693 80.4021 99.4292 80.594 99.4992C80.7843 99.5701 80.955 99.6511 81.1051 99.7422C81.256 99.8325 81.3594 99.9093 81.4168 99.9701C81.4586 100.01 81.4953 100.055 81.5259 100.104C81.5469 100.137 81.5616 100.174 81.5694 100.213C81.6086 100.402 81.6158 100.597 81.5907 100.788C81.585 100.841 81.5723 100.893 81.553 100.943C81.5412 100.979 81.5203 101.01 81.4923 101.035C81.4685 101.056 81.4377 101.067 81.4061 101.066C81.3446 101.066 81.2626 101.024 81.1527 100.937C81.021 100.835 80.8832 100.741 80.7401 100.656C80.5446 100.538 80.3375 100.443 80.1223 100.37C79.8405 100.28 79.5463 100.237 79.2512 100.243C78.882 100.243 78.5474 100.318 78.2438 100.469C77.9373 100.625 77.6715 100.854 77.4686 101.137C77.2404 101.462 77.0717 101.828 76.9707 102.215C76.8468 102.688 76.7866 103.176 76.7919 103.666C76.7919 104.203 76.8509 104.681 76.9633 105.096C77.0798 105.509 77.2398 105.857 77.4522 106.135C77.6672 106.412 77.9264 106.623 78.234 106.767C78.5449 106.907 78.8927 106.981 79.2815 106.981C79.6138 106.981 79.9 106.939 80.1461 106.855C80.3652 106.784 80.5768 106.691 80.7778 106.577C80.9246 106.492 81.0657 106.398 81.2043 106.296C81.3167 106.212 81.4061 106.17 81.4668 106.17C81.4948 106.169 81.5224 106.176 81.5464 106.191C81.5694 106.21 81.5874 106.236 81.5965 106.264C81.6129 106.315 81.6227 106.367 81.6284 106.419C81.6317 106.486 81.6342 106.571 81.6342 106.671C81.6342 106.743 81.6342 106.802 81.6317 106.855C81.6263 106.901 81.6181 106.947 81.6071 106.992C81.5989 107.029 81.585 107.064 81.5661 107.097C81.5417 107.138 81.5122 107.176 81.4783 107.209C81.3945 107.285 81.3039 107.352 81.2076 107.41C81.0466 107.514 80.8763 107.602 80.699 107.673C80.4736 107.768 80.2402 107.841 80.0018 107.891C79.7191 107.952 79.4309 107.982 79.1421 107.979C78.6442 107.986 78.1498 107.893 77.6868 107.705C77.2605 107.525 76.8814 107.245 76.5802 106.886C76.2734 106.528 76.0413 106.086 75.8764 105.556C75.7107 105.028 75.632 104.417 75.632 103.729C75.632 103.023 75.7165 102.394 75.8945 101.842C76.0512 101.329 76.3043 100.851 76.6393 100.437C76.9528 100.059 77.3461 99.7582 77.7894 99.5591C78.2561 99.3522 78.7602 99.2492 79.2684 99.2571ZM94.5754 98.7373C94.6629 98.7356 94.7503 98.7404 94.8371 98.7517C94.8915 98.7592 94.9451 98.7722 94.9971 98.7905C95.0304 98.8047 95.0598 98.8273 95.0824 98.8563C95.1024 98.8829 95.1134 98.9155 95.1136 98.9491V107.712C95.1126 107.744 95.1045 107.775 95.0898 107.803C95.0703 107.831 95.0428 107.853 95.011 107.866C94.9645 107.883 94.9164 107.895 94.8675 107.902C94.7215 107.921 94.5738 107.921 94.4278 107.902C94.3777 107.894 94.3283 107.882 94.2801 107.866C94.248 107.852 94.2197 107.831 94.1981 107.803C94.1809 107.776 94.1718 107.744 94.1718 107.712V106.928C93.8994 107.24 93.5811 107.507 93.2285 107.719C92.9006 107.906 92.5313 108.003 92.1563 108C91.7363 108 91.3746 107.916 91.0768 107.747C90.7832 107.584 90.5334 107.348 90.35 107.062C90.1561 106.753 90.0182 106.41 89.9431 106.05C89.8568 105.646 89.8147 105.234 89.8176 104.82C89.8176 104.312 89.8685 103.855 89.9743 103.445C90.0842 103.033 90.2409 102.685 90.4493 102.394C90.6519 102.109 90.9185 101.879 91.2277 101.726C91.5619 101.565 91.9276 101.484 92.2966 101.491C92.6346 101.491 92.9414 101.569 93.2211 101.719C93.5308 101.895 93.8113 102.121 94.0521 102.387V98.9483C94.0521 98.9165 94.0588 98.8851 94.0718 98.8563C94.0849 98.8276 94.1161 98.8074 94.1579 98.7905C94.2115 98.7733 94.2664 98.7603 94.322 98.7517C94.39 98.7407 94.4721 98.7373 94.5754 98.7373Z" fill="#0877B9"/>
<mask id="mask0_17_110" style="mask-type:alpha" maskUnits="userSpaceOnUse" x="8" y="0" width="89" height="91">
<path fill-rule="evenodd" clip-rule="evenodd" d="M71.0267 90.5032C72.4213 91.0617 74.0127 91.0263 75.4212 90.3294L93.6616 81.3012C94.601 80.8361 95.3936 80.1076 95.9482 79.1996C96.5029 78.2916 96.797 77.241 96.7969 76.1687V14.9563C96.7969 13.884 96.5027 12.8334 95.9481 11.9255C95.3935 11.0175 94.6009 10.289 93.6616 9.82379L75.4212 0.795661C74.3905 0.285821 73.2314 0.11808 72.104 0.31565C70.9766 0.51322 69.9369 1.06633 69.1285 1.89844L34.2095 34.6655L19.0009 22.7897C18.3147 22.2538 17.4677 21.982 16.607 22.0215C15.7463 22.0609 14.9261 22.4091 14.289 23.0057L9.41061 27.5704C9.03072 27.9261 8.72715 28.3593 8.5193 28.8425C8.31145 29.3257 8.2039 29.8482 8.20351 30.3766C8.20313 30.905 8.30992 31.4276 8.51706 31.9112C8.7242 32.3947 9.02714 32.8284 9.40651 33.1847L22.5971 45.5625L9.40651 57.9403C9.027 58.2966 8.72395 58.7304 8.51673 59.214C8.30951 59.6976 8.20268 60.2203 8.20307 60.7488C8.20345 61.2773 8.31105 61.7999 8.51897 62.2832C8.7269 62.7665 9.03059 63.1998 9.41061 63.5555L14.289 68.1202C14.9262 68.7164 15.7462 69.0643 16.6067 69.1036C17.4673 69.1429 18.314 68.8711 19.0001 68.3353L34.2095 56.4595L69.1277 89.2266C69.6679 89.7828 70.3146 90.2176 71.0267 90.5032ZM74.6615 24.8763L48.1671 45.5625L74.6615 66.2487V24.8763Z" fill="white"/>
</mask>
<g mask="url(#mask0_17_110)">
<path d="M97.5237 10.2342L78.0692 0.599086C76.9706 0.0550783 75.7346 -0.124214 74.5325 0.0860232C73.3304 0.29626 72.2216 0.88563 71.3594 1.77257L7.67281 61.4986C7.26812 61.8782 6.94493 62.3405 6.72393 62.8559C6.50293 63.3713 6.38899 63.9285 6.38941 64.4918C6.38982 65.0551 6.50457 65.6121 6.72632 66.1272C6.94807 66.6422 7.27194 67.104 7.67718 67.4829L12.8789 72.3477C13.5587 72.9835 14.4333 73.3544 15.3512 73.3963C16.269 73.4382 17.1722 73.1483 17.904 72.577L94.5967 12.734C97.1696 10.7261 100.865 12.6135 100.865 15.9353V15.7033C100.865 14.5606 100.551 13.4411 99.9604 12.4736C99.3693 11.5061 98.5247 10.7299 97.5237 10.2342Z" fill="#0065A9"/>
<g filter="url(#filter0_d_17_110)">
<path d="M97.5237 86.3801L78.0692 96.0143C76.9706 96.5584 75.7348 96.7379 74.5327 96.5278C73.3306 96.3177 72.2217 95.7285 71.3594 94.8417L7.67281 35.1157C7.26812 34.7361 6.94493 34.2738 6.72393 33.7584C6.50293 33.243 6.38899 32.6858 6.38941 32.1225C6.38982 31.5592 6.50457 31.0022 6.72632 30.4871C6.94807 29.9721 7.27194 29.5103 7.67718 29.1314L12.8789 24.2666C13.5587 23.6308 14.4333 23.2599 15.3512 23.218C16.269 23.1761 17.1722 23.466 17.904 24.0373L94.5967 83.8803C97.1696 85.8882 100.865 84.0008 100.865 80.679V80.911C100.865 82.0537 100.551 83.1732 99.9604 84.1407C99.3693 85.1082 98.5247 85.8844 97.5237 86.3801Z" fill="#007ACC"/>
</g>
<g filter="url(#filter1_d_17_110)">
<path d="M78.0702 96.0161C76.9712 96.5599 75.7351 96.7391 74.5329 96.5287C73.3307 96.3183 72.2217 95.7288 71.3595 94.8417C73.5364 97.0817 77.2606 95.4955 77.2606 92.3275V4.28687C77.2606 1.11892 73.5364 -0.467297 71.3595 1.77265C72.2217 0.885578 73.3306 0.295991 74.5328 0.0854421C75.735 -0.125107 76.9711 0.0537853 78.0702 0.597377L97.5211 10.219C98.5227 10.7144 99.368 11.4906 99.9596 12.4583C100.551 13.426 100.865 14.5458 100.865 15.689V80.9254C100.865 82.0685 100.551 83.1884 99.9596 84.1561C99.368 85.1238 98.5227 85.9 97.5211 86.3954L78.0702 96.0161Z" fill="#1F9CF0"/>
</g>
<path opacity="0.25" fill-rule="evenodd" clip-rule="evenodd" d="M73.344 96.2014C74.0951 96.5029 74.8986 96.6421 75.7043 96.6104C76.51 96.5786 77.3007 96.3767 78.0273 96.017L97.466 86.3954C98.467 85.8996 99.3117 85.1232 99.9028 84.1555C100.494 83.1879 100.807 82.0683 100.807 80.9255V15.689C100.808 14.5461 100.494 13.4264 99.9031 12.4587C99.3119 11.491 98.4672 10.7147 97.466 10.219L78.0273 0.597395C76.9288 0.0538324 75.6933 -0.125049 74.4916 0.0855141C73.2899 0.296077 72.1816 0.885669 71.3201 1.77267L34.1063 36.6938L17.8971 24.0373C17.1658 23.4662 16.2631 23.1765 15.3458 23.2186C14.4285 23.2606 13.5545 23.6318 12.8754 24.2675L7.67633 29.1323C7.27147 29.5113 6.94794 29.9731 6.72643 30.4881C6.50492 31.003 6.3903 31.5599 6.38988 32.123C6.38947 32.6861 6.50328 33.2431 6.72404 33.7584C6.9448 34.2737 7.26765 34.736 7.67196 35.1157L21.7297 48.3072L7.67196 61.4987C7.26751 61.8784 6.94454 62.3408 6.72369 62.8561C6.50285 63.3715 6.38899 63.9287 6.38941 64.4919C6.38982 65.0551 6.50449 65.6121 6.72608 66.1271C6.94768 66.6422 7.27133 67.104 7.67633 67.483L12.8754 72.3478C13.5545 72.9832 14.4284 73.354 15.3455 73.3959C16.2626 73.4378 17.1651 73.1481 17.8962 72.5771L34.1063 59.9206L71.3201 94.8418C71.8954 95.4345 72.5852 95.8976 73.344 96.2014ZM77.2169 26.2602L48.9815 48.3072L77.2186 70.3533V26.2611L77.2169 26.2602Z" fill="url(#paint0_linear_17_110)"/>
</g>
</g>
<defs>
<filter id="filter0_d_17_110" x="-2.49247" y="14.3321" width="112.239" height="91.163" filterUnits="userSpaceOnUse" color-interpolation-filters="sRGB">
<feFlood flood-opacity="0" result="BackgroundImageFix"/>
<feColorMatrix in="SourceAlpha" type="matrix" values="0 0 0 0 0 0 0 0 0 0 0 0 0 0 0 0 0 0 127 0" result="hardAlpha"/>
<feOffset/>
<feGaussianBlur stdDeviation="4.44094"/>
<feColorMatrix type="matrix" values="0 0 0 0 0 0 0 0 0 0 0 0 0 0 0 0 0 0 0.25 0"/>
<feBlend mode="overlay" in2="BackgroundImageFix" result="effect1_dropShadow_17_110"/>
<feBlend mode="normal" in="SourceGraphic" in2="effect1_dropShadow_17_110" result="shape"/>
</filter>
<filter id="filter1_d_17_110" x="62.4776" y="-8.8823" width="47.2694" height="114.379" filterUnits="userSpaceOnUse" color-interpolation-filters="sRGB">
<feFlood flood-opacity="0" result="BackgroundImageFix"/>
<feColorMatrix in="SourceAlpha" type="matrix" values="0 0 0 0 0 0 0 0 0 0 0 0 0 0 0 0 0 0 127 0" result="hardAlpha"/>
<feOffset/>
<feGaussianBlur stdDeviation="4.44094"/>
<feColorMatrix type="matrix" values="0 0 0 0 0 0 0 0 0 0 0 0 0 0 0 0 0 0 0.25 0"/>
<feBlend mode="overlay" in2="BackgroundImageFix" result="effect1_dropShadow_17_110"/>
<feBlend mode="normal" in="SourceGraphic" in2="effect1_dropShadow_17_110" result="shape"/>
</filter>
<linearGradient id="paint0_linear_17_110" x1="53.5984" y1="-0.000584657" x2="53.5984" y2="96.615" gradientUnits="userSpaceOnUse">
<stop stop-color="white"/>
<stop offset="1" stop-color="white" stop-opacity="0"/>
</linearGradient>
<clipPath id="clip0_17_110">
<rect width="105" height="108" fill="white"/>
</clipPath>
</defs>
</svg>
