<svg width="70" height="101" viewBox="0 0 70 101" fill="none" xmlns="http://www.w3.org/2000/svg">
<g clip-path="url(#clip0_17_122)">
<path d="M17.5 101C27.16 101 35 93.4586 35 84.1666V67.3333H17.5C7.84 67.3333 0 74.8746 0 84.1666C0 93.4586 7.84 101 17.5 101Z" fill="#0ACF83"/>
<path d="M0 50.5C0 41.208 7.84 33.6667 17.5 33.6667H35V67.3334H17.5C7.84 67.3334 0 59.792 0 50.5Z" fill="#A259FF"/>
<path d="M0 16.8333C0 7.54133 7.84 0 17.5 0H35V33.6667H17.5C7.84 33.6667 0 26.1253 0 16.8333Z" fill="#F24E1E"/>
<path d="M35 0H52.5C62.16 0 70 7.54133 70 16.8333C70 26.1253 62.16 33.6667 52.5 33.6667H35V0Z" fill="#FF7262"/>
<path d="M70 50.5C70 59.792 62.16 67.3334 52.5 67.3334C42.84 67.3334 35 59.792 35 50.5C35 41.208 42.84 33.6667 52.5 33.6667C62.16 33.6667 70 41.208 70 50.5Z" fill="#1ABCFE"/>
</g>
<defs>
<clipPath id="clip0_17_122">
<rect width="70" height="101" fill="white"/>
</clipPath>
</defs>
</svg>
