<svg width="120" height="120" viewBox="0 0 120 120" fill="none" xmlns="http://www.w3.org/2000/svg">
<path d="M32.66 97.77C31.93 97.77 31.28 97.725 30.73 97.645V100.065C31.86 100.52 32.795 100.745 33.56 100.745C36.425 100.745 39.065 98.995 41.475 95.475C44.555 90.925 47.045 83.62 48.935 73.58H44.535C43.745 79.745 42.355 85.455 40.36 90.68C40.5 89.635 40.155 87.8 39.335 85.17L35.7 73.58H31.15L36.22 89.075C36.98 91.405 37.37 92.955 37.37 93.71C37.37 94.81 36.88 95.8 35.895 96.685C35.075 97.395 34 97.77 32.66 97.77Z" fill="#105E86"/>
<path d="M97.41 66.465V93.605H110.56V90.275H101.835V66.465H97.41Z" fill="#DE8A03"/>
<path d="M5.2 71.965H5.25L12.25 93.61H15.775L22.825 71.965H22.865C23.6 78.74 24.065 85.945 24.215 93.61H28.85H28.865C28.645 85.415 27.935 76.355 26.725 66.47H21.25L14.515 86.415H14.475L7.8 66.465H2.05C0.96 74.905 0.275 83.96 0 93.605H4.225C4.36 85.675 4.685 78.455 5.2 71.965Z" fill="#105E86"/>
<path d="M93.395 79.53C93.395 70.545 89.805 66.05 82.62 66.05C79.1 66.05 76.35 67.19 74.37 69.475C72.22 71.97 71.14 75.64 71.14 80.495C71.14 85.265 72.09 88.77 74.015 90.995C75.76 93.015 78.4 94.02 81.93 94.02C83.25 94.02 84.46 93.86 85.555 93.535L92.18 97.325L93.98 94.27H93.965L88.885 91.815C89.335 91.445 89.77 91.035 90.165 90.59C92.32 88.105 93.395 84.415 93.395 79.53ZM82.38 90.655C80.155 90.655 78.53 89.835 77.49 88.2L77.5 88.175C76.375 86.41 75.815 83.56 75.815 79.655C75.815 72.82 77.935 69.395 82.165 69.395C84.38 69.395 86.015 70.215 87.05 71.85C88.17 73.625 88.73 76.445 88.73 80.305C88.73 87.195 86.61 90.655 82.38 90.655ZM66 80.37C66 80.37 62.03 78.135 60.065 77.08C57.905 75.905 56.735 74.515 56.735 72.91C56.735 71.86 57.21 71.005 57.975 70.335C58.735 69.655 59.83 69.325 61.245 69.325C62.99 69.325 64.765 69.705 66.565 70.455L67.63 68.115C65.53 66.77 63.19 66.105 60.63 66.105C58.13 66.105 56.105 66.78 54.53 68.145C52.965 69.49 52.18 71.26 52.18 73.47C52.18 76.125 53.23 77.745 55.34 79.25C55.34 79.25 59.22 81.43 61.155 82.475C63.245 83.625 64.395 85.005 64.395 86.625C64.395 87.9 63.835 88.92 62.895 89.645C61.945 90.365 60.64 90.725 58.98 90.725C57.195 90.725 55.22 90.2 53.03 89.115L51.845 91.455C54.39 93.14 56.995 93.985 59.71 93.985C62.615 93.985 64.91 93.245 66.635 91.77C68.355 90.3 69.215 88.405 69.215 86.095L69.245 86.11C69.24 83.465 68.165 81.865 66 80.37Z" fill="#DE8A03"/>
<path d="M47.545 80.04H43.455C42.675 83.78 41.64 87.33 40.36 90.68C40.5 89.635 40.155 87.8 39.335 85.17L37.725 80.045H33.265L36.22 89.08C36.98 91.41 37.37 92.96 37.37 93.715C37.37 94.815 36.88 95.805 35.895 96.69C35.075 97.405 34 97.78 32.66 97.78C31.93 97.78 31.28 97.735 30.73 97.655V100.075C31.86 100.53 32.795 100.755 33.56 100.755C36.425 100.755 39.065 99.005 41.475 95.485C43.85 91.965 45.875 86.815 47.545 80.04Z" fill="#0E5275"/>
<path d="M101.835 80.04H97.41V93.605H110.56V90.275H101.835V80.04Z" fill="#C17803"/>
<path d="M4.675 80.04H0.685C0.36 84.42 0.135 88.945 0 93.605H4.225C4.305 88.825 4.455 84.3 4.675 80.04ZM20.195 80.04H16.665L14.515 86.41H14.475L12.34 80.04H7.865L12.25 93.61H15.775L20.195 80.04ZM28.115 80.04H23.595C23.915 84.395 24.125 88.915 24.215 93.61H28.85H28.865C28.75 89.32 28.5 84.795 28.115 80.04Z" fill="#0E5275"/>
<path d="M93.39 80.04H88.73C88.73 80.13 88.73 80.22 88.73 80.31C88.73 87.2 86.61 90.655 82.38 90.655C80.155 90.655 78.53 89.835 77.49 88.2L77.5 88.175C76.41 86.465 75.855 83.75 75.815 80.04H71.14C71.14 80.19 71.135 80.34 71.135 80.495C71.135 85.265 72.085 88.77 74.01 90.995C75.755 93.015 78.395 94.02 81.925 94.02C83.245 94.02 84.455 93.86 85.55 93.535L92.175 97.325L93.975 94.27H93.96L88.88 91.815C89.33 91.445 89.765 91.035 90.16 90.59C92.245 88.195 93.32 84.67 93.39 80.04ZM65.41 80.04H56.755C58.06 80.77 59.97 81.835 61.155 82.47C63.245 83.62 64.395 85 64.395 86.62C64.395 87.895 63.835 88.915 62.895 89.64C61.945 90.36 60.64 90.72 58.98 90.72C57.195 90.72 55.22 90.195 53.03 89.11L51.845 91.45C54.39 93.135 56.995 93.98 59.71 93.98C62.615 93.98 64.91 93.24 66.635 91.765C68.355 90.295 69.215 88.4 69.215 86.09L69.245 86.105C69.245 83.465 68.17 81.87 66.005 80.375C66.005 80.375 65.775 80.245 65.41 80.04Z" fill="#C17803"/>
<path d="M82.03 28.845C81.455 28.845 81.06 28.91 80.655 29.005V29.07H80.725C80.995 29.58 81.455 29.955 81.795 30.41C82.065 30.93 82.295 31.46 82.565 31.98L82.63 31.905C83.1 31.58 83.335 31.06 83.335 30.27L82.935 29.585L82.035 28.83L82.03 28.845Z" fill="#105E86"/>
<path d="M118.475 66C117.505 64.725 116.3 63.61 115 62.69C113.93 61.97 111.59 60.97 111.15 59.765L111.085 59.695C111.815 59.63 112.685 59.37 113.385 59.175C114.52 58.875 115.56 58.945 116.735 58.655C117.265 58.525 117.8 58.36 118.33 58.195V57.895C117.73 57.31 117.28 56.51 116.66 55.96C114.96 54.515 113.075 53.105 111.14 51.925C110.09 51.265 108.76 50.845 107.655 50.285L106.355 49.66C105.755 48.945 105.405 47.995 104.98 47.14C104.02 45.335 103.08 43.335 102.245 41.425C101.645 40.14 101.28 38.865 100.545 37.68C97.095 32.1 93.36 28.72 87.615 25.41C86.38 24.725 84.9 24.43 83.335 24.07C82.5 24.03 81.665 23.97 80.835 23.935C80.285 23.705 79.755 23.08 79.285 22.78C77.385 21.605 72.465 19.05 71.065 22.43C70.165 24.56 72.4 26.66 73.18 27.745C73.755 28.495 74.48 29.355 74.88 30.195C75.115 30.77 75.18 31.35 75.415 31.945C75.945 33.39 76.45 35 77.15 36.35C77.515 37.04 77.915 37.755 78.385 38.375C78.655 38.74 79.115 38.905 79.22 39.49C78.75 40.16 78.72 41.13 78.45 41.945C77.25 45.66 77.72 50.255 79.42 52.99C79.955 53.805 81.23 55.615 82.935 54.92C84.435 54.335 84.105 52.465 84.535 50.825L84.775 49.905V49.98C85.245 50.905 85.715 51.78 86.145 52.705C87.175 54.31 88.975 55.98 90.48 57.1C91.28 57.685 91.915 58.705 92.915 59.07V58.975H92.84L92.07 58.32C91.47 57.73 90.7949 57.005 90.3199 56.36C88.9199 54.51 87.685 52.475 86.585 50.38C86.035 49.35 85.575 48.24 85.135 47.225L84.6 46.03C84.1 46.745 83.365 47.37 83 48.255C82.365 49.665 82.3 51.405 82.06 53.21L81.925 53.28C80.855 53.025 80.49 51.94 80.09 51.025C79.09 48.69 78.925 44.945 79.79 42.26C80.025 41.575 81.025 39.4 80.625 38.75C80.415 38.125 79.755 37.765 79.39 37.26C78.955 36.65 78.49 35.855 78.19 35.165C77.39 33.33 76.99 31.295 76.12 29.455C75.72 28.605 75.02 27.715 74.45 26.94C73.815 26.055 73.115 25.43 72.61 24.385L72.475 23.04L72.945 22.595L75.055 22.9C76.29 23.395 77.33 23.85 78.365 24.54C78.835 24.865 79.34 25.49 79.94 25.65H80.64C81.71 25.88 82.915 25.72 83.915 26.01C85.69 26.57 87.29 27.385 88.725 28.265C93.105 30.995 96.705 34.865 99.15 39.485C99.55 40.24 99.725 40.935 100.09 41.72C100.79 43.34 101.655 44.97 102.365 46.54C103.065 48.09 103.74 49.66 104.745 50.945C105.245 51.63 107.255 51.99 108.155 52.345C108.82 52.645 109.855 52.915 110.455 53.27C111.605 53.96 112.725 54.745 113.805 55.5C114.355 55.87 116.02 56.69 116.12 57.355C113.445 57.285 111.37 57.55 109.635 58.28C109.135 58.475 108.335 58.475 108.265 59.1L108.815 60.15C109.215 60.805 109.905 61.69 110.545 62.15C111.245 62.69 111.945 63.21 112.68 63.67C113.98 64.455 115.455 64.92 116.73 65.71C117.455 66.17 118.195 66.755 118.93 67.245C119.295 67.49 119.53 67.93 120 68.09V67.985L119.475 66.935L118.475 66Z" fill="#105E86"/>
<path d="M82.035 28.835L82.025 28.845C81.45 28.845 81.055 28.91 80.65 29.005V29.07H80.72C80.99 29.58 81.45 29.955 81.79 30.41C82.06 30.93 82.29 31.46 82.56 31.98L82.625 31.905C83.095 31.58 83.33 31.06 83.33 30.27L82.93 29.585L82.035 28.835Z" fill="#0E5275"/>
<path d="M73.725 20.74C72.58 20.74 71.59 21.18 71.07 22.425C70.17 24.555 72.405 26.655 73.185 27.74C73.76 28.49 74.485 29.35 74.885 30.19C75.12 30.765 75.185 31.345 75.42 31.94C75.95 33.385 76.455 34.995 77.155 36.345C77.52 37.035 77.92 37.75 78.39 38.37C78.66 38.735 79.12 38.9 79.225 39.485C78.755 40.155 78.725 41.125 78.455 41.94C77.255 45.655 77.725 50.25 79.425 52.985C79.875 53.675 80.855 55.07 82.175 55.07C82.42 55.07 82.675 55.025 82.94 54.915C84.44 54.33 84.11 52.46 84.54 50.82L84.78 49.9V49.975C85.25 50.9 85.72 51.775 86.15 52.7C87.18 54.305 88.98 55.975 90.485 57.095C91.285 57.68 91.92 58.7 92.92 59.065V58.97H92.845L92.075 58.315C91.475 57.725 90.8 57 90.325 56.355C88.925 54.505 87.69 52.47 86.59 50.375C86.04 49.345 85.58 48.235 85.14 47.22L84.6 46.03C84.1 46.745 83.365 47.37 83 48.255C82.365 49.665 82.3 51.405 82.06 53.21L81.925 53.28C80.855 53.025 80.49 51.94 80.09 51.025C79.09 48.69 78.925 44.945 79.79 42.26C80.025 41.575 81.025 39.4 80.625 38.75C80.415 38.125 79.755 37.765 79.39 37.26C78.955 36.65 78.49 35.855 78.19 35.165C77.39 33.33 76.99 31.295 76.12 29.455C75.72 28.605 75.02 27.715 74.45 26.94C73.815 26.055 73.115 25.43 72.61 24.385L72.475 23.04L72.945 22.595L75.055 22.9C76.29 23.395 77.33 23.85 78.365 24.54C78.835 24.865 79.34 25.49 79.94 25.65H80.64C81.71 25.88 82.915 25.72 83.915 26.01C85.69 26.57 87.29 27.385 88.725 28.265C90.3 29.25 91.78 30.38 93.135 31.64V29.125C91.505 27.81 89.69 26.605 87.615 25.41C86.38 24.725 84.9 24.43 83.335 24.07C82.5 24.03 81.665 23.97 80.835 23.935C80.285 23.705 79.755 23.08 79.285 22.78C78.09 22.035 75.685 20.74 73.725 20.74Z" fill="#0E5275"/>
</svg>
