<svg width="98" height="94" viewBox="0 0 98 94" fill="none" xmlns="http://www.w3.org/2000/svg">
<path d="M11.4729 11.1258C11.2915 6.12101 15.3562 1.5062 20.8511 1.5062H77.1551C82.65 1.5062 86.7147 6.12101 86.5333 11.1258C86.3587 15.933 86.5853 22.1605 88.2192 27.238C89.8584 32.3316 92.6223 35.5504 97.1494 35.9645V40.655C92.6223 41.0684 89.8584 44.2879 88.2192 49.3816C86.5853 54.459 86.3587 60.6865 86.5333 65.4937C86.7147 70.4985 82.65 75.1126 77.1551 75.1126H20.8511C15.3562 75.1126 11.2915 70.4978 11.4729 65.4937C11.6475 60.6865 11.4209 54.459 9.78626 49.3816C8.14782 44.2887 5.37626 41.0692 0.849121 40.655V35.9645C5.37626 35.5511 8.14782 32.3316 9.78626 27.238C11.4209 22.1605 11.6467 15.933 11.4729 11.1258Z" fill="url(#paint0_linear_17_76)"/>
<g filter="url(#filter0_d_17_76)">
<path d="M51.3811 58.1434C60.2769 58.1434 65.637 53.9655 65.637 47.0749C65.637 41.866 61.8127 38.095 56.1333 37.4979V37.2805C60.3059 36.6299 63.5798 32.9132 63.5798 28.7618C63.5798 22.8479 58.7119 18.9953 51.2938 18.9953H34.6031V58.1434H51.3811ZM41.0941 23.9604H49.7296C54.4229 23.9604 57.0896 25.9675 57.0896 29.6034C57.0896 33.4823 53.9888 35.6532 48.3676 35.6532H41.0941V23.9604ZM41.0941 53.179V40.2922H49.6714C55.814 40.2922 59.0013 42.4623 59.0013 46.6945C59.0013 50.9267 55.9013 53.179 50.0481 53.179H41.0941Z" fill="url(#paint1_linear_17_76)"/>
<path d="M51.3811 58.1434C60.2769 58.1434 65.637 53.9655 65.637 47.0749C65.637 41.866 61.8127 38.095 56.1333 37.4979V37.2805C60.3059 36.6299 63.5798 32.9132 63.5798 28.7618C63.5798 22.8479 58.7119 18.9953 51.2938 18.9953H34.6031V58.1434H51.3811ZM41.0941 23.9604H49.7296C54.4229 23.9604 57.0896 25.9675 57.0896 29.6034C57.0896 33.4823 53.9888 35.6532 48.3676 35.6532H41.0941V23.9604ZM41.0941 53.179V40.2922H49.6714C55.814 40.2922 59.0013 42.4623 59.0013 46.6945C59.0013 50.9267 55.9013 53.179 50.0481 53.179H41.0941Z" fill="white"/>
</g>
<path d="M8.72656 89.1751V76.1488H12.5907C13.7644 76.1488 14.6961 76.4242 15.3844 76.9757C16.0727 77.5265 16.4165 78.244 16.4165 79.1282C16.4165 79.8677 16.2083 80.5095 15.7918 81.0544C15.3745 81.5993 14.8003 81.9871 14.0676 82.2169V82.2537C14.9833 82.3565 15.716 82.6891 16.2649 83.2524C16.8139 83.8098 17.0887 84.5361 17.0887 85.4328C17.0887 86.5468 16.6722 87.4494 15.8392 88.1397C15.0055 88.83 13.9543 89.1751 12.6848 89.1751H8.72656ZM10.3175 77.5294V81.7352H11.9468C12.8181 81.7352 13.5033 81.5354 14.0017 81.1359C14.5001 80.7298 14.7497 80.16 14.7497 79.4278C14.7497 78.1625 13.8815 77.5294 12.1451 77.5294H10.3175ZM10.3175 83.107V87.7945H12.4766C13.4107 87.7945 14.1342 87.5823 14.6456 87.1586C15.1632 86.7348 15.422 86.1532 15.422 85.4144C15.422 83.8759 14.3294 83.107 12.1451 83.107H10.3175ZM23.6899 89.3955C22.2567 89.3955 21.1105 88.9622 20.2523 88.0963C19.4001 87.2246 18.9737 86.0709 18.9737 84.6352C18.9737 83.0732 19.4185 81.8527 20.3089 80.9744C21.1994 80.0968 22.4022 79.6576 23.9173 79.6576C25.3628 79.6576 26.4898 80.0843 27.2983 80.9384C28.1122 81.7925 28.5195 82.9763 28.5195 84.4898C28.5195 85.974 28.0808 87.1637 27.2026 88.0604C26.3321 88.9504 25.1607 89.3955 23.6899 89.3955ZM23.8033 80.9112C22.8056 80.9112 22.017 81.238 21.4359 81.8924C20.8548 82.5401 20.5647 83.436 20.5647 84.5809C20.5647 85.6832 20.8579 86.5527 21.4451 87.1879C22.0324 87.8246 22.8179 88.1426 23.8033 88.1426C24.807 88.1426 25.578 87.8305 26.1147 87.2063C26.6575 86.5828 26.9285 85.6957 26.9285 84.5449C26.9285 83.3824 26.6575 82.4857 26.1147 81.8556C25.578 81.2263 24.807 80.9112 23.8033 80.9112ZM35.0549 89.3955C33.6216 89.3955 32.4755 88.9622 31.6172 88.0963C30.7651 87.2246 30.3386 86.0709 30.3386 84.6352C30.3386 83.0732 30.7835 81.8527 31.6739 80.9744C32.5643 80.0968 33.7671 79.6576 35.2823 79.6576C36.7278 79.6576 37.8548 80.0843 38.6633 80.9384C39.4779 81.7925 39.8852 82.9763 39.8852 84.4898C39.8852 85.974 39.4465 87.1637 38.5683 88.0604C37.6971 88.9504 36.5264 89.3955 35.0549 89.3955ZM35.1682 80.9112C34.1706 80.9112 33.382 81.238 32.8009 81.8924C32.2198 82.5401 31.9296 83.436 31.9296 84.5809C31.9296 85.6832 32.2228 86.5527 32.8101 87.1879C33.3973 87.8246 34.1828 88.1426 35.1682 88.1426C36.1719 88.1426 36.9429 87.8305 37.4796 87.2063C38.0224 86.5828 38.2935 85.6957 38.2935 84.5449C38.2935 83.3824 38.0224 82.4857 37.4796 81.8556C36.9429 81.2263 36.1727 80.9112 35.1682 80.9112ZM46.8639 89.087C46.4979 89.2809 46.0148 89.3778 45.4146 89.3778C43.7164 89.3778 42.8673 88.4694 42.8673 86.6526V81.1477H41.2006V79.8758H42.8673V77.6051L44.4208 77.1233V79.8758H46.8631V81.1477H44.4208V86.3889C44.4208 87.0124 44.531 87.4582 44.7523 87.7248C44.9728 87.9913 45.3388 88.1243 45.8502 88.1243C46.2414 88.1243 46.5798 88.0214 46.8639 87.8158V89.087ZM48.3507 88.8373V87.2386C49.1967 87.8378 50.1277 88.1375 51.1445 88.1375C52.5081 88.1375 53.1902 87.702 53.1902 86.8303C53.1902 86.5813 53.1305 86.3728 53.0103 86.2031C52.8877 86.0187 52.7263 85.8609 52.5364 85.7397C52.3185 85.5953 52.0833 85.4765 51.8358 85.3858C51.5506 85.2688 51.2631 85.1567 50.9738 85.0494C50.5868 84.904 50.2076 84.7403 49.8376 84.5589C49.541 84.4068 49.267 84.2174 49.0229 83.9956C48.8123 83.789 48.6451 83.5454 48.5306 83.2781C48.4235 83.0115 48.3699 82.7002 48.3699 82.3425C48.3699 81.907 48.474 81.5222 48.6822 81.1888C48.8897 80.8504 49.1745 80.5617 49.5152 80.3443C49.8764 80.108 50.2769 79.9326 50.6997 79.8258C51.1507 79.7103 51.6156 79.6523 52.0824 79.6532C52.9223 79.6532 53.6733 79.7928 54.3364 80.0718V81.5795C53.6228 81.1308 52.8021 80.9068 51.8734 80.9068C51.5824 80.9068 51.3213 80.9399 51.0878 81.0067C50.8712 81.0601 50.6659 81.1496 50.4815 81.2711C50.3215 81.3808 50.1889 81.5233 50.0933 81.6882C50.0038 81.8505 49.9582 82.0319 49.9608 82.2155C49.9608 82.4571 50.0052 82.6598 50.0933 82.8235C50.1875 82.9873 50.323 83.1327 50.5006 83.2598C50.6767 83.3868 50.8918 83.5021 51.1445 83.6049C51.3971 83.7077 51.6843 83.8201 52.0066 83.9413C52.4353 84.0984 52.8204 84.2622 53.1619 84.4318C53.4784 84.5794 53.7717 84.7691 54.0332 84.9951C54.2728 85.2007 54.4558 85.4401 54.5821 85.7126C54.7146 85.985 54.7812 86.3089 54.7812 86.6841C54.7812 87.1446 54.674 87.5441 54.4596 87.8834C54.2506 88.2227 53.9696 88.5039 53.6159 88.7279C53.2418 88.9605 52.8287 89.1297 52.3948 89.228C51.9204 89.3389 51.4337 89.3939 50.9454 89.3918C49.9478 89.3918 49.0834 89.2067 48.3507 88.8373ZM61.6649 89.087C61.2997 89.2809 60.8166 89.3778 60.2164 89.3778C58.5182 89.3778 57.6691 88.4694 57.6691 86.6526V81.1477H56.0024V79.8758H57.6691V77.6051L59.2226 77.1233V79.8758H61.6649V81.1477H59.2226V86.3889C59.2226 87.0124 59.3328 87.4582 59.5541 87.7248C59.7746 87.9913 60.1406 88.1243 60.652 88.1243C61.0433 88.1243 61.3817 88.0214 61.6657 87.8158L61.6649 89.087ZM68.7975 81.3834C68.5257 81.1837 68.1345 81.0838 67.623 81.0838C66.96 81.0838 66.4042 81.3834 65.9563 81.9827C65.5145 82.5827 65.2932 83.4 65.2932 84.4355V89.1774H63.7405V79.8758H65.2932V81.7925H65.3315C65.5528 81.1381 65.8904 80.63 66.3444 80.2664C66.7985 79.8971 67.3068 79.712 67.8696 79.712C68.2731 79.712 68.5824 79.7546 68.7975 79.8398V81.3834ZM77.4269 89.1751H75.8734V87.7211H75.8351C75.1606 88.8359 74.1661 89.3933 72.8538 89.3933C71.8876 89.3933 71.1296 89.148 70.5799 88.6574C70.037 88.1668 69.766 87.5155 69.766 86.704C69.766 84.9657 70.8325 83.9552 72.9663 83.671L75.8742 83.2796C75.8742 81.6992 75.2081 80.909 73.8759 80.909C72.7083 80.909 71.654 81.2902 70.7131 82.0532V80.5271C71.6663 79.9463 72.765 79.6554 74.0091 79.6554C76.2884 79.6554 77.4276 80.8121 77.4276 83.1254L77.4269 89.1751ZM75.8726 84.47L73.5344 84.7784C72.8147 84.8754 72.2711 85.048 71.9052 85.2962C71.5392 85.5385 71.3562 85.9718 71.3562 86.5953C71.3562 87.0499 71.5239 87.4222 71.8585 87.713C72.1992 87.9972 72.6509 88.1389 73.2129 88.1389C73.9831 88.1389 74.6178 87.8819 75.1162 87.3679C75.6215 86.8472 75.8742 86.1899 75.8742 85.3961L75.8726 84.47ZM81.9441 87.8312H81.9058V93.4544H80.3531V79.8736H81.9065V81.5083H81.9441C82.7081 80.2731 83.826 79.6554 85.2967 79.6554C86.547 79.6554 87.5224 80.0733 88.2229 80.909C88.9235 81.7381 89.2741 82.8529 89.2741 84.2519C89.2741 85.808 88.8798 87.0557 88.0905 87.9943C87.3011 88.9269 86.2216 89.3933 84.8519 89.3933C83.5955 89.3933 82.6262 88.8733 81.9441 87.8312ZM81.9058 84.0793V85.3792C81.9058 86.1481 82.1646 86.8016 82.6829 87.3407C83.2073 87.8738 83.8696 88.1404 84.6712 88.1404C85.6122 88.1404 86.3479 87.7953 86.8785 87.1049C87.4144 86.4146 87.6824 85.4548 87.6824 84.2247C87.6824 83.1893 87.4336 82.3778 86.9352 81.7903C86.4367 81.2028 85.7607 80.909 84.9086 80.909C84.0051 80.909 83.2793 81.2116 82.7303 81.8174C82.1806 82.4174 81.9058 83.1709 81.9058 84.0793Z" fill="#7952B3"/>
<defs>
<filter id="filter0_d_17_76" x="30.6731" y="16.0483" width="38.8938" height="47.0081" filterUnits="userSpaceOnUse" color-interpolation-filters="sRGB">
<feFlood flood-opacity="0" result="BackgroundImageFix"/>
<feColorMatrix in="SourceAlpha" type="matrix" values="0 0 0 0 0 0 0 0 0 0 0 0 0 0 0 0 0 0 127 0" result="hardAlpha"/>
<feOffset dy="0.983"/>
<feGaussianBlur stdDeviation="1.965"/>
<feColorMatrix type="matrix" values="0 0 0 0 0 0 0 0 0 0 0 0 0 0 0 0 0 0 0.15 0"/>
<feBlend mode="normal" in2="BackgroundImageFix" result="effect1_dropShadow_17_76"/>
<feBlend mode="normal" in="SourceGraphic" in2="effect1_dropShadow_17_76" result="shape"/>
</filter>
<linearGradient id="paint0_linear_17_76" x1="15.1594" y1="3.45449" x2="96.5724" y2="70.8309" gradientUnits="userSpaceOnUse">
<stop stop-color="#9013FE"/>
<stop offset="1" stop-color="#6610F2"/>
</linearGradient>
<linearGradient id="paint1_linear_17_76" x1="37.5401" y1="21.5715" x2="55.2104" y2="52.7287" gradientUnits="userSpaceOnUse">
<stop stop-color="white"/>
<stop offset="1" stop-color="#F1E5FC"/>
</linearGradient>
</defs>
</svg>
