<svg width="179" height="100" viewBox="0 0 179 100" fill="none" xmlns="http://www.w3.org/2000/svg">
<g clip-path="url(#clip0_17_50)">
<path d="M88.4897 99.7114C87.8838 99.7114 87.3181 99.5643 86.7926 99.3067L81.4188 96.399C80.6105 95.9939 81.0147 95.8468 81.2573 95.7732C82.3481 95.442 82.5501 95.3681 83.6815 94.7796C83.8028 94.7057 83.9647 94.7427 84.0856 94.8162L88.2072 97.0615C88.3687 97.135 88.5708 97.135 88.6917 97.0615L104.814 88.5589C104.975 88.4853 105.057 88.3379 105.057 88.1541V71.186C105.057 71.0016 104.975 70.8548 104.814 70.7809L88.6917 62.3153C88.5302 62.2414 88.3281 62.2414 88.2072 62.3153L72.0849 70.7809C71.9234 70.8544 71.8423 71.0385 71.8423 71.1856V88.1538C71.8423 88.3013 71.9234 88.485 72.0849 88.5589L76.4893 90.8777C78.8733 91.9818 80.3682 90.6936 80.3682 89.4054V72.6579C80.3682 72.4372 80.5703 72.2162 80.8531 72.2162H82.9137C83.1564 72.2162 83.3986 72.4003 83.3986 72.6579V89.4054C83.3986 92.313 81.6611 94.0063 78.6307 94.0063C77.7014 94.0063 76.9742 94.0064 74.9133 93.086L70.6708 90.8777C69.6202 90.3258 68.9738 89.2949 68.9738 88.1907V71.2226C68.9738 70.1185 69.6202 69.0876 70.6708 68.5356L86.7926 60.0331C87.803 59.5178 89.177 59.5178 90.187 60.0331L106.309 68.5356C107.359 69.0876 108.006 70.1185 108.006 71.2226V88.1907C108.006 89.2949 107.359 90.3258 106.309 90.8777L90.187 99.3802C89.6615 99.6013 89.0553 99.7114 88.4897 99.7114ZM93.46 88.0436C86.3892 88.0436 84.9345 85.099 84.9345 82.5962C84.9345 82.3751 85.1365 82.1544 85.4194 82.1544H87.5205C87.7628 82.1544 87.9649 82.3016 87.9649 82.5226C88.2883 84.4732 89.2175 85.4302 93.5006 85.4302C96.8946 85.4302 98.3497 84.7309 98.3497 83.0745C98.3497 82.1175 97.9452 81.4185 92.6521 80.9398C88.2477 80.5347 85.5001 79.6516 85.5001 76.4493C85.5001 73.4678 88.2481 71.7009 92.8542 71.7009C98.0259 71.7009 100.572 73.3207 100.895 76.8538C100.895 76.9646 100.855 77.0748 100.774 77.1853C100.693 77.2589 100.572 77.3325 100.45 77.3325H98.3493C98.1473 77.3325 97.9452 77.1853 97.905 77.0013C97.4201 74.9771 96.1674 74.3143 92.8542 74.3143C89.1368 74.3143 88.6921 75.4923 88.6921 76.3755C88.6921 77.443 89.2175 77.7742 94.2278 78.363C99.1978 78.9522 101.542 79.7987 101.542 82.964C101.501 86.2032 98.592 88.0436 93.46 88.0436Z" fill="#539E43"/>
<path d="M38.4669 33.3478C38.4669 32.6853 38.0627 32.0592 37.4163 31.728L20.284 22.7471C20.0009 22.5997 19.6778 22.5261 19.3548 22.4892H19.1929C18.8699 22.4892 18.5465 22.5997 18.2636 22.7471L1.13139 31.728C0.484609 32.0592 0.0808105 32.685 0.0808105 33.3478L0.121365 57.4933C0.121365 57.8245 0.323439 58.1557 0.646479 58.3032C0.969867 58.4873 1.37367 58.4873 1.65685 58.3032L11.8392 53.0029C12.4857 52.6716 12.8898 52.0458 12.8898 51.3834V40.0834C12.8898 39.421 13.2936 38.7952 13.9404 38.464L18.2636 36.1818C18.587 35.9978 18.9506 35.9239 19.3142 35.9239C19.6778 35.9239 20.0414 35.9978 20.3246 36.1818L24.6479 38.464C25.2946 38.7952 25.6984 39.4207 25.6984 40.0834V51.3834C25.6984 52.0458 26.1026 52.6716 26.749 53.0029L36.9314 58.3032C37.0887 58.3934 37.2708 58.4413 37.4567 58.4413C37.6426 58.4413 37.8247 58.3934 37.982 58.3032C38.3054 58.1557 38.5074 57.8245 38.5074 57.4933L38.4669 33.3478ZM120.815 0.110498C120.492 -0.0369546 120.088 -0.0369546 119.805 0.110498C119.482 0.294574 119.279 0.588842 119.279 0.920052V24.8452C119.279 25.0659 119.158 25.2866 118.916 25.4341C118.674 25.5443 118.431 25.5443 118.189 25.4341L113.906 23.1888C113.592 23.026 113.236 22.9403 112.875 22.9403C112.514 22.9403 112.159 23.026 111.845 23.1888L94.7124 32.2067C94.066 32.5379 93.6618 33.1637 93.6618 33.8261V51.8248C93.6618 52.4872 94.066 53.1134 94.7124 53.4446L111.845 62.4624C112.159 62.6253 112.514 62.7109 112.875 62.7109C113.236 62.7109 113.592 62.6253 113.906 62.4624L131.038 53.4446C131.684 53.1134 132.088 52.4876 132.088 51.8248V6.95668C132.088 6.25731 131.684 5.63183 131.038 5.30031L120.815 0.110498ZM119.239 45.899C119.239 46.0831 119.158 46.2302 118.997 46.3038L113.138 49.3955C113.056 49.4319 112.966 49.4508 112.875 49.4508C112.784 49.4508 112.694 49.4319 112.612 49.3955L106.754 46.3038C106.592 46.2302 106.511 46.0462 106.511 45.899V39.7153C106.511 39.5312 106.592 39.3841 106.754 39.3105L112.612 36.2185C112.694 36.1821 112.784 36.1632 112.875 36.1632C112.966 36.1632 113.056 36.1821 113.138 36.2185L118.997 39.3105C119.158 39.3837 119.239 39.5681 119.239 39.7153V45.899ZM177.828 39.5681C178.475 39.2369 178.839 38.6111 178.839 37.9484V33.5685C178.839 32.906 178.434 32.2802 177.828 31.949L160.817 22.9681C160.503 22.8053 160.148 22.7196 159.787 22.7196C159.425 22.7196 159.07 22.8053 158.756 22.9681L141.624 31.9857C140.977 32.3169 140.573 32.9427 140.573 33.6051V51.6041C140.573 52.2665 140.978 52.8923 141.624 53.2236L158.635 62.0573C159.282 62.3885 160.049 62.3885 160.656 62.0573L170.959 56.8312C171.282 56.6837 171.484 56.3525 171.484 56.0213C171.484 55.6901 171.282 55.3589 170.959 55.2115L153.746 46.1936C153.423 46.0095 153.221 45.7153 153.221 45.3841V39.7525C153.221 39.4213 153.423 39.0901 153.746 38.9427L159.12 36.1452C159.277 36.055 159.459 36.0072 159.645 36.0072C159.831 36.0072 160.013 36.055 160.17 36.1452L165.545 38.9427C165.868 39.1267 166.07 39.421 166.07 39.7525V44.1694C166.07 44.5006 166.272 44.8318 166.595 44.979C166.753 45.0692 166.935 45.1171 167.12 45.1171C167.306 45.1171 167.488 45.0692 167.646 44.979L177.828 39.5681Z" fill="#333333"/>
<path d="M159.524 38.7213C159.584 38.6853 159.654 38.6661 159.726 38.6661C159.798 38.6661 159.868 38.6853 159.928 38.7213L163.201 40.4513C163.322 40.5252 163.403 40.6353 163.403 40.7825V44.2427C163.403 44.3898 163.322 44.5003 163.201 44.5739L159.928 46.3038C159.868 46.3398 159.798 46.359 159.726 46.359C159.654 46.359 159.584 46.3398 159.524 46.3038L156.251 44.5739C156.13 44.5003 156.049 44.3898 156.049 44.2427V40.7828C156.049 40.6353 156.13 40.5248 156.251 40.4516L159.524 38.7213Z" fill="#539E43"/>
<path d="M67.1149 23.0417C66.8009 22.8789 66.4458 22.7933 66.0846 22.7933C65.7233 22.7933 65.3682 22.8789 65.0543 23.0417L48.0433 31.9854C47.3966 32.3166 47.033 32.9424 47.033 33.6048V51.5303C47.033 52.1927 47.4371 52.8185 48.0433 53.1497L65.0543 62.094C65.3682 62.2568 65.7233 62.3424 66.0846 62.3424C66.4458 62.3424 66.8009 62.2568 67.1149 62.094L84.1262 53.1497C84.7726 52.8185 85.1365 52.1927 85.1365 51.5303V33.6051C85.1365 32.9427 84.732 32.3169 84.1262 31.9857L67.1149 23.0417Z" fill="url(#paint0_linear_17_50)"/>
<mask id="mask0_17_50" style="mask-type:luminance" maskUnits="userSpaceOnUse" x="47" y="22" width="39" height="41">
<path d="M67.1149 23.0417C66.8009 22.8789 66.4458 22.7933 66.0846 22.7933C65.7233 22.7933 65.3682 22.8789 65.0543 23.0417L48.0433 31.9854C47.3966 32.3166 47.033 32.9424 47.033 33.6048V51.5303C47.033 52.1927 47.4371 52.8185 48.0433 53.1497L65.0543 62.094C65.3682 62.2568 65.7233 62.3424 66.0846 62.3424C66.4458 62.3424 66.8009 62.2568 67.1149 62.094L84.1262 53.1497C84.7726 52.8185 85.1365 52.1927 85.1365 51.5303V33.6051C85.1365 32.9427 84.732 32.3169 84.1262 31.9857L67.1149 23.0417Z" fill="white"/>
</mask>
<g mask="url(#mask0_17_50)">
<path d="M84.1664 31.9857L67.0747 23.0417C66.9068 22.9645 66.7307 22.9028 66.5493 22.8576L47.3966 52.7455C47.5553 52.922 47.7469 53.0715 47.9626 53.1873L65.0543 62.1315C65.5392 62.3892 66.1049 62.4627 66.63 62.3153L84.6111 32.3541C84.4898 32.207 84.3279 32.0959 84.1664 31.9857Z" fill="url(#paint1_linear_17_50)"/>
</g>
<mask id="mask1_17_50" style="mask-type:luminance" maskUnits="userSpaceOnUse" x="47" y="22" width="39" height="41">
<path d="M67.1149 23.0417C66.8009 22.8789 66.4458 22.7933 66.0846 22.7933C65.7233 22.7933 65.3682 22.8789 65.0543 23.0417L48.0433 31.9854C47.3966 32.3166 47.033 32.9424 47.033 33.6048V51.5303C47.033 52.1927 47.4371 52.8185 48.0433 53.1497L65.0543 62.094C65.3682 62.2568 65.7233 62.3424 66.0846 62.3424C66.4458 62.3424 66.8009 62.2568 67.1149 62.094L84.1262 53.1497C84.7726 52.8185 85.1365 52.1927 85.1365 51.5303V33.6051C85.1365 32.9427 84.732 32.3169 84.1262 31.9857L67.1149 23.0417Z" fill="white"/>
</mask>
<g mask="url(#mask1_17_50)">
<path fill-rule="evenodd" clip-rule="evenodd" d="M84.2069 53.15C84.6918 52.8924 85.0554 52.4506 85.2173 51.9723L66.4681 22.8207C65.9832 22.7471 65.4577 22.7838 65.0137 23.0414L48.043 31.949L66.3468 62.3519C66.613 62.3122 66.8715 62.2379 67.1145 62.1312L84.2069 53.15Z" fill="url(#paint2_linear_17_50)"/>
<path fill-rule="evenodd" clip-rule="evenodd" d="M84.2069 53.15L67.1554 62.0942C66.9147 62.2061 66.6553 62.2807 66.3877 62.315L66.7111 62.8672L85.6211 52.8927V52.6716L85.1362 51.9353C85.0554 52.4506 84.6918 52.8923 84.2069 53.15Z" fill="url(#paint3_linear_17_50)"/>
<path fill-rule="evenodd" clip-rule="evenodd" d="M84.2069 53.15L67.1554 62.0942C66.9147 62.2061 66.6553 62.2807 66.3877 62.315L66.7111 62.8672L85.6211 52.8927V52.6716L85.1362 51.9353C85.0554 52.4506 84.6918 52.8923 84.2069 53.15Z" fill="url(#paint4_linear_17_50)"/>
</g>
</g>
<defs>
<linearGradient id="paint0_linear_17_50" x1="2645.24" y1="714.388" x2="1018.19" y2="3520.93" gradientUnits="userSpaceOnUse">
<stop stop-color="#41873F"/>
<stop offset="0.3288" stop-color="#418B3D"/>
<stop offset="0.6352" stop-color="#419637"/>
<stop offset="0.9319" stop-color="#3FA92D"/>
<stop offset="1" stop-color="#3FAE2A"/>
</linearGradient>
<linearGradient id="paint1_linear_17_50" x1="1657.93" y1="2203.85" x2="6119.1" y2="-456.909" gradientUnits="userSpaceOnUse">
<stop offset="0.1376" stop-color="#41873F"/>
<stop offset="0.4032" stop-color="#54A044"/>
<stop offset="0.7136" stop-color="#66B848"/>
<stop offset="0.9081" stop-color="#6CC04A"/>
</linearGradient>
<linearGradient id="paint2_linear_17_50" x1="-115.115" y1="2000.9" x2="3821.2" y2="2000.9" gradientUnits="userSpaceOnUse">
<stop offset="0.09192" stop-color="#6CC04A"/>
<stop offset="0.2864" stop-color="#66B848"/>
<stop offset="0.5968" stop-color="#54A044"/>
<stop offset="0.8624" stop-color="#41873F"/>
</linearGradient>
<linearGradient id="paint3_linear_17_50" x1="-1931.21" y1="601.534" x2="2005.06" y2="601.534" gradientUnits="userSpaceOnUse">
<stop offset="0.09192" stop-color="#6CC04A"/>
<stop offset="0.2864" stop-color="#66B848"/>
<stop offset="0.5968" stop-color="#54A044"/>
<stop offset="0.8624" stop-color="#41873F"/>
</linearGradient>
<linearGradient id="paint4_linear_17_50" x1="2578.52" y1="-2255.44" x2="1746.05" y2="2533.16" gradientUnits="userSpaceOnUse">
<stop stop-color="#41873F"/>
<stop offset="0.3288" stop-color="#418B3D"/>
<stop offset="0.6352" stop-color="#419637"/>
<stop offset="0.9319" stop-color="#3FA92D"/>
<stop offset="1" stop-color="#3FAE2A"/>
</linearGradient>
<clipPath id="clip0_17_50">
<rect width="179" height="100" fill="white"/>
</clipPath>
</defs>
</svg>
