<svg width="128" height="128" viewBox="0 0 128 128" fill="none" xmlns="http://www.w3.org/2000/svg">
<path d="M98.18 88.13C113.81 72.51 116.41 49.77 103.98 37.35C91.55 24.93 68.8099 27.53 53.1799 43.15C37.5499 58.77 42.07 88.63 47.38 93.93C51.67 98.22 82.5499 103.75 98.18 88.13Z" fill="#F89939"/>
<path d="M34.04 65.56C24.97 56.5 11.7699 54.99 4.55995 62.19C-2.65005 69.4 -1.14005 82.59 7.92995 91.65C16.9999 100.72 34.3299 98.09 37.41 95.02C39.9 92.53 43.1199 74.62 34.04 65.56Z" fill="#3499CD"/>
<path d="M123.82 85.68C123.24 85.68 122.95 85.33 122.95 84.62C122.95 84.09 123.3 82.93 123.99 81.16C125 78.57 125.51 76.71 125.51 75.58C125.51 74.9 125.31 74.33 124.91 73.88C124.51 73.43 124.01 73.2 123.41 73.2C122.53 73.2 121.52 73.61 120.38 74.44C119.24 75.27 117.71 76.76 115.78 78.92C116.06 77.52 116.66 75.6 117.56 73.16L113.25 73.99C112.27 76.11 111.56 78.02 111.12 79.72C110.9 80.55 110.74 81.41 110.63 82.28C109.28 83.59 108.4 84.38 108.02 84.67C107.63 84.96 107.22 85.1 106.8 85.1C106.41 85.1 106.1 84.95 105.87 84.66C105.64 84.37 105.53 83.97 105.53 83.48C105.53 82.95 105.63 82.34 105.83 81.65C106.03 80.96 106.47 79.66 107.16 77.75L108.8 73.23L107.19 73.3C105.73 76.08 104.02 77.58 102.06 77.79C102.59 76.41 102.86 75.35 102.86 74.61C102.86 73.67 102.4 73.2 101.48 73.2C100.39 73.2 99.54 73.71 98.93 74.74C98.31 75.77 98 76.74 98 77.65C98 78.56 98.5099 79.2 99.5199 79.65C98.8599 80.62 98.1199 81.53 97.32 82.39C96.3699 83.33 95.6299 84.05 95.0899 84.52C94.5399 85.01 94.0299 85.25 93.57 85.25C92.8499 85.25 92.4899 84.74 92.4899 83.73C92.4899 82.72 92.89 80.98 93.69 78.38L95.25 73.2H94.26L90.65 75.2C90.06 73.85 89.0299 73.17 87.5599 73.17C86.3899 73.17 85.0499 73.67 83.5299 74.66C82.0099 75.65 80.76 76.94 79.79 78.55C79.04 79.79 78.58 81.09 78.41 82.43C77.05 83.79 76.0299 84.67 75.3499 85.08C74.6399 85.5 73.9 85.71 73.12 85.71C71.13 85.71 69.9 84.56 69.43 82.26C74.62 80.74 77.2099 78.76 77.2099 76.32C77.2099 75.4 76.88 74.66 76.22 74.09C75.56 73.52 74.6799 73.24 73.5899 73.24C71.4799 73.24 69.56 74.25 67.83 76.27C66.26 78.1 65.41 80.13 65.26 82.36C63.83 83.77 62.7499 84.7 62.0499 85.15C61.3299 85.61 60.65 85.84 60.02 85.84C59.39 85.84 58.89 85.54 58.52 84.94C58.14 84.34 57.95 83.53 57.95 82.5C57.95 82.04 58 81.2 58.09 79.97C60.45 77.41 62.18 75.01 63.29 72.76C64.4 70.51 64.9499 68.18 64.9499 65.78C64.9499 64.93 64.84 64.26 64.62 63.76C64.4 63.26 64.1199 63.01 63.7799 63.01C63.7099 63.01 63.5999 63.03 63.4599 63.08L58.97 64.74C57.44 67.66 56.13 70.85 55.06 74.32C53.99 77.78 53.45 80.75 53.45 83.22C53.45 84.87 53.83 86.18 54.61 87.16C55.38 88.14 56.4 88.63 57.66 88.63C58.76 88.63 59.9099 88.28 61.1199 87.58C62.3299 86.88 63.7299 85.79 65.3399 84.32C66.9499 82.85 65.3399 84.3 65.3399 84.3C65.5299 85.41 65.9899 86.34 66.7099 87.1C67.6999 88.12 68.9899 88.64 70.5899 88.64C72.0299 88.64 73.3399 88.29 74.5299 87.59C75.6799 86.92 76.97 85.87 78.41 84.48C78.53 85.52 78.87 86.42 79.44 87.19C80.17 88.16 81.05 88.65 82.08 88.65C83.11 88.65 84.1699 88.25 85.1699 87.45C86.1699 86.65 87.25 85.4 88.43 83.72C88.32 87.01 89.1999 88.65 91.0599 88.65C91.7999 88.65 92.5799 88.38 93.3899 87.84C94.2 87.3 95.55 86.13 97.44 84.34C99.08 82.72 100.28 81.2 101.05 79.78C102.09 79.6 103.04 79.29 103.91 78.84C102.13 81.63 101.24 83.86 101.24 85.52C101.24 86.42 101.49 87.17 101.98 87.77C102.47 88.37 103.08 88.68 103.8 88.68C105.37 88.68 107.6 87.27 110.48 84.48C110.48 84.7 110.46 84.91 110.46 85.13C110.46 85.91 110.53 87.09 110.65 88.68L114.56 87.76C114.56 86.7 114.58 85.86 114.61 85.23C114.67 84.39 114.79 83.47 114.96 82.47C115.07 81.88 115.34 81.32 115.77 80.79L116.76 79.64C117.12 79.22 117.47 78.84 117.78 78.51C118.15 78.12 118.48 77.79 118.77 77.52C119.1 77.23 119.39 76.99 119.64 76.83C119.91 76.67 120.13 76.58 120.29 76.58C120.58 76.58 120.73 76.77 120.73 77.15C120.73 77.53 120.45 78.41 119.9 79.8C118.86 82.39 118.34 84.32 118.34 85.58C118.34 86.51 118.58 87.25 119.07 87.81C119.55 88.36 120.19 88.64 120.98 88.64C122.92 88.64 125.26 87.2 127.98 84.33V82.3C126.05 84.57 124.66 85.71 123.8 85.71L123.82 85.68ZM58.56 77.39C59.36 73.48 60.1799 70.45 61.0099 68.28C61.8399 66.11 62.4799 65.02 62.91 65.02C63.11 65.02 63.28 65.15 63.41 65.42C63.54 65.68 63.5999 66.04 63.5999 66.47C63.5999 67.96 63.14 69.73 62.2 71.8C61.27 73.86 60.05 75.73 58.56 77.39ZM70.3499 76.41C71.0599 75.22 71.8 74.63 72.58 74.63C73.4 74.63 73.82 75.2 73.82 76.33C73.82 78.62 72.31 80.18 69.29 81.03C69.29 79.13 69.6399 77.59 70.3499 76.41ZM87.83 82.26C86.79 84.27 85.6699 85.27 84.5 85.27C84.02 85.27 83.6199 85.07 83.3099 84.68C82.9999 84.29 82.8399 83.77 82.8399 83.13C82.8399 81.45 83.3699 79.6 84.4199 77.6C85.4699 75.6 86.5899 74.6 87.7699 74.6C88.2599 74.6 88.6599 74.78 88.9499 75.16C89.2399 75.53 89.3899 76.05 89.3899 76.71C89.3899 78.41 88.87 80.26 87.83 82.27V82.26Z" fill="#010101"/>
<path d="M75.46 64.88C75.61 65.09 75.68 65.36 75.68 65.68C75.68 66 75.59 66.29 75.41 66.56C75.23 66.83 74.97 67.05 74.62 67.2C74.28 67.35 73.89 67.43 73.46 67.43C72.74 67.43 72.2 67.28 71.82 66.98C71.44 66.68 71.2 66.24 71.1 65.65L72.03 65.5C72.08 65.87 72.23 66.16 72.46 66.35C72.7 66.55 73.03 66.65 73.46 66.65C73.89 66.65 74.21 66.56 74.42 66.39C74.63 66.22 74.73 66.01 74.73 65.77C74.73 65.56 74.64 65.39 74.45 65.27C74.32 65.19 74 65.08 73.49 64.95C72.8 64.78 72.33 64.63 72.06 64.5C71.79 64.37 71.59 64.2 71.46 63.97C71.33 63.74 71.25 63.5 71.25 63.23C71.25 62.98 71.31 62.76 71.42 62.55C71.53 62.34 71.69 62.17 71.88 62.03C72.03 61.92 72.22 61.83 72.47 61.76C72.72 61.69 72.99 61.65 73.28 61.65C73.71 61.65 74.09 61.71 74.42 61.84C74.75 61.96 74.99 62.13 75.15 62.35C75.31 62.56 75.41 62.85 75.47 63.21L74.55 63.33C74.51 63.05 74.39 62.82 74.19 62.66C73.99 62.5 73.71 62.42 73.34 62.42C72.91 62.42 72.6 62.49 72.42 62.63C72.24 62.77 72.14 62.94 72.14 63.13C72.14 63.25 72.18 63.36 72.25 63.46C72.33 63.56 72.45 63.64 72.61 63.71C72.7 63.74 72.98 63.82 73.44 63.95C74.1 64.13 74.56 64.27 74.83 64.38C75.09 64.49 75.3 64.66 75.45 64.87L75.46 64.88ZM79.93 66.32C79.68 66.55 79.38 66.66 79.01 66.66C78.55 66.66 78.18 66.49 77.9 66.16C77.62 65.83 77.47 65.28 77.47 64.54C77.47 63.8 77.62 63.27 77.91 62.94C78.2 62.61 78.59 62.43 79.06 62.43C79.37 62.43 79.64 62.52 79.86 62.71C80.08 62.9 80.23 63.18 80.32 63.55L81.23 63.41C81.12 62.85 80.88 62.42 80.5 62.12C80.12 61.82 79.63 61.67 79.03 61.67C78.55 61.67 78.12 61.78 77.71 62.01C77.31 62.23 77 62.57 76.81 63.02C76.61 63.47 76.51 63.99 76.51 64.59C76.51 65.51 76.74 66.22 77.2 66.71C77.66 67.2 78.27 67.45 79.02 67.45C79.62 67.45 80.13 67.27 80.55 66.91C80.96 66.55 81.22 66.05 81.32 65.42L80.4 65.3C80.33 65.77 80.18 66.11 79.93 66.34V66.32ZM82.12 67.3H83.06V61.78H82.12V67.3ZM82.12 60.75H83.06V59.67H82.12V60.75ZM88.85 61.77H87.64L85.42 64.02V59.67H84.48V67.29H85.42V65.1L86.08 64.47L87.91 67.29H89.07L86.74 63.82L88.85 61.77ZM89.81 60.75H90.75V59.67H89.81V60.75ZM89.81 67.3H90.75V61.78H89.81V67.3ZM94.22 66.46C94.05 66.48 93.91 66.5 93.81 66.5C93.67 66.5 93.56 66.48 93.49 66.43C93.42 66.38 93.36 66.32 93.33 66.25C93.3 66.17 93.28 66 93.28 65.74V62.51H94.22V61.78H93.28V59.85L92.35 60.41V61.78H91.66V62.51H92.35V65.69C92.35 66.25 92.39 66.62 92.46 66.79C92.54 66.97 92.67 67.11 92.85 67.21C93.04 67.32 93.3 67.37 93.64 67.37C93.85 67.37 94.08 67.34 94.35 67.29L94.21 66.46H94.22Z" fill="white"/>
</svg>
