<svg width="256" height="30" viewBox="0 0 256 30" fill="none" xmlns="http://www.w3.org/2000/svg">
<g clip-path="url(#clip0_17_73)">
<path d="M26.4335 0C19.3845 0 14.9785 3.30422 13.2165 9.91266C15.86 6.60797 18.944 5.36906 22.4685 6.19547C24.479 6.66656 25.9165 8.03438 27.5075 9.54844C30.099 12.0141 33.0985 14.8687 39.65 14.8687C46.699 14.8687 51.1045 11.5645 52.8665 4.95609C50.2235 8.26078 47.1395 9.49969 43.615 8.67328C41.604 8.20219 40.167 6.83438 38.576 5.32031C35.984 2.85469 32.985 0 26.4335 0ZM13.2165 14.8687C6.168 14.8687 1.762 18.173 0 24.7814C2.6435 21.4767 5.727 20.2378 9.2515 21.0642C11.2625 21.5353 12.7 22.9031 14.2905 24.4167C16.8825 26.8833 19.882 29.737 26.4335 29.737C33.482 29.737 37.8875 26.4333 39.65 19.8248C37.0065 23.1295 33.9225 24.3684 30.3985 23.542C28.3875 23.0709 26.95 21.7031 25.359 20.1891C22.7675 17.7234 19.768 14.8687 13.2165 14.8687Z" fill="url(#paint0_linear_17_73)"/>
<path d="M79.2961 12.5297H74.6831V20.9006C74.6831 23.1328 76.2456 23.0981 79.2961 22.9584V26.3414C73.1206 27.0389 70.6651 25.4349 70.6651 20.9006V12.5302H67.2426V8.90298H70.6651V4.21829L74.6831 3.10266V8.90298H79.2961V12.5297ZM96.8811 8.90298H100.899V26.3414H96.8811V23.8303C95.4676 25.6791 93.2726 26.7952 90.3711 26.7952C85.3111 26.7952 81.1071 22.7841 81.1071 17.6222C81.1071 12.4256 85.3111 8.44969 90.3706 8.44969C93.2726 8.44969 95.4676 9.56532 96.8811 11.3794V8.90298ZM91.0031 23.2027C94.3511 23.2027 96.8811 20.8659 96.8811 17.6222C96.8811 14.3784 94.3511 12.0417 91.0031 12.0417C87.6551 12.0417 85.1251 14.3784 85.1251 17.6222C85.1251 20.8659 87.6551 23.2027 91.0031 23.2027ZM107.596 6.28688C106.182 6.28688 105.029 5.17126 105.029 3.88079C105.03 3.24291 105.301 2.63151 105.782 2.18046C106.263 1.72941 106.915 1.47546 107.596 1.47422C108.276 1.47546 108.928 1.72941 109.409 2.18046C109.89 2.63151 110.161 3.24291 110.163 3.88079C110.163 5.17126 109.009 6.28688 107.596 6.28688ZM105.587 26.3414V8.90298H109.604V26.3414H105.587ZM114.255 26.3414V0.881256H118.273V26.3414H114.255ZM144.352 8.90298H148.593L142.752 26.3414H138.808L134.939 14.588L131.033 26.3414H127.09L121.249 8.90298H125.49L129.099 20.9358L133.005 8.90298H136.837L140.706 20.9358L144.352 8.90298ZM153.578 6.28735C152.164 6.28735 151.011 5.17126 151.011 3.88079C151.012 3.24291 151.283 2.63151 151.764 2.18046C152.245 1.72941 152.897 1.47546 153.578 1.47422C154.258 1.47546 154.91 1.72941 155.391 2.18046C155.872 2.63151 156.143 3.24291 156.145 3.88079C156.145 5.17126 154.991 6.28688 153.578 6.28688M151.569 26.3409V8.90298H155.587V26.3414L151.569 26.3409ZM170.021 8.44876C174.188 8.44876 177.164 11.0995 177.164 15.6338V26.3409H173.146V16.0177C173.146 13.3674 171.509 11.9724 168.98 11.9724C166.338 11.9724 164.255 13.4367 164.255 16.9945V26.3414H160.237V8.90298H164.255V11.1352C165.483 9.3211 167.491 8.44876 170.021 8.44876ZM196.212 1.92751H200.23V26.3414H196.212V23.8303C194.798 25.6791 192.603 26.7952 189.702 26.7952C184.642 26.7952 180.438 22.7841 180.438 17.6222C180.438 12.4256 184.642 8.44969 189.701 8.44969C192.603 8.44969 194.798 9.56532 196.212 11.3794V1.92751ZM190.334 23.2027C193.682 23.2027 196.212 20.8659 196.212 17.6222C196.212 14.3784 193.682 12.0417 190.334 12.0417C186.986 12.0417 184.456 14.3784 184.456 17.6222C184.456 20.8659 186.986 23.2027 190.334 23.2027ZM213.697 26.7952C208.079 26.7952 203.875 22.7841 203.875 17.6222C203.875 12.4256 208.079 8.44969 213.697 8.44969C217.343 8.44969 220.505 10.2281 221.993 12.9488L218.533 14.8322C217.715 13.193 215.892 12.1463 213.66 12.1463C210.386 12.1463 207.893 14.4834 207.893 17.6222C207.893 20.7609 210.386 23.0981 213.66 23.0981C215.892 23.0981 217.715 22.0167 218.608 20.4122L222.068 22.2609C220.505 25.0163 217.343 26.7952 213.697 26.7952ZM228.689 13.7161C228.689 16.8895 238.697 14.9714 238.697 21.4238C238.697 24.9113 235.46 26.7952 231.442 26.7952C227.722 26.7952 225.044 25.2253 223.853 22.7142L227.313 20.8308C227.908 22.4006 229.396 23.3419 231.442 23.3419C233.228 23.3419 234.605 22.7841 234.605 21.3891C234.605 18.285 224.597 20.0288 224.597 13.7859C224.597 10.507 227.611 8.44969 231.405 8.44969C234.456 8.44969 236.985 9.77485 238.288 12.0769L234.903 13.8553C234.233 12.4955 232.931 11.8678 231.405 11.8678C229.954 11.8678 228.689 12.4603 228.689 13.7161ZM245.84 13.7161C245.84 16.8895 255.847 14.9714 255.847 21.4238C255.847 24.9113 252.611 26.7952 248.593 26.7952C244.873 26.7952 242.194 25.2253 241.003 22.7142L244.463 20.8308C245.058 22.4006 246.547 23.3419 248.593 23.3419C250.378 23.3419 251.755 22.7841 251.755 21.3891C251.755 18.285 241.748 20.0288 241.748 13.7859C241.748 10.507 244.761 8.44969 248.556 8.44969C251.606 8.44969 254.136 9.77485 255.438 12.0769L252.053 13.8553C251.383 12.4955 250.081 11.8678 248.556 11.8678C247.105 11.8678 245.84 12.4603 245.84 13.7161Z" fill="#2D3748"/>
</g>
<defs>
<linearGradient id="paint0_linear_17_73" x1="-146.863" y1="951.585" x2="4267.25" y2="3666.39" gradientUnits="userSpaceOnUse">
<stop stop-color="#2298BD"/>
<stop offset="1" stop-color="#0ED7B5"/>
</linearGradient>
<clipPath id="clip0_17_73">
<rect width="256" height="30" fill="white"/>
</clipPath>
</defs>
</svg>
