<svg width="43" height="44" viewBox="0 0 43 44" fill="none" xmlns="http://www.w3.org/2000/svg">
<path d="M1.95455 0C1.43618 5.07279e-05 0.939067 0.201619 0.57253 0.560373C0.205993 0.919128 5.18284e-05 1.40569 0 1.91304V32.5217C5.18284e-05 33.0291 0.205993 33.5157 0.57253 33.8744C0.939067 34.2332 1.43618 34.4347 1.95455 34.4348H15.6325V38.2609H7.48606C6.98961 38.2609 6.51154 38.4474 6.14995 38.7802L2.26376 42.3485C1.61681 42.9396 2.05023 44 2.93564 44H40.0644C40.9498 44 41.3832 42.9378 40.7362 42.3448L36.8501 38.7765C36.4865 38.4455 36.0104 38.2609 35.5139 38.2609H27.3598V34.4348H41.0455C41.5638 34.4347 42.0609 34.2332 42.4275 33.8744C42.794 33.5157 43 33.0291 43 32.5217V1.91304C43 1.40569 42.794 0.919128 42.4275 0.560373C42.0609 0.201619 41.5638 5.07279e-05 41.0455 0H1.95455ZM3.90909 3.82609H39.0909V30.6087H3.90909V3.82609ZM15.5982 9.54654C15.0904 9.56134 14.6084 9.76906 14.2544 10.1257L8.3908 15.8648C8.02439 16.2236 7.81856 16.7101 7.81856 17.2174C7.81856 17.7247 8.02439 18.2112 8.3908 18.57L14.2544 24.3091C14.4345 24.4927 14.6503 24.6393 14.889 24.7403C15.1277 24.8413 15.3846 24.8946 15.6446 24.8972C15.9046 24.8998 16.1626 24.8516 16.4033 24.7554C16.6441 24.6592 16.8628 24.5169 17.0467 24.3369C17.2306 24.1569 17.3759 23.9429 17.4742 23.7072C17.5725 23.4716 17.6218 23.2191 17.6191 22.9646C17.6165 22.7101 17.562 22.4586 17.4588 22.225C17.3556 21.9914 17.2059 21.7802 17.0183 21.6039L12.5366 17.2174L17.0183 12.8308C17.3007 12.5621 17.4936 12.2162 17.5717 11.8383C17.6498 11.4604 17.6095 11.0683 17.456 10.7133C17.3025 10.3582 17.0429 10.0569 16.7114 9.84868C16.3799 9.64049 15.9919 9.53517 15.5982 9.54654ZM27.3445 9.54654C26.9557 9.54664 26.5758 9.66023 26.2532 9.8728C25.9307 10.0854 25.6803 10.3872 25.534 10.7398C25.3877 11.0924 25.3521 11.4797 25.4319 11.8522C25.5116 12.2247 25.7031 12.5654 25.9817 12.8308L30.4634 17.2174L25.9817 21.6039C25.7941 21.7802 25.6444 21.9914 25.5412 22.225C25.438 22.4586 25.3835 22.7101 25.3809 22.9646C25.3782 23.2191 25.4275 23.4716 25.5258 23.7072C25.6241 23.9429 25.7694 24.1569 25.9533 24.3369C26.1372 24.5169 26.3559 24.6592 26.5967 24.7554C26.8374 24.8516 27.0954 24.8998 27.3554 24.8972C27.6154 24.8946 27.8723 24.8413 28.111 24.7403C28.3497 24.6393 28.5655 24.4927 28.7456 24.3091L34.6092 18.57C34.9756 18.2112 35.1814 17.7247 35.1814 17.2174C35.1814 16.7101 34.9756 16.2236 34.6092 15.8648L28.7456 10.1257C28.5634 9.94242 28.3456 9.79675 28.105 9.69728C27.8643 9.59781 27.6058 9.54655 27.3445 9.54654Z" fill="#008000"/>
</svg>
