<svg width="33" height="38" viewBox="0 0 33 38" fill="none" xmlns="http://www.w3.org/2000/svg">
<path d="M33 10.6875C33 7.40703 29.9234 4.75 26.125 4.75C22.3266 4.75 19.25 7.40703 19.25 10.6875C19.25 13.3891 21.3383 15.6676 24.1914 16.3875C24.1398 17.5824 23.8305 18.5027 23.2461 19.1262C21.9227 20.5512 19.0094 20.7887 15.9242 21.0336C13.5008 21.2266 10.9914 21.4344 8.9375 22.2879V11.6004C11.7305 10.8434 13.75 8.59453 13.75 5.9375C13.75 2.65703 10.6734 0 6.875 0C3.07656 0 0 2.65703 0 5.9375C0 8.59453 2.01953 10.8434 4.8125 11.6004V26.3922C2.01953 27.1566 0 29.4055 0 32.0625C0 35.343 3.07656 38 6.875 38C10.6734 38 13.75 35.343 13.75 32.0625C13.75 29.5391 11.9281 27.3793 9.35 26.5258C9.61641 26.1398 10.0203 25.7984 10.6305 25.5312C12.0227 24.9227 14.1023 24.7594 16.3109 24.5813C19.9375 24.2918 24.0453 23.9578 26.4688 21.3602C27.6719 20.0687 28.282 18.4062 28.325 16.3207C31.0406 15.5191 33 13.3 33 10.6875ZM6.875 4.75C7.63125 4.75 8.25 5.28438 8.25 5.9375C8.25 6.59062 7.63125 7.125 6.875 7.125C6.11875 7.125 5.5 6.59062 5.5 5.9375C5.5 5.28438 6.11875 4.75 6.875 4.75ZM6.875 33.25C6.11875 33.25 5.5 32.7156 5.5 32.0625C5.5 31.4094 6.11875 30.875 6.875 30.875C7.63125 30.875 8.25 31.4094 8.25 32.0625C8.25 32.7156 7.63125 33.25 6.875 33.25ZM26.125 9.5C26.8813 9.5 27.5 10.0344 27.5 10.6875C27.5 11.3406 26.8813 11.875 26.125 11.875C25.3687 11.875 24.75 11.3406 24.75 10.6875C24.75 10.0344 25.3687 9.5 26.125 9.5Z" fill="#0665F5"/>
</svg>
