<svg width="46" height="46" viewBox="0 0 46 46" fill="none" xmlns="http://www.w3.org/2000/svg">
<circle cx="22.5" cy="22.5" r="22.5" fill="#F9F6F0"/>
<path d="M22.6244 45.2506C34.98 45.2506 45.2497 34.9809 45.2497 22.6253C45.2497 10.2479 34.9573 0 22.6017 0C10.2252 0 0 10.2479 0 22.6253C0 34.9809 10.247 45.2506 22.6244 45.2506ZM32.4739 12.3111C35.2242 15.0387 34.9809 18.4109 31.8085 21.5606L27.9935 25.3984C28.3039 24.3336 28.2821 23.091 27.9272 22.2486L30.1674 20.0075C32.3414 17.878 32.5846 15.6378 30.8545 13.9295C29.1472 12.2449 26.906 12.5099 24.7766 14.6394L21.6051 17.7673C19.4094 19.9857 19.1207 22.2486 20.8508 23.9342C21.3609 24.4661 22.1152 24.7993 23.091 24.9762C22.7578 25.6861 22.0707 26.5076 21.4271 26.9505C20.7618 26.8398 19.9185 26.3069 19.2087 25.5753C16.4584 22.8468 16.7471 19.4311 19.963 16.1924L23.2017 12.9765C26.3741 9.80405 29.7453 9.58259 32.4739 12.3111ZM11.9771 32.807C9.22673 30.0784 9.46996 26.7063 12.6651 23.5566L16.4792 19.7198C16.148 20.7845 16.1697 22.0262 16.5246 22.8695L14.2835 25.1097C12.1096 27.2174 11.8663 29.4794 13.5964 31.1877C15.3047 32.8733 17.5667 32.6073 19.6744 30.4778L22.8458 27.3499C25.0416 25.1315 25.3302 22.8695 23.6001 21.1839C23.09 20.6511 22.3357 20.3179 21.3599 20.1409C21.6921 19.4311 22.3802 18.6106 23.0238 18.1667C23.6891 18.2774 24.5314 18.8103 25.264 19.5419C27.9925 22.2704 27.7039 25.6643 24.4879 28.902L21.2492 32.1417C18.0768 35.3131 14.7056 35.5356 11.9771 32.807Z" fill="#6F5B3E"/>
</svg>
