<svg width="42" height="42" viewBox="0 0 42 42" fill="none" xmlns="http://www.w3.org/2000/svg">
<path d="M21 0C9.40275 0 0 9.54998 0 21.3288C0 31.3231 6.776 39.6858 15.911 42C15.813 41.7121 15.75 41.3779 15.75 40.9638V37.3183C14.8977 37.3183 13.4697 37.3183 13.111 37.3183C11.6742 37.3183 10.3967 36.6909 9.77725 35.5249C9.0895 34.2292 8.9705 32.2474 7.266 31.0352C6.76025 30.6317 7.14525 30.1714 7.728 30.2336C8.80425 30.5429 9.69675 31.2929 10.5367 32.4056C11.3732 33.52 11.767 33.7724 13.3297 33.7724C14.0875 33.7724 15.2215 33.728 16.289 33.5573C16.863 32.0768 17.8552 30.7135 19.068 30.0701C12.075 29.3396 8.73775 25.8061 8.73775 21.0089C8.73775 18.9435 9.604 16.9457 11.0757 15.2625C10.5927 13.5918 9.9855 10.1845 11.2613 8.88701C14.4078 8.88701 16.31 10.9595 16.7668 11.5193C18.3347 10.9737 20.0567 10.6644 21.8662 10.6644C23.6792 10.6644 25.4082 10.9737 26.9797 11.5229C27.4312 10.9666 29.3352 8.88701 32.4887 8.88701C33.7697 10.1863 33.1555 13.6078 32.6672 15.275C34.1302 16.9546 34.9912 18.9471 34.9912 21.0089C34.9912 25.8025 31.6592 29.3342 24.6767 30.0683C26.5982 31.0868 28 33.9484 28 36.1044V40.9638C28 41.1486 27.9597 41.2819 27.9387 41.4401C36.1217 38.527 42 30.6353 42 21.3288C42 9.54998 32.5972 0 21 0Z" fill="#6F5B3E"/>
</svg>
