<svg width="45" height="45" viewBox="0 0 45 45" fill="none" xmlns="http://www.w3.org/2000/svg">
<path d="M22.5 0C10.0744 0 0 10.2321 0 22.8523C0 33.5605 7.26 42.5205 17.0475 45C16.9425 44.6915 16.875 44.3335 16.875 43.8898V39.9839C15.9619 39.9839 14.4319 39.9839 14.0475 39.9839C12.5081 39.9839 11.1394 39.3117 10.4756 38.0624C9.73875 36.6741 9.61125 34.5508 7.785 33.252C7.24312 32.8197 7.65562 32.3265 8.28 32.3931C9.43312 32.7245 10.3894 33.5281 11.2894 34.7203C12.1856 35.9143 12.6075 36.1847 14.2819 36.1847C15.0937 36.1847 16.3087 36.1371 17.4525 35.9543C18.0675 34.368 19.1306 32.9073 20.43 32.2179C12.9375 31.4352 9.36187 27.6494 9.36187 22.5095C9.36187 20.2967 10.29 18.1562 11.8669 16.3527C11.3494 14.5626 10.6988 10.912 12.0656 9.5218C15.4369 9.5218 17.475 11.7423 17.9644 12.3421C19.6444 11.7575 21.4894 11.4262 23.4281 11.4262C25.3706 11.4262 27.2231 11.7575 28.9069 12.346C29.3906 11.7499 31.4306 9.5218 34.8094 9.5218C36.1819 10.9139 35.5237 14.5798 35.0006 16.3661C36.5681 18.1657 37.4906 20.3005 37.4906 22.5095C37.4906 27.6456 33.9206 31.4295 26.4394 32.216C28.4981 33.3072 30 36.3733 30 38.6832V43.8898C30 44.0878 29.9569 44.2306 29.9344 44.4001C38.7019 41.2789 45 32.8235 45 22.8523C45 10.2321 34.9256 0 22.5 0Z" fill="#6F5B3E"/>
</svg>
