<svg width="26" height="35" viewBox="0 0 26 35" fill="none" xmlns="http://www.w3.org/2000/svg">
<path d="M5.6 34.5333C2.5074 34.5333 0 32.3244 0 29.6C0 26.8756 2.5074 24.6667 5.6 24.6667H9.5998C10.4832 24.6667 11.2 25.2981 11.2 26.0764V29.6C11.2 32.3244 8.6926 34.5333 5.6 34.5333ZM19.6 9.86667H15.6002C14.7168 9.86667 14 9.2352 14 8.45697V1.4097C14 0.631467 14.7168 0 15.6002 0H19.6C22.6926 0 25.2 2.2089 25.2 4.93333C25.2 7.65777 22.6926 9.86667 19.6 9.86667ZM5.6 0H9.5998C10.4832 0 11.2 0.631467 11.2 1.4097V8.45697C11.2 9.2352 10.4832 9.86667 9.5998 9.86667H5.6C2.5074 9.86667 0 7.65777 0 4.93333C0 2.2089 2.5074 0 5.6 0ZM5.6 12.3333H9.5998C10.4832 12.3333 11.2 12.9648 11.2 13.743V20.7903C11.2 21.5685 10.4832 22.2 9.5998 22.2H5.6C2.5074 22.2 0 19.9911 0 17.2667C0 14.5422 2.5074 12.3333 5.6 12.3333ZM19.6 12.3333C18.1148 12.3333 16.6904 12.8531 15.6402 13.7783C14.59 14.7035 14 15.9583 14 17.2667C14 18.5751 14.59 19.8299 15.6402 20.7551C16.6904 21.6802 18.1148 22.2 19.6 22.2C21.0852 22.2 22.5096 21.6802 23.5598 20.7551C24.61 19.8299 25.2 18.5751 25.2 17.2667C25.2 15.9583 24.61 14.7035 23.5598 13.7783C22.5096 12.8531 21.0852 12.3333 19.6 12.3333Z" fill="#D90746"/>
</svg>
