<svg width="50" height="50" viewBox="0 0 50 50" fill="none" xmlns="http://www.w3.org/2000/svg">
<path d="M25.0002 3.33334C13.0535 3.33334 3.3335 13.0533 3.3335 25C3.3335 36.9467 13.0535 46.6667 25.0002 46.6667C36.9468 46.6667 46.6668 36.9467 46.6668 25C46.6668 13.0533 36.9468 3.33334 25.0002 3.33334ZM19.4435 10H30.5535C35.7619 10 40.0002 14.2367 40.0002 19.4434V30.5534C40.0002 35.7617 35.7635 40 30.5568 40H19.4468C14.2384 40 10.0002 35.7633 10.0002 30.5567V19.4466C10.0002 14.2383 14.2369 10 19.4435 10ZM19.4435 13.3333C16.0752 13.3333 13.3335 16.0766 13.3335 19.4466V30.5567C13.3335 33.925 16.0768 36.6667 19.4468 36.6667H30.5568C33.9251 36.6667 36.6668 33.9234 36.6668 30.5534V19.4434C36.6668 16.075 33.9235 13.3333 30.5535 13.3333H19.4435ZM32.7801 16.11C33.3934 16.11 33.8901 16.6067 33.8901 17.2201C33.8901 17.8334 33.3934 18.3333 32.7801 18.3333C32.1668 18.3333 31.6668 17.8334 31.6668 17.2201C31.6668 16.6067 32.1668 16.11 32.7801 16.11ZM25.0002 16.6667C29.5952 16.6667 33.3335 20.405 33.3335 25C33.3335 29.595 29.5952 33.3333 25.0002 33.3333C20.4052 33.3333 16.6668 29.595 16.6668 25C16.6668 20.405 20.4052 16.6667 25.0002 16.6667ZM25.0002 20C23.6741 20 22.4023 20.5268 21.4646 21.4645C20.5269 22.4022 20.0002 23.6739 20.0002 25C20.0002 26.3261 20.5269 27.5979 21.4646 28.5355C22.4023 29.4732 23.6741 30 25.0002 30C26.3262 30 27.598 29.4732 28.5357 28.5355C29.4734 27.5979 30.0002 26.3261 30.0002 25C30.0002 23.6739 29.4734 22.4022 28.5357 21.4645C27.598 20.5268 26.3262 20 25.0002 20Z" fill="#6F5B3E"/>
</svg>
