<svg xmlns="http://www.w3.org/2000/svg" version="1.1" xmlns:xlink="http://www.w3.org/1999/xlink" xmlns:svgjs="http://svgjs.dev/svgjs" width="2000" height="1247" viewBox="0 0 2000 1247"><g transform="matrix(1,0,0,1,-1.2121212121212466,0.5048582995951847)"><svg viewBox="0 0 396 247" data-background-color="#ffffff" preserveAspectRatio="xMidYMid meet" height="1247" width="2000" xmlns="http://www.w3.org/2000/svg" xmlns:xlink="http://www.w3.org/1999/xlink"><g id="tight-bounds" transform="matrix(1,0,0,1,0.2400000000000091,-0.09999999999999432)"><svg viewBox="0 0 395.52 247.2" height="247.2" width="395.52"><g><svg></svg></g><g><svg viewBox="0 0 395.52 247.2" height="247.2" width="395.52"><g transform="matrix(1,0,0,1,75.54432000000001,62.24617350899367)"><svg viewBox="0 0 244.43135999999996 122.70765298201265" height="122.70765298201265" width="244.43135999999996"><g><svg viewBox="0 0 365.1770384700925 183.32352" height="122.70765298201265" width="244.43135999999996"><g><rect width="13.7769201862272" height="183.32352" x="208.66699511596917" y="0" fill="#233565" opacity="1" stroke-width="0" stroke="transparent" fill-opacity="1" class="rect-qz-0" data-fill-palette-color="primary" rx="1%" id="qz-0" data-palette-color="#233565"></rect></g><g transform="matrix(1,0,0,1,0,15.276960000000003)"><svg viewBox="0 0 172.60175902636917 152.7696" height="152.7696" width="172.60175902636917"><g id="textblocktransform"><svg viewBox="0 0 172.60175902636917 152.7696" height="152.7696" width="172.60175902636917" id="textblock"><g><svg viewBox="0 0 172.60175902636917 152.7696" height="152.7696" width="172.60175902636917"><g transform="matrix(1,0,0,1,0,0)"><svg width="172.60175902636917" viewBox="0.65 -38.05 55.7 49.3" height="152.7696" data-palette-color="#233565"><path d="M20.9-27.55Q23.7-27.55 25.28-25.85 26.85-24.15 26.85-21.15L26.85-21.15Q26.85-20.05 26.75-19.45L26.75-19.45 24 0 15.25 0 17.7-17.3 17.8-18.5Q17.8-20.3 16.55-20.3L16.55-20.3Q14.3-20.3 11.4-14.25L11.4-14.25 9.4 0 0.65 0 5.85-37.15 14.7-38.05 12.5-22.35Q13.85-24.7 16.13-26.13 18.4-27.55 20.9-27.55L20.9-27.55ZM27.25 11.25L32.55-26.65 40.3-26.65 40.35-23.8Q42.2-25.75 44.2-26.65 46.2-27.55 48.1-27.55L48.1-27.55Q52.2-27.55 54.27-24.88 56.35-22.2 56.35-17.2L56.35-17.2Q56.35-12.9 54.95-8.75 53.55-4.6 50.37-1.83 47.2 0.95 42.2 0.95L42.2 0.95Q39.45 0.95 37.5 0.2L37.5 0.2 36 10.3 27.25 11.25ZM41.35-5.5Q43.45-5.5 44.8-7.28 46.15-9.05 46.75-11.68 47.35-14.3 47.35-16.9L47.35-16.9Q47.35-19.25 46.62-20.18 45.9-21.1 44.65-21.1L44.65-21.1Q42.25-21.1 40.15-18.25L40.15-18.25 38.45-6.05Q39.9-5.5 41.35-5.5L41.35-5.5Z" opacity="1" transform="matrix(1,0,0,1,0,0)" fill="#233565" class="wordmark-text-0" data-fill-palette-color="primary" id="text-0"></path></svg></g></svg></g></svg></g></svg></g><g transform="matrix(1,0,0,1,258.50915139179637,53.31507089311353)"><svg viewBox="0 0 106.66788707829615 76.69337821377295" height="76.69337821377295" width="106.66788707829615"><g><svg xmlns="http://www.w3.org/2000/svg" xmlns:xlink="http://www.w3.org/1999/xlink" version="1.1" x="0" y="0" viewBox="9.666 21.00033765356684 80.668 57.999662346433155" enable-background="new 0 0 100 100" xml:space="preserve" height="76.69337821377295" width="106.66788707829615" class="icon-icon-0" data-fill-palette-color="accent" id="icon-0"><path d="M32.951 28.716c-0.781-0.781-2.047-0.781-2.828 0l-19.871 19.87C9.877 48.961 9.666 49.47 9.666 50s0.211 1.039 0.586 1.414l19.871 19.87c0.391 0.391 0.902 0.586 1.414 0.586s1.023-0.195 1.414-0.586c0.781-0.781 0.781-2.047 0-2.828L14.494 50l18.457-18.456C33.732 30.763 33.732 29.497 32.951 28.716zM89.748 48.586l-19.871-19.87c-0.781-0.781-2.047-0.781-2.828 0s-0.781 2.047 0 2.828L85.506 50 67.049 68.456c-0.781 0.781-0.781 2.047 0 2.828 0.391 0.391 0.902 0.586 1.414 0.586s1.023-0.195 1.414-0.586l19.871-19.87c0.375-0.375 0.586-0.884 0.586-1.414S90.123 48.961 89.748 48.586zM63.208 21.182c-1.002-0.458-2.191-0.021-2.651 0.985l-24.75 54c-0.46 1.004-0.02 2.19 0.985 2.651C37.062 78.941 37.345 79 37.624 79c0.758 0 1.482-0.433 1.819-1.167l24.75-54C64.653 22.829 64.213 21.643 63.208 21.182z" fill="#0074d9" data-fill-palette-color="accent"></path></svg></g></svg></g></svg></g></svg></g><g><path d="M245.816 0c68.262 0 123.6 55.338 123.6 123.6 0 68.262-55.338 123.6-123.6 123.6-40.767 0-76.924-19.737-99.438-50.176h5.797c21.784 27.743 55.631 45.565 93.641 45.565 65.716 0 118.989-53.273 118.989-118.989 0-65.716-53.273-118.989-118.989-118.989-38.01 0-71.857 17.822-93.641 45.565l-5.797 0c22.514-30.439 58.671-50.176 99.438-50.176z" fill="#233565" stroke="transparent" data-fill-palette-color="tertiary"></path></g></svg></g><defs></defs></svg><rect width="395.52" height="247.2" fill="none" stroke="none" visibility="hidden"></rect></g></svg></g></svg>