<svg width="25" height="25" viewBox="0 0 25 25" fill="none" xmlns="http://www.w3.org/2000/svg">
<path d="M6.76226 2.34375C6.35367 2.34375 5.95054 2.49062 5.61461 2.75859L5.56617 2.78281L5.54195 2.80781L3.10054 5.32266L3.12476 5.34609C2.76654 5.67137 2.51273 6.0955 2.39537 6.56492C2.27801 7.03434 2.30238 7.52801 2.46539 7.98359C2.46851 7.98984 2.46226 8.00156 2.46539 8.00781C3.12789 9.90312 4.82164 13.5625 8.12945 16.8703C11.4498 20.1906 15.1576 21.8172 16.992 22.5344H17.0162C17.4759 22.6863 17.9671 22.7167 18.442 22.6225C18.917 22.5283 19.3594 22.3128 19.7263 21.9969L22.192 19.5312C22.8388 18.8844 22.8388 17.7609 22.192 17.1141L19.0185 13.9406L18.9935 13.8914C18.3466 13.2445 17.1998 13.2445 16.5521 13.8914L14.9896 15.4539C13.817 14.8906 12.7384 14.1495 11.792 13.257C10.513 12.0359 9.85992 10.632 9.61929 10.0828L11.1818 8.52031C11.838 7.86406 11.8498 6.77187 11.1568 6.12812L11.181 6.10312L11.1084 6.03047L7.98336 2.80781L7.95914 2.78359L7.90992 2.75859C7.58567 2.49383 7.18086 2.3475 6.76226 2.34375ZM6.76226 3.90625C6.82613 3.90996 6.88667 3.93595 6.93336 3.97969L10.0584 7.17734L10.1318 7.25078C10.1255 7.24453 10.1771 7.32734 10.0826 7.42187L8.12945 9.375L7.76304 9.71719L7.93492 10.2047C7.93492 10.2047 8.83179 12.607 10.7177 14.4047L10.8888 14.5508C12.7037 16.2078 14.8435 17.1141 14.8435 17.1141L15.3318 17.3344L17.6513 15.0141C17.7857 14.8805 17.7607 14.8805 17.8951 15.0141L21.0935 18.2141C21.2279 18.3477 21.2279 18.2992 21.0935 18.4328L18.7005 20.8258C18.3412 21.1344 17.9591 21.1984 17.5052 21.0461C15.7349 20.35 12.2951 18.8391 9.22789 15.7727C6.13648 12.6805 4.52242 9.17422 3.93101 7.47187C3.81148 7.15391 3.89664 6.68437 4.17476 6.44609L4.2232 6.39687L6.59195 3.98047C6.63812 3.93678 6.69806 3.91053 6.76148 3.90625H6.76226Z" fill="#6F5B3E"/>
</svg>
