<svg width="55" height="55" viewBox="0 0 55 55" fill="none" xmlns="http://www.w3.org/2000/svg">
<path d="M27.5 5.5C15.3505 5.5 5.5 15.3505 5.5 27.5C5.5 39.6495 15.3505 49.5 27.5 49.5C39.6495 49.5 49.5 39.6495 49.5 27.5C49.5 15.3505 39.6495 5.5 27.5 5.5ZM39.3507 22.9808C39.3617 23.2247 39.3672 23.4667 39.3672 23.7087C39.3672 31.1667 33.693 39.7613 23.3145 39.7613C20.1263 39.7613 17.1618 38.8282 14.6667 37.2258C15.1085 37.279 15.5577 37.3028 16.0142 37.3028C18.6597 37.3028 21.0907 36.4027 23.0193 34.8865C20.5498 34.8407 18.4653 33.209 17.7485 30.9687C18.0932 31.0347 18.447 31.0695 18.81 31.0695C19.3252 31.0695 19.8257 30.9998 20.2968 30.8715C17.7155 30.3545 15.7703 28.0738 15.7703 25.3403C15.7703 25.3165 15.7703 25.2927 15.7703 25.2688C16.5312 25.6923 17.4002 25.9453 18.326 25.9747C16.8135 24.9645 15.8162 23.2357 15.8162 21.2795C15.8162 20.2437 16.093 19.2738 16.5788 18.4433C19.3618 21.857 23.5198 24.1047 28.2077 24.3393C28.1123 23.9268 28.0628 23.496 28.0628 23.0542C28.0628 19.9393 30.5892 17.4112 33.704 17.4112C35.3265 17.4112 36.7932 18.0968 37.8217 19.1932C39.1068 18.9383 40.315 18.4708 41.4058 17.8237C40.9842 19.1418 40.0895 20.2455 38.9235 20.9458C40.0638 20.8102 41.151 20.5077 42.1648 20.0585C41.4113 21.1915 40.4562 22.1833 39.3507 22.9808Z" fill="#6F5B3E"/>
</svg>
